<svg width="200" height="200" viewBox="0 0 200 200" fill="none" xmlns="http://www.w3.org/2000/svg">
<g id="Opinion-pana 1">
<g id="freepik--Character--inject-26">
<path id="Vector" d="M135.468 104.6L115.152 98.084L90.8361 98C90.8361 98 72.0721 103.852 69.7921 105.06L68.7441 155.636L67.9441 184.472L134.216 184.12V149.2L135.468 104.6Z" fill="#2B29A4"/>
<path id="Vector_2" d="M69.7921 105.052C64.6955 109.619 60.7509 115.326 58.2801 121.708C55.5761 128.852 49.4321 144.704 49.4321 144.704L68.6841 151.528L73.0361 120.8L69.7921 105.052Z" fill="#2B29A4"/>
<path id="Vector_3" d="M133.112 103.844C133.112 103.844 138.124 104.272 143.04 112.148C146.504 117.708 154.948 142.032 154.948 142.032L132.728 149.796L127.364 145.664L133.112 103.844Z" fill="#2B29A4"/>
<path id="Vector_4" d="M68.7439 117.56C68.8039 117.56 68.8479 126.084 68.8479 136.592C68.8479 147.1 68.8039 155.628 68.7439 155.628C68.6839 155.628 68.6399 147.108 68.6399 136.592C68.6399 126.076 68.6879 117.56 68.7439 117.56Z" fill="#263238"/>
<path id="Vector_5" d="M67.792 119.384C67.4441 119.32 67.1081 119.203 66.796 119.036C65.2477 118.304 63.9475 117.134 63.056 115.672C62.8559 115.382 62.7034 115.062 62.604 114.724C63.7832 116.803 65.6091 118.439 67.804 119.384H67.792Z" fill="white"/>
<path id="Vector_6" d="M133.288 121.072C133.242 121.105 133.192 121.132 133.14 121.152L132.696 121.376L130.976 122.204L129.728 122.804C129.268 123.008 128.756 123.204 128.208 123.424C127.112 123.856 125.884 124.408 124.464 124.84L122.252 125.576C121.48 125.824 120.652 126.012 119.816 126.248L118.532 126.588C118.312 126.644 118.096 126.712 117.872 126.76L117.192 126.9L114.392 127.476C110.196 128.208 105.947 128.591 101.688 128.62C97.4273 128.588 93.1767 128.203 88.9799 127.468L86.1799 126.896L85.4999 126.756C85.2799 126.704 85.0599 126.64 84.8399 126.584L83.5559 126.24C82.7159 126.004 81.8919 125.816 81.1199 125.568L78.9119 124.832C77.4879 124.396 76.2599 123.844 75.1639 123.416C74.6199 123.192 74.1039 122.996 73.6439 122.792L72.3999 122.196L70.6799 121.364L70.2359 121.144C70.1836 121.122 70.1339 121.093 70.0879 121.06L70.2439 121.124L70.6959 121.328L72.4319 122.128L73.6839 122.708C74.1479 122.908 74.6599 123.108 75.2079 123.316C76.3079 123.736 77.5359 124.276 78.9559 124.7L81.1679 125.42C81.9359 125.668 82.7679 125.852 83.5999 126.08L84.8839 126.42C85.1039 126.472 85.3199 126.536 85.5439 126.588L86.2199 126.724L89.0199 127.288C93.2013 128.002 97.434 128.374 101.676 128.4C105.924 128.37 110.162 127.992 114.348 127.272L117.148 126.708L117.824 126.572C118.048 126.524 118.268 126.46 118.484 126.404L119.768 126.068C120.608 125.836 121.432 125.668 122.2 125.408L124.412 124.688C125.832 124.264 127.06 123.724 128.16 123.304C128.708 123.088 129.224 122.904 129.684 122.7L130.936 122.12L132.672 121.32L133.128 121.12L133.288 121.072Z" fill="white"/>
<path id="Vector_7" d="M143.004 114.068C143.004 114.068 142.924 114.176 142.752 114.348C142.58 114.52 142.316 114.748 141.988 115.04C141.127 115.779 140.22 116.461 139.272 117.084C138.324 117.708 137.338 118.272 136.32 118.772C135.92 118.96 135.604 119.104 135.38 119.196C135.266 119.254 135.145 119.296 135.02 119.32C135.416 119.068 135.828 118.841 136.252 118.64C137.012 118.24 138.052 117.636 139.156 116.912C140.26 116.188 141.216 115.464 141.896 114.912C142.249 114.609 142.619 114.327 143.004 114.068Z" fill="white"/>
<path id="Vector_8" d="M68.424 123.9C68.2974 123.899 68.1717 123.877 68.052 123.836C67.7195 123.755 67.3922 123.653 67.072 123.532C64.9339 122.745 63.0647 121.364 61.684 119.552C61.4747 119.282 61.2823 118.998 61.108 118.704C61.0358 118.6 60.978 118.487 60.936 118.368C60.968 118.368 61.256 118.8 61.8 119.464C63.2238 121.193 65.0527 122.544 67.124 123.396C67.916 123.724 68.432 123.868 68.424 123.9Z" fill="white"/>
<path id="Vector_9" d="M132.144 128.02L131.996 128.096L131.552 128.308L129.84 129.108L128.6 129.676C128.14 129.872 127.632 130.052 127.088 130.26C125.996 130.66 124.776 131.184 123.364 131.58L121.164 132.256C120.4 132.484 119.564 132.656 118.764 132.86L117.484 133.168C117.268 133.216 117.052 133.276 116.832 133.32L116.156 133.436L113.356 133.932C109.199 134.534 104.999 134.782 100.8 134.672C96.5981 134.494 92.419 133.959 88.308 133.072L85.556 132.392L84.896 132.228C84.676 132.172 84.464 132.096 84.252 132.032L82.996 131.632C82.176 131.368 81.372 131.148 80.624 130.868L78.476 130.048C77.092 129.56 75.908 128.956 74.848 128.484C74.32 128.24 73.82 128.024 73.376 127.8L72.176 127.152L70.52 126.252L70.092 126.012L69.948 125.924C70.0011 125.941 70.0521 125.964 70.1 125.992L70.54 126.212L72.212 127.08L73.412 127.712C73.86 127.928 74.36 128.14 74.888 128.38C75.952 128.84 77.14 129.432 78.52 129.912L80.668 130.712C81.416 130.988 82.22 131.204 83.04 131.464L84.292 131.864C84.504 131.928 84.716 132 84.936 132.06L85.596 132.22L88.34 132.888C92.4421 133.76 96.61 134.287 100.8 134.464C104.991 134.571 109.183 134.325 113.332 133.728L116.132 133.244L116.8 133.128C117.024 133.088 117.24 133.028 117.456 132.98L118.732 132.68C119.564 132.472 120.38 132.312 121.132 132.088L123.332 131.424C124.744 131.024 125.964 130.532 127.06 130.14C127.6 129.936 128.116 129.74 128.576 129.572L129.82 129.024L131.548 128.268L131.996 128.08C132.043 128.055 132.093 128.035 132.144 128.02Z" fill="white"/>
<path id="Vector_10" d="M145.268 116.736C145.168 116.874 145.051 116.999 144.92 117.108C144.688 117.34 144.344 117.664 143.912 118.056C143.044 118.856 141.812 119.888 140.396 120.972C138.98 122.056 137.644 122.972 136.66 123.6C136.168 123.916 135.768 124.164 135.484 124.328C135.343 124.422 135.193 124.501 135.036 124.564C135.158 124.448 135.292 124.346 135.436 124.26L136.576 123.46C137.536 122.8 138.852 121.86 140.264 120.788C141.676 119.716 142.92 118.684 143.808 117.928L144.864 117.032C144.99 116.922 145.125 116.823 145.268 116.736Z" fill="white"/>
<path id="Vector_11" d="M98.1601 161.052C98.0643 161.074 97.9663 161.084 97.8681 161.084L97.0241 161.136C96.6601 161.164 96.2241 161.18 95.6921 161.188C95.1601 161.196 94.5841 161.216 93.9281 161.212C92.6201 161.212 91.0601 161.164 89.3321 161.072C87.6041 160.98 85.7121 160.796 83.7321 160.556C81.7521 160.316 79.8721 160 78.1721 159.684C76.4721 159.368 74.9481 159.028 73.6801 158.696C73.0441 158.544 72.4801 158.384 71.9761 158.244C71.4721 158.104 71.0441 157.984 70.6961 157.872L69.8961 157.612C69.8023 157.584 69.7101 157.551 69.6201 157.512C69.7182 157.52 69.8149 157.541 69.9081 157.572L70.7081 157.792C71.0561 157.892 71.5081 158.008 71.9921 158.132C72.4761 158.256 73.0681 158.412 73.7041 158.556C74.9721 158.864 76.5041 159.172 78.1921 159.496C79.8801 159.82 81.7681 160.096 83.7481 160.348C85.7281 160.6 87.6161 160.748 89.3481 160.88C91.0801 161.012 92.6281 161.056 93.9321 161.064C94.5841 161.064 95.1761 161.064 95.6961 161.064C96.2161 161.064 96.6601 161.064 97.0281 161.064H97.8681C97.9649 161.052 98.0626 161.048 98.1601 161.052Z" fill="white"/>
<path id="Vector_12" d="M93.0999 165.552C93.0172 165.57 92.9326 165.578 92.8479 165.576L92.1319 165.6C91.8199 165.6 91.4359 165.6 90.9959 165.6C90.5559 165.6 90.0479 165.6 89.4919 165.568C88.3759 165.536 87.0519 165.432 85.5839 165.296C84.1159 165.16 82.5079 164.94 80.8279 164.68C77.4639 164.152 74.4479 163.52 72.2719 163.04C71.1839 162.8 70.3079 162.596 69.6999 162.452L69.0039 162.276C68.921 162.261 68.8404 162.235 68.7639 162.2C68.8486 162.206 68.9328 162.218 69.0159 162.236L69.7199 162.372L72.3039 162.896C74.4839 163.34 77.5039 163.944 80.8599 164.476C82.5359 164.732 84.1399 164.944 85.6039 165.104C87.0679 165.264 88.4039 165.368 89.4959 165.42C90.0519 165.456 90.5559 165.468 90.9959 165.484C91.4359 165.5 91.8199 165.512 92.1319 165.512H92.8479C92.9332 165.516 93.0177 165.529 93.0999 165.552Z" fill="white"/>
<path id="Vector_13" d="M134.204 156.672L134.116 156.7L133.856 156.764L132.848 157C131.972 157.204 130.7 157.472 129.124 157.776C125.976 158.388 121.592 159.1 116.724 159.604C111.856 160.108 107.412 160.308 104.2 160.352C102.6 160.376 101.296 160.376 100.4 160.352L99.3681 160.328H100.4C101.296 160.328 102.596 160.3 104.2 160.26C107.4 160.176 111.832 159.952 116.7 159.46C121.568 158.968 125.948 158.26 129.1 157.692C130.676 157.404 131.952 157.16 132.832 156.98L133.844 156.784L134.112 156.74C134.136 156.709 134.168 156.685 134.204 156.672Z" fill="white"/>
<path id="Vector_14" d="M134.204 162.208C134.172 162.224 134.139 162.234 134.104 162.24L133.808 162.3L132.664 162.52C131.672 162.704 130.232 162.96 128.448 163.244C126.664 163.528 124.54 163.844 122.172 164.156C119.804 164.468 117.192 164.736 114.444 164.956C111.696 165.176 109.068 165.26 106.676 165.28C104.284 165.3 102.136 165.216 100.336 165.052C99.8839 165.012 99.4559 164.984 99.0519 164.944L97.9079 164.808L96.9159 164.688C96.6119 164.644 96.3359 164.592 96.0879 164.552L94.9399 164.352L94.6439 164.292C94.6096 164.289 94.5758 164.281 94.5439 164.268C94.5783 164.262 94.6135 164.262 94.6479 164.268L94.9479 164.304L96.0999 164.468C96.3479 164.5 96.6239 164.548 96.9279 164.584L97.9239 164.688L99.0639 164.808C99.4639 164.844 99.8959 164.868 100.348 164.9C102.144 165.044 104.292 165.084 106.676 165.084C109.06 165.084 111.68 164.944 114.428 164.744C117.176 164.544 119.78 164.252 122.148 163.968C124.516 163.684 126.644 163.376 128.428 163.104C130.212 162.832 131.652 162.604 132.652 162.444L133.8 162.264L134.1 162.22L134.204 162.208Z" fill="white"/>
<path id="Vector_15" d="M121.836 141.08C121.836 141.08 121.808 141.112 121.744 141.168L121.452 141.42L120.324 142.356L116.168 145.8C112.664 148.712 107.848 152.764 102.596 157.316C97.344 161.868 92.648 166.064 89.268 169.12L85.268 172.744L84.18 173.728L83.892 173.98C83.8602 174.009 83.8269 174.035 83.792 174.06C83.792 174.06 83.816 174.024 83.88 173.964L84.152 173.696L85.216 172.684C86.14 171.808 87.488 170.552 89.168 169.012C92.524 165.928 97.204 161.712 102.456 157.156C107.708 152.6 112.548 148.568 116.076 145.688C117.84 144.244 119.276 143.088 120.276 142.296L121.428 141.384L121.728 141.152C121.761 141.123 121.797 141.099 121.836 141.08Z" fill="#263238"/>
<g id="Group" opacity="0.3">
<path id="Vector_16" d="M102.06 157.764L88.2881 169.908C100.148 164.536 110.288 156.36 116.864 145.132L102.06 157.764Z" fill="black"/>
</g>
<g id="Group_2" opacity="0.3">
<path id="Vector_17" d="M134.204 149.2C137.18 143.164 137.248 131.332 134.24 124.8C134.42 132.136 134.404 141.876 134.204 149.2Z" fill="black"/>
</g>
<path id="Vector_18" d="M134.204 118.948C134.26 118.948 134.308 133.536 134.308 151.528C134.308 169.52 134.26 184.112 134.204 184.112C134.148 184.112 134.096 169.524 134.096 151.528C134.096 133.532 134.144 118.948 134.204 118.948Z" fill="#263238"/>
<path id="Vector_19" d="M129.312 68.468C130.296 66.308 131.312 64.068 131.44 61.696C131.568 59.324 130.664 56.712 128.64 55.58C126.76 54.54 124.412 54.956 122.408 54.192C119.94 53.248 118.408 50.704 117.372 48.212C116.336 45.72 117.88 44.856 116.056 42.896C113.636 40.3 112.032 39.9 108.856 41.38C106.636 39.732 98.8561 36.656 96.6001 36.536C93.2481 36.356 89.4201 36.536 87.0241 38.892C85.1641 40.716 83.9561 43.064 81.6961 44.356C78.5881 46.136 74.7081 44.476 71.1281 44.528C70.3961 44.528 69.5281 44.704 69.2241 45.364C68.9521 45.932 69.2241 46.604 69.4721 47.18C70.3521 49.124 71.2308 51.0693 72.1081 53.016C71.3432 53.3443 70.5138 53.4947 69.6823 53.4559C68.8509 53.4171 68.0391 53.1901 67.3081 52.792C67.3986 56.6021 68.8226 60.2597 71.3321 63.128C70.7081 62.664 69.7321 63.128 69.4081 63.812C69.0841 64.496 69.2001 65.344 69.3881 66.1C69.9622 68.428 71.0291 70.6058 72.5169 72.4862C74.0046 74.3666 75.8785 75.9058 78.012 77.0001C80.1455 78.0943 82.489 78.7181 84.8841 78.8291C87.2793 78.9402 89.6705 78.5361 91.8961 77.644L111.6 79.576C111.855 80.3428 112.29 81.0371 112.869 81.6003C113.448 82.1635 114.154 82.5791 114.928 82.812C117.176 81.212 117.552 80.316 117.552 80.316C118.888 81.36 117.832 80.824 118.888 81.36C121.308 82.56 124.96 81.276 125.572 78.56C125.828 77.428 126.168 76.34 126.952 75.58C127.736 74.82 128.872 74.524 129.868 74.052C131.459 73.285 132.758 72.0215 133.568 70.452C132.76 70.4324 131.965 70.246 131.233 69.9046C130.5 69.5632 129.847 69.0741 129.312 68.468Z" fill="#263238"/>
<path id="Vector_20" d="M99.2719 39.732L98.2799 39.78C93.4685 40.0219 88.9244 42.066 85.5513 45.5057C82.1783 48.9454 80.2236 53.5287 80.0759 58.344C79.7959 67.64 79.6079 77.916 79.9199 82.88C80.5639 93.156 90.9239 94.236 90.9239 94.236C90.9239 94.344 90.8919 95.884 90.8359 97.992C90.791 99.6036 91.0696 101.208 91.6553 102.71C92.2409 104.212 93.1217 105.582 94.2456 106.738C95.3695 107.894 96.7137 108.813 98.1988 109.44C99.6839 110.068 101.28 110.392 102.892 110.392C106.059 110.392 109.099 109.147 111.355 106.925C113.612 104.703 114.904 101.683 114.952 98.516L115.54 59.716C115.92 48.972 110 39.816 99.2719 39.732Z" fill="#FFBE9D"/>
<path id="Vector_21" d="M90.9241 94.236C90.9241 94.236 97.4241 94.288 104.124 89.604C104.124 89.604 101.236 97.276 90.9241 96.868V94.236Z" fill="#EB996E"/>
<path id="Vector_22" d="M97.512 62.94C97.712 63.152 98.916 62.224 100.636 62.216C102.356 62.208 103.62 63.08 103.804 62.864C103.896 62.768 103.692 62.384 103.14 61.976C102.398 61.4559 101.51 61.183 100.604 61.196C99.7057 61.1997 98.8327 61.4945 98.116 62.036C97.6 62.456 97.416 62.844 97.512 62.94Z" fill="#263238"/>
<path id="Vector_23" d="M99.0479 66.144C99.0635 66.5055 99.2192 66.8467 99.482 67.0953C99.7448 67.344 100.094 67.4805 100.456 67.476C100.633 67.4819 100.81 67.452 100.976 67.3881C101.142 67.3242 101.293 67.2277 101.421 67.1041C101.548 66.9806 101.65 66.8326 101.719 66.6691C101.788 66.5055 101.824 66.3296 101.824 66.152C101.813 65.7842 101.658 65.4355 101.391 65.1821C101.124 64.9288 100.768 64.7914 100.4 64.8C100.222 64.7973 100.046 64.8302 99.8812 64.8967C99.7165 64.9632 99.5668 65.062 99.4408 65.1872C99.3148 65.3124 99.2152 65.4616 99.1477 65.6259C99.0802 65.7902 99.0463 65.9664 99.0479 66.144Z" fill="#263238"/>
<path id="Vector_24" d="M92.9399 74.8C92.9399 74.712 91.9519 74.588 90.3519 74.468C89.9519 74.444 89.5519 74.384 89.4759 74.112C89.3999 73.84 89.5159 73.384 89.6879 72.912C90.0159 71.9146 90.3612 70.8706 90.7239 69.78C92.1599 65.324 93.1799 61.668 92.9999 61.608C92.8199 61.548 91.5079 65.12 90.0719 69.576C89.7279 70.6773 89.3986 71.7266 89.0839 72.724C88.9559 73.192 88.7199 73.724 88.9559 74.324C89.0217 74.463 89.1181 74.5852 89.238 74.6816C89.3578 74.7779 89.498 74.8457 89.6479 74.88C89.8751 74.9291 90.1076 74.9492 90.3399 74.94C91.9439 74.924 92.9399 74.884 92.9399 74.8Z" fill="#263238"/>
<path id="Vector_25" d="M97.908 56.192C98.068 56.592 99.448 56.32 101.108 56.44C102.768 56.56 104.1 56.956 104.308 56.596C104.396 56.42 104.148 56.064 103.596 55.712C102.867 55.2843 102.048 55.0336 101.205 54.9801C100.361 54.9266 99.517 55.0718 98.74 55.404C98.128 55.684 97.84 56 97.908 56.192Z" fill="#263238"/>
<path id="Vector_26" d="M82 59.312C82.176 59.628 83.524 59.312 85.148 59.312C86.772 59.312 88.116 59.536 88.296 59.216C88.376 59.06 88.112 58.776 87.552 58.516C86.7934 58.1962 85.9749 58.0434 85.152 58.068C84.3234 58.0741 83.5055 58.2554 82.752 58.6C82.192 58.868 81.924 59.164 82 59.312Z" fill="#263238"/>
<path id="Vector_27" d="M115.084 67.348C115.252 67.264 122.04 64.904 122.172 71.944C122.304 78.984 115.2 77.66 115.2 77.46C115.2 77.26 115.084 67.348 115.084 67.348Z" fill="#FFBE9D"/>
<path id="Vector_28" d="M117.292 74.752C117.32 74.728 117.416 74.836 117.624 74.928C117.918 75.0462 118.246 75.0462 118.54 74.928C119.28 74.64 119.884 73.448 119.896 72.18C119.901 71.5767 119.773 70.9797 119.52 70.432C119.45 70.2132 119.328 70.0146 119.164 69.8536C119.001 69.6926 118.8 69.574 118.58 69.508C118.439 69.4719 118.289 69.4871 118.158 69.5508C118.027 69.6145 117.923 69.7227 117.864 69.856C117.772 70.056 117.82 70.196 117.78 70.208C117.74 70.22 117.628 70.092 117.68 69.808C117.717 69.6329 117.811 69.4752 117.948 69.36C118.14 69.2117 118.383 69.1442 118.624 69.172C118.914 69.2231 119.187 69.3482 119.414 69.5353C119.642 69.7224 119.818 69.9652 119.924 70.24C120.236 70.843 120.395 71.5132 120.388 72.192C120.368 73.612 119.664 74.952 118.652 75.264C118.464 75.3227 118.266 75.3384 118.071 75.31C117.877 75.2816 117.691 75.2098 117.528 75.1C117.308 74.92 117.268 74.764 117.292 74.752Z" fill="#EB996E"/>
<path id="Vector_29" d="M124.688 56.172C123.28 53.66 123.004 50.692 122.268 47.908C121.532 45.124 120.052 42.22 117.36 41.2L117.296 41.224C114.896 40.188 111.88 40.108 109.84 41.752C109.44 38.088 106.288 35.12 102.74 34.104C99.192 33.088 93.46 33.508 90 34.8C87.332 35.804 84.724 37.928 81.544 41.064C80.2012 42.3833 78.969 43.8108 77.86 45.332L74.54 54.84C74.2013 55.0788 73.9006 55.3674 73.648 55.696C72.376 57.352 74.636 59.516 76.232 58.168L76.26 58.144C76.568 58.696 76.792 59.252 77.036 59.808L77.088 59.912C77.24 60.256 77.4 60.604 77.588 60.944L79.748 71.584C79.964 68.7 79.98 58.652 80.196 55.768C82.3696 55.7538 84.5177 55.2999 86.5112 54.4338C88.5048 53.5676 90.3024 52.3071 91.796 50.728C93.396 49.016 94.704 46.856 96.836 45.86C99.584 44.576 102.804 45.628 105.636 46.688L105.516 46.576C106.997 47.3005 108.324 48.3042 109.424 49.532C108.658 55.2251 109.127 61.0165 110.8 66.512C111.048 67.34 111.744 69.04 112.544 69.372C114.108 70.016 114.568 68.416 115.54 67.584C116.252 66.972 117.292 66.912 118.428 66.944C119.132 65.204 119.888 62.264 120.524 59.688C121.471 60.0045 122.48 60.0949 123.468 59.952L122.612 57.756C122.981 58.0425 123.406 58.2471 123.86 58.356C124.087 58.4053 124.323 58.3842 124.538 58.2955C124.752 58.2069 124.934 58.055 125.06 57.86C125.336 57.328 124.984 56.7 124.688 56.172Z" fill="#263238"/>
<path id="Vector_30" d="M106.584 42.852C106.946 43.1448 107.283 43.4673 107.592 43.816C108.381 44.8136 108.898 45.9989 109.092 47.256C109.248 48.1176 109.316 48.9927 109.296 49.868C109.276 50.812 109.18 51.824 109.084 52.888C108.962 54.0036 108.91 55.1258 108.928 56.248C108.949 56.8452 109.013 57.4401 109.12 58.028C109.196 58.6575 109.433 59.2569 109.808 59.768C109.982 59.9711 110.206 60.1257 110.458 60.2168C110.709 60.308 110.98 60.3325 111.244 60.288C111.746 60.2099 112.209 59.968 112.56 59.6C113.24 58.844 113.424 57.872 113.608 57.012L113.392 57.036C113.686 57.8147 114.09 58.5475 114.592 59.212C115.08 59.828 115.786 60.2332 116.564 60.344C116.926 60.3898 117.293 60.333 117.624 60.18C117.933 60.0301 118.19 59.7903 118.36 59.492C118.52 59.2166 118.602 58.9025 118.596 58.584C118.59 58.2895 118.481 58.0065 118.288 57.784L118.176 57.88C118.771 58.5919 119.508 59.1722 120.34 59.584C120.561 59.6903 120.788 59.7838 121.02 59.864C121.098 59.895 121.18 59.9165 121.264 59.928C121.19 59.8869 121.112 59.8521 121.032 59.824C120.808 59.7314 120.589 59.6273 120.376 59.512C119.572 59.0818 118.862 58.4958 118.288 57.788L118.176 57.88C118.34 58.0992 118.432 58.3643 118.439 58.6382C118.445 58.9121 118.366 59.1812 118.212 59.408C118.057 59.6738 117.826 59.8869 117.548 60.02C117.245 60.1529 116.911 60.1986 116.584 60.152C115.859 60.0431 115.205 59.6592 114.756 59.08C114.271 58.4287 113.883 57.7106 113.604 56.948L113.464 56.616L113.388 56.972C113.204 57.828 112.988 58.76 112.388 59.44C112.071 59.7806 111.648 60.0034 111.188 60.072C110.967 60.109 110.74 60.0879 110.53 60.0108C110.319 59.9336 110.133 59.8031 109.988 59.632C109.642 59.1534 109.425 58.5943 109.356 58.008C109.249 57.4322 109.185 56.8493 109.164 56.264C109.143 55.1515 109.19 54.0388 109.304 52.932C109.392 51.868 109.484 50.852 109.492 49.896C109.508 49.0074 109.429 48.1197 109.256 47.248C109.043 45.9694 108.491 44.7715 107.656 43.78C107.356 43.4101 106.993 43.096 106.584 42.852Z" fill="#455A64"/>
<path id="Vector_31" d="M74.6279 52.116C74.6512 52.1435 74.6781 52.1677 74.7079 52.188L74.9599 52.38C75.0967 52.4876 75.2411 52.5852 75.3919 52.672C75.5894 52.799 75.7952 52.9125 76.0079 53.012C77.3742 53.6719 78.8846 53.9773 80.3999 53.9C82.6436 53.8044 84.8113 53.0596 86.6399 51.756C88.7239 50.328 90.5719 48.196 92.0959 45.756C92.8719 44.532 93.5079 43.272 94.2039 42.112C94.8404 40.9798 95.6365 39.9452 96.5679 39.04C97.406 38.222 98.4362 37.6278 99.5639 37.312C100.074 37.1819 100.602 37.1333 101.128 37.168C101.613 37.2082 102.09 37.3117 102.548 37.476C103.947 37.9887 105.101 39.0099 105.78 40.336C106.001 40.8337 106.168 41.3542 106.276 41.888C106.28 41.8521 106.28 41.8159 106.276 41.78C106.276 41.696 106.252 41.592 106.236 41.464C106.162 41.0614 106.04 40.6692 105.872 40.296C105.591 39.7118 105.215 39.178 104.76 38.716C104.153 38.1 103.42 37.6224 102.612 37.316C102.141 37.1405 101.649 37.0289 101.148 36.984C100.603 36.9428 100.055 36.9887 99.5239 37.12C98.3517 37.4274 97.2768 38.0275 96.3999 38.864C95.455 39.781 94.6468 40.8291 93.9999 41.976C93.2959 43.148 92.6559 44.404 91.8919 45.616C90.3759 48.052 88.5559 50.156 86.5119 51.572C84.7188 52.8621 82.5937 53.6117 80.3879 53.732C78.9032 53.8172 77.4199 53.5427 76.0639 52.932C75.5695 52.6887 75.09 52.4162 74.6279 52.116Z" fill="#455A64"/>
<path id="Vector_32" d="M73.7959 47.6C73.9034 47.7056 74.0261 47.7946 74.1599 47.864C74.5029 48.085 74.8627 48.2789 75.2359 48.444C75.7879 48.6948 76.3607 48.8969 76.9479 49.048C77.6689 49.2308 78.4055 49.346 79.1479 49.392C79.8908 49.4258 80.6353 49.391 81.3719 49.288C81.9701 49.2043 82.5601 49.0705 83.1359 48.888C83.526 48.7645 83.9058 48.6107 84.2719 48.428C84.416 48.3744 84.5509 48.2989 84.6719 48.204C84.6519 48.164 84.0799 48.444 83.0999 48.724C82.5268 48.8863 81.9425 49.0067 81.3519 49.084C80.6285 49.1686 79.8995 49.1953 79.1719 49.164C78.4443 49.1171 77.7218 49.0101 77.0119 48.844C76.4337 48.7056 75.8667 48.5237 75.3159 48.3C74.3599 47.888 73.8199 47.552 73.7959 47.6Z" fill="#455A64"/>
<path id="Vector_33" d="M81.836 63.232C82.036 63.444 83.24 62.52 84.96 62.512C86.68 62.504 87.944 63.376 88.128 63.16C88.22 63.064 88.016 62.68 87.464 62.272C86.7241 61.7448 85.8365 61.4648 84.928 61.472C84.0297 61.4757 83.1568 61.7705 82.44 62.312C81.916 62.752 81.736 63.14 81.836 63.232Z" fill="#263238"/>
<path id="Vector_34" d="M84.2639 66.4C84.2795 66.7615 84.4352 67.1027 84.698 67.3513C84.9608 67.6 85.3101 67.7365 85.6719 67.732C85.8494 67.7379 86.0264 67.708 86.1921 67.6442C86.3579 67.5803 86.5091 67.4837 86.6367 67.3601C86.7643 67.2366 86.8658 67.0886 86.9351 66.9251C87.0044 66.7615 87.04 66.5857 87.0399 66.408C87.0264 66.0455 86.8714 65.7027 86.6083 65.453C86.3451 65.2033 85.9946 65.0665 85.6319 65.072C85.4543 65.0672 85.2776 65.098 85.112 65.1625C84.9465 65.2271 84.7956 65.3241 84.6681 65.4478C84.5407 65.5715 84.4392 65.7195 84.3698 65.8831C84.3004 66.0466 84.2644 66.2224 84.2639 66.4Z" fill="#263238"/>
<path id="Vector_35" d="M91.7881 78.18C93.1504 77.824 94.5367 77.5674 95.9361 77.412L96.9601 77.16C97.4241 77.796 97.4201 79.496 96.9921 80.16C96.7562 80.4937 96.4519 80.7734 96.0995 80.9803C95.747 81.1873 95.3545 81.3167 94.9481 81.36C94.6607 81.4128 94.3654 81.4045 94.0815 81.3356C93.7975 81.2666 93.5313 81.1387 93.3001 80.96C93.3001 80.96 92.0321 80.36 91.7881 78.16" fill="#EB996E"/>
<path id="Vector_36" d="M94.344 81.296C94.8842 81.2572 95.407 81.0884 95.868 80.804C96.3448 80.4756 96.7082 80.0075 96.908 79.464C97.159 78.8008 97.2036 78.0771 97.036 77.388L97.008 77.276L97.188 77.392C95.664 77.628 94.288 77.82 93.288 77.944C92.7541 78.0452 92.2112 78.0908 91.668 78.08C92.188 77.907 92.724 77.7864 93.268 77.72C94.256 77.536 95.628 77.32 97.152 77.068L97.296 77.044L97.332 77.184L97.364 77.308C97.549 78.0625 97.4916 78.856 97.2 79.576C96.9656 80.1686 96.5443 80.6686 96 81C95.638 81.2222 95.2245 81.3463 94.8 81.36C94.5 81.364 94.34 81.316 94.344 81.296Z" fill="#263238"/>
<path id="Vector_37" d="M94.7599 81.412C94.6052 81.4263 94.4494 81.4001 94.3079 81.336V81.316V81.284V81.26C94.3079 81.232 94.3679 81.228 94.4719 81.22C94.9608 81.1948 95.4337 81.0372 95.8399 80.764C96.3084 80.441 96.6659 79.9815 96.8639 79.448C97.1074 78.8099 97.1561 78.1138 97.0039 77.448C95.5999 77.664 94.2919 77.848 93.2959 77.976C91.6359 78.184 91.6279 78.132 91.6159 78.068C91.6039 78.004 91.6159 77.956 93.2439 77.668C94.2759 77.476 95.6439 77.244 97.1319 77.016L97.3199 76.984L97.3999 77.292C97.5908 78.0566 97.5333 78.8622 97.2359 79.592C96.9948 80.1978 96.5603 80.7069 95.9999 81.04C95.6387 81.2656 95.2253 81.3938 94.7999 81.412H94.7599ZM94.6239 81.308H94.7999C95.2148 81.2927 95.6186 81.17 95.9719 80.952C96.5033 80.6228 96.9154 80.1322 97.1479 79.552C97.4359 78.8423 97.4919 78.0595 97.3079 77.316L97.2519 77.096H97.1519C95.6759 77.328 94.2959 77.56 93.2679 77.748C92.5359 77.884 92.1439 77.968 91.9399 78.02C92.1519 78.02 92.5479 77.968 93.2879 77.876C94.2799 77.752 95.5839 77.568 96.9839 77.352L96.9319 77.144L97.3319 77.4H97.1999H97.1079C97.2575 78.076 97.206 78.7809 96.9599 79.428C96.7551 79.9797 96.3849 80.4547 95.8999 80.788C95.5257 81.067 95.0865 81.246 94.6239 81.308Z" fill="#263238"/>
<path id="Vector_38" d="M48.696 82.696C48.696 82.696 36.496 87.096 30.52 85.364C24.544 83.632 20.348 81.2 17.356 74.14C14.932 68.412 15.416 61.376 18.316 55.876C20.856 51.076 25.392 48.352 30.164 45.74C36.096 42.496 44.164 39.824 50.896 39.564C57.628 39.304 61.984 41.292 66.976 45.848C71.968 50.404 74.624 57.68 72.864 64.204C71 71.12 64.776 76.032 58.256 79.004C58.256 79.004 56.416 85.404 61.592 88.964C61.6 88.956 53.156 91.048 48.696 82.696Z" fill="#FAFAFA"/>
<path id="Vector_39" d="M48.696 82.696L48.836 82.912L49.236 83.572L49.54 84.064C49.66 84.24 49.812 84.416 49.968 84.612L50.472 85.252C50.656 85.476 50.872 85.68 51.12 85.916C52.2707 87.059 53.6657 87.9261 55.2 88.452C56.158 88.7943 57.1576 89.0068 58.172 89.084C59.3149 89.1858 60.4666 89.1239 61.592 88.9V89.004C60.1076 88.0045 58.9875 86.5504 58.4 84.86C58.0856 83.9422 57.913 82.9818 57.888 82.012C57.8513 80.9894 57.9549 79.9665 58.196 78.972V78.94H58.228C60.1481 78.0653 61.9907 77.0296 63.736 75.844C65.6324 74.5701 67.3561 73.0562 68.864 71.34C69.068 71.124 69.244 70.888 69.432 70.652C69.62 70.416 69.808 70.192 69.98 69.944C70.316 69.448 70.676 68.96 70.968 68.424C71.2844 67.8969 71.5728 67.3535 71.832 66.796C71.968 66.516 72.068 66.224 72.188 65.936L72.364 65.504C72.42 65.356 72.46 65.204 72.508 65.056C72.915 63.8473 73.1676 62.592 73.26 61.32C73.3661 60.0143 73.3124 58.7006 73.1 57.408C72.6744 54.7181 71.6907 52.147 70.212 49.86C69.4493 48.6843 68.5687 47.5893 67.584 46.592C66.567 45.5866 65.4832 44.6511 64.34 43.792C62.0288 41.9691 59.3303 40.7006 56.452 40.084C53.4709 39.5511 50.4209 39.5281 47.432 40.016C44.4158 40.4684 41.4483 41.2009 38.568 42.204C35.7632 43.1582 33.0409 44.3395 30.428 45.736C27.868 47.128 25.368 48.536 23.192 50.308C21.0256 51.989 19.2751 54.146 18.076 56.612C17.5077 57.8012 17.0446 59.038 16.692 60.308C16.3617 61.5423 16.1303 62.8009 16 64.072C15.8776 65.3124 15.8628 66.5611 15.956 67.804C15.988 68.416 16.08 69.004 16.16 69.616C16.24 70.228 16.368 70.816 16.528 71.372C17.776 75.928 20.224 79.94 23.58 82.224C25.1776 83.2973 26.917 84.1428 28.748 84.736C29.176 84.884 29.604 85.024 30.028 85.136C30.4421 85.2685 30.8643 85.3741 31.292 85.452C31.7044 85.5417 32.1229 85.6005 32.544 85.628C32.9426 85.6696 33.3433 85.6883 33.744 85.684C35.2381 85.6842 36.7297 85.5625 38.204 85.32C39.568 85.12 40.8 84.852 41.904 84.604C44.112 84.088 45.8 83.588 46.94 83.236L48.676 82.684C48.676 82.684 48.532 82.744 48.24 82.844C47.948 82.944 47.52 83.096 46.952 83.276C45.816 83.64 44.128 84.156 41.924 84.684C40.816 84.936 39.584 85.212 38.22 85.416C36.7417 85.6732 35.2445 85.807 33.744 85.816C33.3327 85.8224 32.9213 85.805 32.512 85.764C32.0868 85.7399 31.6642 85.6824 31.248 85.592C30.8169 85.5117 30.3908 85.4062 29.972 85.276C29.544 85.152 29.116 85.012 28.684 84.876C26.8415 84.2847 25.0911 83.4377 23.484 82.36C22.629 81.7632 21.8357 81.0825 21.116 80.328C20.3752 79.5295 19.706 78.6676 19.116 77.752C18.5132 76.7906 17.9786 75.7882 17.516 74.752C17.264 74.232 17.068 73.684 16.852 73.152C16.636 72.62 16.476 72.032 16.344 71.448C16.212 70.864 16.084 70.272 15.968 69.676C15.852 69.08 15.796 68.476 15.764 67.848C15.6675 66.5946 15.6809 65.3351 15.804 64.084C15.9284 62.7966 16.1585 61.5216 16.492 60.272C16.8436 58.9889 17.3095 57.7399 17.884 56.54C19.0942 54.0472 20.861 51.8657 23.048 50.164C25.24 48.388 27.748 46.964 30.312 45.568C32.9383 44.1578 35.6754 42.9645 38.496 42C41.389 40.9918 44.37 40.2566 47.4 39.804C50.4114 39.3122 53.4843 39.3352 56.488 39.872C59.395 40.4864 62.1215 41.762 64.456 43.6C65.6093 44.4647 66.7012 45.4083 67.724 46.424C68.7159 47.4342 69.6043 48.541 70.376 49.728C71.867 52.0403 72.8589 54.6384 73.288 57.356C73.4971 58.6638 73.5495 59.9918 73.444 61.312C73.348 62.5976 73.0914 63.8662 72.68 65.088C72.632 65.24 72.588 65.392 72.532 65.54L72.356 65.98C72.232 66.268 72.128 66.568 71.992 66.848C71.7301 67.4108 71.439 67.9595 71.12 68.492C70.82 69.032 70.46 69.524 70.116 70.024C69.944 70.272 69.744 70.5 69.564 70.736C69.384 70.972 69.196 71.212 68.992 71.428C67.4718 73.1527 65.7347 74.6734 63.824 75.952C62.0704 77.1401 60.2183 78.1759 58.288 79.048L58.328 79.004C58.083 79.9831 57.9727 80.9911 58 82C58.0221 82.9531 58.1893 83.8973 58.496 84.8C59.0666 86.463 60.1579 87.8979 61.608 88.892L61.72 88.968L61.588 88.996C60.4489 89.2191 59.2838 89.2784 58.128 89.172C57.1059 89.0904 56.0994 88.871 55.136 88.52C53.6022 87.9809 52.2111 87.1 51.068 85.944C50.84 85.704 50.604 85.5 50.42 85.272C50.236 85.044 50.076 84.828 49.92 84.628C49.764 84.428 49.616 84.228 49.52 84.072L49.228 83.58L48.828 82.912L48.696 82.696Z" fill="#263238"/>
<path id="Vector_40" d="M55.5681 49.6C55.5921 49.652 49.0161 52.928 40.8761 56.916C32.7361 60.904 26.1121 64.116 26.0761 64.048C26.0401 63.98 32.6401 60.712 40.8001 56.72C48.9601 52.728 55.5441 49.54 55.5681 49.6Z" fill="#263238"/>
<path id="Vector_41" d="M58.3121 55.344C58.3361 55.396 51.7561 58.672 43.6161 62.66C35.4761 66.648 28.8561 69.86 28.8161 69.792C28.7761 69.724 35.3681 66.464 43.5121 62.476C51.6561 58.488 58.2841 55.292 58.3121 55.344Z" fill="#263238"/>
<path id="Vector_42" d="M60.7999 60.896C60.7148 60.9583 60.6237 61.0119 60.5279 61.056L59.7279 61.456L56.7999 62.98C54.3119 64.256 50.8839 66.04 47.0999 68.016C43.3159 69.992 39.8759 71.756 37.3679 72.996C36.1119 73.616 35.0959 74.112 34.3879 74.448L33.5879 74.828C33.4946 74.8771 33.3968 74.9173 33.2959 74.948C33.3826 74.8894 33.4735 74.8372 33.5679 74.792L34.3679 74.392L37.3159 72.88C39.8079 71.608 43.2359 69.824 47.0199 67.848C50.8039 65.872 54.2439 64.108 56.7519 62.864C58.0039 62.244 59.0199 61.748 59.7279 61.416L60.5479 61.016C60.6291 60.9704 60.7133 60.9303 60.7999 60.896Z" fill="#263238"/>
<path id="Vector_43" d="M59.1999 105.424L60.9479 143.024L64.0199 146.332L67.9359 151.08C67.9359 151.08 64.0199 166.872 58.2919 168.28C52.5639 169.688 46.3599 167.564 44.5399 162.532C42.7199 157.5 43.6519 148.7 44.2119 143.06C44.7719 137.42 47.4119 106.608 47.4119 106.608L54.0919 103.864L59.1999 105.424Z" fill="#FFBE9D"/>
<path id="Vector_44" d="M59.1479 105.836C59.1479 105.836 59.5999 102.544 59.1479 100.388C58.6959 98.232 55.7439 93.692 55.7439 93.692C55.7439 93.692 56.1959 89.38 55.7439 88.7C55.2919 88.02 54.2679 85.52 52.3399 88.02C52.3399 88.02 50.9759 85.068 50.0679 84.82C49.6272 84.6689 49.1486 84.6689 48.7079 84.82L51.1079 81.644C51.1854 81.2141 51.1854 80.7739 51.1079 80.344C51.0459 80.0377 50.8798 79.7623 50.6377 79.5646C50.3955 79.367 50.0924 79.2594 49.7799 79.26C49.5846 79.2598 49.3916 79.3019 49.2142 79.3833C49.0367 79.4648 48.879 79.5838 48.7519 79.732L42.9279 86.532C42.9279 86.532 39.2959 93.112 39.4119 93.908C39.5279 94.704 41.5679 97.312 41.5679 97.312C41.5679 97.312 46.7679 104.46 47.2399 105.824C47.514 106.781 47.5915 107.784 47.4679 108.772L59.1479 105.836Z" fill="#FFBE9D"/>
<path id="Vector_45" d="M44.5959 92.436C44.6241 91.9989 44.691 91.5652 44.7959 91.14C44.9923 90.0985 45.3063 89.0826 45.7319 88.112C46.1688 87.1351 46.826 86.2725 47.6519 85.592C47.8991 85.3904 48.1673 85.216 48.4519 85.072C48.5534 85.0093 48.6662 84.9671 48.7839 84.948C48.4196 85.1804 48.0684 85.4328 47.7319 85.704C46.9565 86.3997 46.3352 87.2499 45.9079 88.2C45.4893 89.1583 45.1599 90.1532 44.9239 91.172C44.8421 91.6 44.7325 92.0222 44.5959 92.436Z" fill="#EB996E"/>
<path id="Vector_46" d="M49.7319 92.656C49.7331 92.3983 49.7778 92.1428 49.8639 91.9C50.2032 90.7087 50.7938 89.6039 51.5959 88.66C51.9079 88.304 52.1319 88.112 52.1519 88.132C51.6455 88.8252 51.1742 89.5434 50.7399 90.284C50.0639 91.536 49.7959 92.672 49.7319 92.656Z" fill="#EB996E"/>
<path id="Vector_47" d="M55.5721 93.5C55.561 93.5071 55.5485 93.5117 55.5354 93.5137C55.5224 93.5157 55.509 93.515 55.4963 93.5117C55.4835 93.5083 55.4716 93.5023 55.4612 93.4941C55.4509 93.4859 55.4423 93.4757 55.4361 93.464C55.4308 93.4525 55.4278 93.44 55.4273 93.4273C55.4268 93.4146 55.4289 93.4019 55.4334 93.39C55.4378 93.3781 55.4446 93.3672 55.4533 93.3579C55.462 93.3486 55.4725 93.3412 55.4841 93.336C55.5065 93.3225 55.5332 93.3183 55.5586 93.3243C55.5841 93.3303 55.6061 93.346 55.6201 93.368C55.6301 93.392 55.6307 93.4189 55.6218 93.4433C55.6129 93.4678 55.5952 93.488 55.5721 93.5Z" fill="#EB996E"/>
<path id="Vector_48" d="M55.508 95.332C55.4671 94.8227 55.494 94.3102 55.588 93.808C55.636 93.408 55.688 93.072 55.736 92.812L55.876 92.868C55.668 93.116 55.528 93.268 55.504 93.24C55.48 93.212 55.576 93.044 55.752 92.776L55.908 92.532V92.832C55.908 93.096 55.86 93.448 55.812 93.832C55.7798 94.3435 55.6775 94.8483 55.508 95.332Z" fill="#EB996E"/>
<path id="Vector_49" d="M59.72 117.772C59.7233 117.804 59.7233 117.836 59.72 117.868L59.748 118.144C59.776 118.408 59.808 118.768 59.852 119.224C59.924 120.16 60.012 121.52 60.104 123.196C60.292 126.552 60.504 131.196 60.684 136.316C60.864 141.436 61.02 146.08 61.116 149.44C61.156 151.108 61.188 152.46 61.212 153.42C61.212 153.876 61.212 154.22 61.212 154.5C61.212 154.616 61.212 154.708 61.212 154.784C61.2138 154.816 61.2138 154.848 61.212 154.88C61.2053 154.848 61.2053 154.816 61.212 154.784C61.212 154.708 61.212 154.616 61.192 154.504C61.192 154.24 61.16 153.876 61.14 153.42C61.1 152.464 61.044 151.112 60.976 149.444C60.848 146.072 60.676 141.444 60.484 136.324C60.292 131.204 60.084 126.576 59.968 123.204C59.888 121.54 59.824 120.188 59.78 119.228L59.716 118.148C59.716 118.036 59.716 117.944 59.716 117.868C59.7129 117.836 59.7142 117.804 59.72 117.772Z" fill="#EB996E"/>
<path id="Vector_50" d="M170.184 115.784C170.184 115.784 161.224 150.184 159.724 154.184C156.76 162.06 154.736 165.804 151.384 167.784C147.716 169.932 141.156 168.712 139.608 165.204C138.192 162.004 134.432 148.632 134.432 148.632L145.94 144.48L159.66 115.724L170.184 115.784Z" fill="#FFBE9D"/>
<path id="Vector_51" d="M190.664 99.62C191.228 100.02 179.14 110.608 179.14 110.608L170.184 115.784L167.232 126.776L157.872 120.996C157.872 120.996 161.26 110.036 162.836 109.28C165.58 107.964 166.108 103.552 167.092 103.716C168.076 103.88 168.504 103.86 168.176 105.496C167.848 107.132 167.716 107.86 167.716 107.86L178.06 104.86C178.06 104.86 183.792 99.296 185.592 99.62C186.632 99.812 186.752 99.948 186.752 99.948C186.752 99.948 188.492 98.048 190.664 99.62Z" fill="#FFBE9D"/>
<path id="Vector_52" d="M178.06 104.86C177.904 104.939 177.741 105.002 177.572 105.048L176.224 105.488L171.756 106.884L167.288 108.268L165.932 108.692C165.77 108.756 165.601 108.802 165.428 108.828C165.581 108.742 165.742 108.671 165.908 108.616C166.22 108.492 166.672 108.324 167.24 108.128C168.372 107.728 169.948 107.228 171.696 106.684C173.444 106.14 175.028 105.676 176.184 105.348C176.76 105.184 177.224 105.056 177.552 104.972C177.717 104.919 177.888 104.881 178.06 104.86Z" fill="#EB996E"/>
<path id="Vector_53" d="M179.82 107.76C179.894 107.639 179.982 107.527 180.084 107.428C180.264 107.224 180.528 106.932 180.856 106.576C181.516 105.864 182.436 104.888 183.46 103.82L186.096 101.104C186.36 100.839 186.54 100.502 186.616 100.136C186.622 100.002 186.615 99.8684 186.596 99.736C186.596 99.736 186.62 99.764 186.648 99.832C186.686 99.9343 186.702 100.043 186.696 100.152C186.65 100.547 186.479 100.917 186.208 101.208C185.56 101.944 184.636 102.9 183.612 103.976C182.588 105.052 181.648 106 180.964 106.688C180.62 107.028 180.34 107.304 180.144 107.488C180.048 107.592 179.939 107.683 179.82 107.76Z" fill="#EB996E"/>
<path id="Vector_54" d="M148.236 139.644C148.288 139.668 146.784 143.204 144.88 147.544C142.976 151.884 141.384 155.388 141.332 155.364C141.28 155.34 142.78 151.804 144.688 147.46C146.596 143.116 148.184 139.62 148.236 139.644Z" fill="#EB996E"/>
</g>
<g id="freepik--Table--inject-26">
<path id="Vector_55" d="M188.044 184.112C188.044 184.168 148.62 184.216 100.004 184.216C51.3881 184.216 11.9561 184.168 11.9561 184.112C11.9561 184.056 51.3721 184 100 184C148.628 184 188.044 184.052 188.044 184.112Z" fill="#263238"/>
</g>
<g id="freepik--Icons--inject-26">
<path id="Vector_56" d="M157.061 79.2923L156.916 95.2756L162.864 95.3296L163.009 79.3463L157.061 79.2923Z" fill="#2B29A4"/>
<g id="Group_3" opacity="0.3">
<path id="Vector_57" d="M157.061 79.2922L156.916 95.2756L162.864 95.3296L163.009 79.3462L157.061 79.2922Z" fill="black"/>
</g>
<path id="Vector_58" d="M155.45 79.272L155.305 95.2554L161.253 95.3094L161.398 79.326L155.45 79.272Z" fill="#2B29A4"/>
<path id="Vector_59" d="M159.568 83.2C159.566 83.4658 159.485 83.7249 159.335 83.9446C159.185 84.1643 158.974 84.3347 158.727 84.4342C158.481 84.5337 158.21 84.5579 157.95 84.5037C157.69 84.4495 157.452 84.3194 157.265 84.1298C157.079 83.9401 156.953 83.6995 156.904 83.4384C156.854 83.1772 156.883 82.9072 156.987 82.6626C157.091 82.4179 157.265 82.2095 157.487 82.0638C157.71 81.9181 157.97 81.8416 158.236 81.844C158.413 81.845 158.587 81.881 158.75 81.9498C158.913 82.0186 159.06 82.1189 159.184 82.2449C159.308 82.371 159.406 82.5202 159.471 82.6841C159.537 82.848 159.57 83.0233 159.568 83.2Z" fill="white"/>
<path id="Vector_60" d="M162.964 81.744C162.776 82.1753 162.529 82.579 162.232 82.944C161.987 83.3456 161.687 83.7105 161.34 84.028C161.529 83.5967 161.775 83.193 162.072 82.828C162.316 82.4262 162.617 82.0612 162.964 81.744Z" fill="#2B29A4"/>
<path id="Vector_61" d="M162.948 83.512C162.517 84.3483 161.97 85.1199 161.324 85.804C161.512 85.3721 161.758 84.9683 162.056 84.604C162.3 84.1993 162.6 83.8316 162.948 83.512Z" fill="#2B29A4"/>
<path id="Vector_62" d="M162.932 85.28C162.501 86.1164 161.954 86.8879 161.308 87.572C161.496 87.1401 161.742 86.7363 162.04 86.372C162.284 85.9673 162.584 85.5996 162.932 85.28Z" fill="#2B29A4"/>
<path id="Vector_63" d="M162.916 87.048C162.485 87.8844 161.938 88.6559 161.292 89.34C161.48 88.9081 161.726 88.5043 162.024 88.14C162.268 87.7353 162.568 87.3676 162.916 87.048Z" fill="#2B29A4"/>
<path id="Vector_64" d="M162.9 88.8C162.469 89.6364 161.922 90.4079 161.276 91.092C161.464 90.6601 161.71 90.2563 162.008 89.892C162.252 89.4873 162.552 89.1196 162.9 88.8Z" fill="#2B29A4"/>
<path id="Vector_65" d="M162.884 90.584C162.453 91.4204 161.906 92.1919 161.26 92.876C161.447 92.4441 161.694 92.0403 161.992 91.676C162.236 91.2713 162.536 90.9036 162.884 90.584Z" fill="#2B29A4"/>
<path id="Vector_66" d="M162.868 92.352C162.437 93.1884 161.89 93.9599 161.244 94.644C161.432 94.2121 161.678 93.8083 161.976 93.444C162.22 93.0393 162.52 92.6716 162.868 92.352Z" fill="#2B29A4"/>
<path id="Vector_67" d="M162.96 80.184C162.773 80.6153 162.528 81.019 162.232 81.384C161.987 81.7862 161.686 82.1524 161.34 82.472C161.523 82.0387 161.768 81.6345 162.068 81.272C162.314 80.8697 162.614 80.5035 162.96 80.184Z" fill="#2B29A4"/>
<path id="Vector_68" d="M162.36 79.332C162.408 79.364 162.228 79.696 161.96 80.068C161.692 80.44 161.444 80.72 161.396 80.688C161.348 80.656 161.532 80.328 161.796 79.956C162.06 79.584 162.316 79.304 162.36 79.332Z" fill="#2B29A4"/>
<path id="Vector_69" d="M165.864 94.096L166.316 79.976C166.316 79.976 169.464 79.392 172.316 75.144C174.196 72.344 173.54 69.328 173.916 68.092C174.14 67.332 175.916 67.504 176.716 67.6C177.516 67.696 178.684 68.12 179.188 69.3C180.124 71.488 178.74 76.688 178.74 76.688C178.74 76.688 178.148 77.744 179.632 77.76L184.936 77.808C185.625 77.8048 186.292 78.0489 186.816 78.496C187.088 78.7231 187.3 79.014 187.432 79.3426C187.565 79.6713 187.614 80.0276 187.576 80.38C187.396 82.38 186.328 83.288 186.324 83.712C186.32 84.136 186.896 84.888 186.46 86.112C186.024 87.336 185.76 87.22 185.756 87.804C185.747 88.8139 185.577 89.8158 185.252 90.772C185.067 91.2564 184.796 91.7036 184.452 92.092C184.452 92.092 184.656 94.04 184.052 95.116C183.252 96.528 179.748 97.44 178.312 96.764C177.636 96.448 174.488 95.668 173.004 95.284C171.52 94.9 167.304 93.416 165.864 94.096Z" fill="#2B29A4"/>
<g id="Group_4" opacity="0.3">
<path id="Vector_70" d="M165.864 94.096L166.316 79.976C166.316 79.976 169.464 79.392 172.316 75.144C174.196 72.344 173.54 69.328 173.916 68.092C174.14 67.332 175.916 67.504 176.716 67.6C177.516 67.696 178.684 68.12 179.188 69.3C180.124 71.488 178.74 76.688 178.74 76.688C178.74 76.688 178.148 77.744 179.632 77.76L184.936 77.808C185.625 77.8048 186.292 78.0489 186.816 78.496C187.088 78.7231 187.3 79.014 187.432 79.3426C187.565 79.6713 187.614 80.0276 187.576 80.38C187.396 82.38 186.328 83.288 186.324 83.712C186.32 84.136 186.896 84.888 186.46 86.112C186.024 87.336 185.76 87.22 185.756 87.804C185.747 88.8139 185.577 89.8158 185.252 90.772C185.067 91.2564 184.796 91.7036 184.452 92.092C184.452 92.092 184.656 94.04 184.052 95.116C183.252 96.528 179.748 97.44 178.312 96.764C177.636 96.448 174.488 95.668 173.004 95.284C171.52 94.9 167.304 93.416 165.864 94.096Z" fill="black"/>
</g>
<path id="Vector_71" d="M163.964 94.236L164.092 79.956C164.092 79.956 167.244 79.372 170.092 75.124C171.436 73.1817 172.483 71.0504 173.2 68.8C173.302 68.4293 173.534 68.1077 173.853 67.8939C174.173 67.6802 174.559 67.5886 174.94 67.636C175.409 67.6677 175.86 67.8325 176.239 68.1108C176.618 68.3892 176.91 68.7698 177.08 69.208C178.016 71.396 176.508 76.672 176.508 76.672C176.508 76.672 175.912 77.728 177.4 77.744L182.704 77.792C183.393 77.7891 184.06 78.0332 184.584 78.48C184.856 78.7073 185.067 78.9983 185.199 79.327C185.331 79.6557 185.379 80.012 185.34 80.364C185.164 82.364 184.096 83.272 184.092 83.696C184.088 84.12 184.664 84.872 184.228 86.096C183.792 87.32 183.528 87.204 183.524 87.788C183.512 88.7979 183.341 89.7995 183.016 90.756C182.833 91.2413 182.562 91.6888 182.216 92.076C182.216 92.076 182.36 93.992 181.816 95.1C181.272 96.208 179.04 96.776 178.296 96.768C177.552 96.76 172.252 95.652 170.768 95.268C169.284 94.884 165.404 93.56 163.964 94.236Z" fill="#2B29A4"/>
<path id="Vector_72" d="M179.236 73.84C178.506 74.8421 177.615 75.7165 176.6 76.428C176.994 75.9539 177.424 75.51 177.884 75.1C178.302 74.6462 178.754 74.225 179.236 73.84Z" fill="#2B29A4"/>
<path id="Vector_73" d="M179.54 71.936C179.234 72.414 178.843 72.8327 178.388 73.172C177.977 73.5548 177.525 73.8914 177.04 74.176C177.391 73.7424 177.794 73.3541 178.24 73.02C178.652 72.634 179.086 72.272 179.54 71.936Z" fill="#2B29A4"/>
<path id="Vector_74" d="M179.408 70.212C179.179 70.6181 178.852 70.9605 178.456 71.208C178.099 71.4946 177.718 71.7489 177.316 71.968C177.594 71.5975 177.942 71.285 178.34 71.048C178.944 70.612 179.364 70.168 179.408 70.212Z" fill="#2B29A4"/>
<path id="Vector_75" d="M178.84 68.768C178.872 68.812 178.556 69.132 178.132 69.492C177.895 69.7346 177.612 69.9276 177.3 70.06C177.264 70.02 177.58 69.696 178.004 69.34C178.243 69.0974 178.527 68.9032 178.84 68.768Z" fill="#2B29A4"/>
<path id="Vector_76" d="M177.768 67.912C177.796 67.96 177.6 68.14 177.328 68.312C177.056 68.484 176.808 68.596 176.776 68.552C176.744 68.508 176.944 68.324 177.22 68.152C177.496 67.98 177.74 67.864 177.768 67.912Z" fill="#2B29A4"/>
<path id="Vector_77" d="M178.8 76.356C178.836 76.396 178.5 76.756 178.052 77.116C177.798 77.3707 177.5 77.5767 177.172 77.724C177.136 77.684 177.472 77.324 177.924 76.964C178.174 76.707 178.472 76.5006 178.8 76.356Z" fill="#2B29A4"/>
<path id="Vector_78" d="M187.384 81.412C186.372 82.2532 185.277 82.989 184.116 83.608C184.603 83.1576 185.132 82.7557 185.696 82.408C186.225 82.0219 186.79 81.6883 187.384 81.412Z" fill="#2B29A4"/>
<path id="Vector_79" d="M187.324 78.992C187.061 79.2874 186.75 79.5362 186.404 79.728C186.096 79.9759 185.749 80.1706 185.376 80.304C185.641 80.0091 185.951 79.7592 186.296 79.564C186.604 79.3164 186.952 79.123 187.324 78.992Z" fill="#2B29A4"/>
<path id="Vector_80" d="M186.544 84.872C186.17 85.1861 185.768 85.4659 185.344 85.708C184.961 86.0036 184.551 86.2634 184.12 86.484C184.792 85.7803 185.612 85.2339 186.52 84.884L186.544 84.872Z" fill="#2B29A4"/>
<path id="Vector_81" d="M185.744 87.6C185.422 87.96 185.052 88.2736 184.644 88.532C184.274 88.8447 183.864 89.1058 183.424 89.308C183.746 88.948 184.116 88.6344 184.524 88.376C184.894 88.0642 185.305 87.8032 185.744 87.6Z" fill="#2B29A4"/>
<path id="Vector_82" d="M185.096 90.864C184.733 91.2966 184.304 91.6692 183.824 91.968C183.381 92.3185 182.886 92.5979 182.356 92.796C182.782 92.4334 183.234 92.1031 183.708 91.808C184.147 91.46 184.611 91.1444 185.096 90.864Z" fill="#2B29A4"/>
<path id="Vector_83" d="M184.4 93.6C183.469 94.5255 182.387 95.2857 181.2 95.848C181.711 95.4355 182.246 95.0522 182.8 94.7C183.309 94.2992 183.844 93.9317 184.4 93.6Z" fill="#2B29A4"/>
<path id="Vector_84" d="M180.185 43.7754L178.138 54.0455L181.959 54.8069L184.005 44.5368L180.185 43.7754Z" fill="#263238"/>
<path id="Vector_85" d="M181.218 43.9799L179.172 54.25L182.993 55.0114L185.039 44.7413L181.218 43.9799Z" fill="#455A64"/>
<path id="Vector_86" d="M180.8 52C180.834 51.829 180.917 51.6718 181.041 51.5483C181.164 51.4249 181.321 51.3408 181.491 51.3067C181.662 51.2726 181.84 51.29 182.001 51.3567C182.162 51.4235 182.299 51.5365 182.396 51.6815C182.493 51.8266 182.544 51.997 182.544 52.1713C182.543 52.3456 182.491 52.5159 182.394 52.6606C182.297 52.8052 182.159 52.9178 181.998 52.9839C181.836 53.05 181.659 53.0668 181.488 53.032C181.261 52.9857 181.06 52.8511 180.931 52.6578C180.803 52.4645 180.755 52.228 180.8 52Z" fill="white"/>
<path id="Vector_87" d="M178.444 52.496C178.619 52.2407 178.827 52.0106 179.064 51.812C179.271 51.5839 179.508 51.3847 179.768 51.22C179.599 51.4778 179.391 51.7085 179.152 51.904C178.947 52.1351 178.708 52.3346 178.444 52.496Z" fill="#455A64"/>
<path id="Vector_88" d="M178.672 51.36C178.846 51.1054 179.053 50.8753 179.288 50.676C179.497 50.4483 179.735 50.2492 179.996 50.084C179.617 50.5696 179.171 50.9992 178.672 51.36Z" fill="#455A64"/>
<path id="Vector_89" d="M178.9 50.224C179.071 49.967 179.278 49.7366 179.516 49.54C179.723 49.3102 179.961 49.1109 180.224 48.948C180.05 49.2032 179.841 49.4334 179.604 49.632C179.397 49.8601 179.16 50.0592 178.9 50.224Z" fill="#455A64"/>
<path id="Vector_90" d="M179.124 49.088C179.298 48.8334 179.505 48.6033 179.74 48.404C179.949 48.1763 180.187 47.9772 180.448 47.812C180.274 48.0666 180.067 48.2967 179.832 48.496C179.624 48.7248 179.386 48.9239 179.124 49.088Z" fill="#455A64"/>
<path id="Vector_91" d="M179.352 47.952C179.526 47.6973 179.733 47.4673 179.968 47.268C180.175 47.0378 180.413 46.8385 180.676 46.676C180.502 46.9306 180.295 47.1607 180.06 47.36C179.851 47.5877 179.613 47.7867 179.352 47.952Z" fill="#455A64"/>
<path id="Vector_92" d="M179.576 46.8C179.958 46.3167 180.403 45.8874 180.9 45.524C180.729 45.7809 180.522 46.0114 180.284 46.208C180.077 46.4378 179.839 46.6371 179.576 46.8Z" fill="#455A64"/>
<path id="Vector_93" d="M179.804 45.68C180.183 45.1944 180.629 44.7648 181.128 44.404C180.955 44.6586 180.747 44.8887 180.512 45.088C180.303 45.3157 180.065 45.5148 179.804 45.68Z" fill="#455A64"/>
<path id="Vector_94" d="M178.256 53.5C178.43 53.2454 178.637 53.0153 178.872 52.816C179.081 52.5883 179.319 52.3892 179.58 52.224C179.201 52.7096 178.755 53.1392 178.256 53.5Z" fill="#455A64"/>
<path id="Vector_95" d="M178.536 54.12C178.512 54.096 178.668 53.904 178.884 53.696C179.1 53.488 179.284 53.34 179.32 53.364C179.356 53.388 179.192 53.58 178.976 53.792C178.76 54.004 178.564 54.148 178.536 54.12Z" fill="#455A64"/>
<path id="Vector_96" d="M178.088 44.192L176.088 53.224C176.088 53.224 173.988 53.224 171.64 55.604C170.088 57.204 170.144 59.204 169.756 59.948C169.516 60.408 168.388 60.08 167.896 59.92C167.565 59.8265 167.264 59.6493 167.022 59.4055C166.779 59.1616 166.604 58.8594 166.512 58.528C166.176 57.004 167.712 53.824 167.712 53.824C167.712 53.824 168.224 53.216 167.268 53.024L163.86 52.344C163.416 52.2616 163.017 52.0215 162.736 51.668C162.588 51.4892 162.487 51.2765 162.441 51.0488C162.396 50.8212 162.408 50.5859 162.476 50.364C162.836 49.088 163.636 48.644 163.676 48.364C163.716 48.084 163.452 47.54 163.88 46.808C164.308 46.076 164.468 46.18 164.54 45.804C164.671 45.1558 164.904 44.5323 165.228 43.956C165.409 43.6666 165.641 43.412 165.912 43.204C165.912 43.204 166.016 41.928 166.536 41.308C167.22 40.508 169.592 40.34 170.432 40.948C170.832 41.236 172.76 42.12 173.668 42.548C174.576 42.976 177.076 44.452 178.088 44.192Z" fill="#263238"/>
<path id="Vector_97" d="M179.328 44.332L177.5 53.508C177.5 53.508 175.4 53.508 173.052 55.888C171.949 56.9812 171.015 58.2322 170.28 59.6C170.167 59.8241 169.979 60.0011 169.749 60.1C169.518 60.1988 169.26 60.2129 169.02 60.14C168.719 60.0647 168.445 59.9044 168.233 59.6782C168.02 59.4519 167.877 59.1693 167.82 58.864C167.484 57.34 169.1 54.128 169.1 54.128C169.1 54.128 169.608 53.52 168.656 53.328L165.248 52.648C164.803 52.5648 164.403 52.3249 164.12 51.972C163.972 51.793 163.872 51.5801 163.827 51.3524C163.782 51.1247 163.795 50.8895 163.864 50.668C164.224 49.392 165.02 48.948 165.064 48.668C165.108 48.388 164.836 47.844 165.268 47.112C165.7 46.38 165.852 46.484 165.928 46.108C166.058 45.4595 166.291 44.8358 166.616 44.26C166.797 43.9714 167.027 43.7169 167.296 43.508C167.371 42.8391 167.585 42.1933 167.924 41.612C168.408 40.964 169.924 40.872 170.392 40.968C170.86 41.064 174.148 42.428 175.056 42.856C175.964 43.284 178.316 44.592 179.328 44.332Z" fill="#455A64"/>
<path id="Vector_98" d="M167.004 55.6C167.288 55.3095 167.608 55.0567 167.956 54.848C168.281 54.6048 168.638 54.4069 169.016 54.26C168.705 54.517 168.375 54.7497 168.028 54.956C167.705 55.1985 167.363 55.4139 167.004 55.6Z" fill="#455A64"/>
<path id="Vector_99" d="M166.576 56.8C166.831 56.5284 167.133 56.306 167.468 56.144C167.781 55.9479 168.113 55.7857 168.46 55.66C168.179 55.9002 167.867 56.1019 167.532 56.26C167.223 56.4559 166.904 56.6361 166.576 56.8Z" fill="#455A64"/>
<path id="Vector_100" d="M166.448 57.908C166.65 57.6785 166.902 57.4991 167.184 57.384C167.449 57.2426 167.726 57.1261 168.012 57.036C167.787 57.2386 167.525 57.3961 167.24 57.5C166.8 57.708 166.472 57.94 166.448 57.908Z" fill="#455A64"/>
<path id="Vector_101" d="M166.64 58.908C166.976 58.6195 167.367 58.4007 167.788 58.264C167.453 58.5546 167.063 58.7737 166.64 58.908Z" fill="#455A64"/>
<path id="Vector_102" d="M167.224 59.6C167.224 59.564 167.36 59.472 167.56 59.392C167.76 59.312 167.928 59.272 167.96 59.304C167.992 59.336 167.828 59.432 167.628 59.512C167.428 59.592 167.236 59.624 167.224 59.6Z" fill="#455A64"/>
<path id="Vector_103" d="M167.6 54.028C167.766 53.8607 167.961 53.7252 168.176 53.628C168.37 53.4943 168.587 53.398 168.816 53.344C168.649 53.5098 168.454 53.6452 168.24 53.744C168.046 53.8777 167.829 53.974 167.6 54.028Z" fill="#455A64"/>
<path id="Vector_104" d="M162.684 49.724C163.051 49.4967 163.44 49.3064 163.844 49.156C164.228 48.9666 164.63 48.8178 165.044 48.712C164.289 49.1264 163.494 49.4654 162.672 49.724H162.684Z" fill="#455A64"/>
<path id="Vector_105" d="M162.428 51.292C162.632 51.1324 162.862 51.0092 163.108 50.928C163.337 50.8077 163.585 50.7253 163.84 50.684C163.636 50.843 163.406 50.9661 163.16 51.048C162.932 51.1696 162.684 51.2521 162.428 51.292Z" fill="#455A64"/>
<path id="Vector_106" d="M163.648 47.6C163.925 47.4408 164.215 47.3069 164.516 47.2C164.799 47.0556 165.095 46.9378 165.4 46.848C165.153 47.054 164.872 47.2139 164.568 47.32C164.282 47.4697 163.97 47.5646 163.648 47.6Z" fill="#455A64"/>
<path id="Vector_107" d="M164.5 45.932C165.026 45.5864 165.598 45.317 166.2 45.132C165.948 45.3242 165.67 45.4817 165.376 45.6C165.1 45.7496 164.806 45.8612 164.5 45.932Z" fill="#455A64"/>
<path id="Vector_108" d="M165.312 43.92C165.599 43.6852 165.922 43.4976 166.268 43.364C166.596 43.1938 166.948 43.075 167.312 43.012C166.656 43.3384 165.989 43.6413 165.312 43.92Z" fill="#455A64"/>
<path id="Vector_109" d="M166.1 42.248C166.444 41.9866 166.822 41.7739 167.224 41.616C167.602 41.4169 168.006 41.2728 168.424 41.188C168.047 41.3912 167.66 41.5741 167.264 41.736C166.886 41.9285 166.497 42.0994 166.1 42.248Z" fill="#455A64"/>
</g>
</g>
</svg>
