<svg width="200" height="200" viewBox="0 0 200 200" fill="none" xmlns="http://www.w3.org/2000/svg">
<g id="Savings-pana 1">
<g id="freepik--Desk--inject-66">
<path id="Vector" d="M188.88 180.176C188.88 180.236 149.084 180.28 100.004 180.28C50.924 180.28 11.12 180.236 11.12 180.176C11.12 180.116 50.908 180.072 100.004 180.072C149.1 180.072 188.88 180.12 188.88 180.176Z" fill="#263238"/>
</g>
<g id="freepik--Plants--inject-66">
<path id="Vector_2" d="M34.904 167.896C35.356 166.148 34.208 164.388 32.904 163.12C31.6 161.852 30.08 160.72 29.412 159.036C28.328 156.316 29.784 152.796 27.936 150.528C26.848 149.192 24.896 148.744 23.936 147.328C23.428 146.58 23.264 145.66 23.064 144.78C22.0427 140.259 19.8238 136.096 16.64 132.728C16.4276 136.751 17.3007 140.758 19.168 144.328C19.916 145.752 20.836 147.128 21.084 148.728C21.484 151.312 20.044 153.976 20.684 156.512C21.408 159.416 24.684 161.36 24.824 164.348C24.956 166.876 22.752 169.092 22.916 171.616C23.0502 172.689 23.4352 173.716 24.04 174.612C26 177.876 28.86 180.112 33.2 180.04L38.528 180.224L34.904 167.896Z" fill="#2B29A4"/>
<g id="Group" opacity="0.3">
<path id="Vector_3" d="M34.904 167.896C35.356 166.148 34.208 164.388 32.904 163.12C31.6 161.852 30.08 160.72 29.412 159.036C28.328 156.316 29.784 152.796 27.936 150.528C26.848 149.192 24.896 148.744 23.936 147.328C23.428 146.58 23.264 145.66 23.064 144.78C22.0427 140.259 19.8238 136.096 16.64 132.728C16.4276 136.751 17.3007 140.758 19.168 144.328C19.916 145.752 20.836 147.128 21.084 148.728C21.484 151.312 20.044 153.976 20.684 156.512C21.408 159.416 24.684 161.36 24.824 164.348C24.956 166.876 22.752 169.092 22.916 171.616C23.0502 172.689 23.4352 173.716 24.04 174.612C26 177.876 28.86 180.112 33.2 180.04L38.528 180.224L34.904 167.896Z" fill="black"/>
</g>
<path id="Vector_4" d="M39.6 180.188C40.0872 180.264 40.584 180.255 41.068 180.16C41.6566 180.07 42.2353 179.924 42.796 179.724C43.5694 179.455 44.2926 179.059 44.936 178.552C45.3221 178.24 45.6245 177.838 45.816 177.38C45.9781 176.862 46.0617 176.323 46.064 175.78C46.076 175.203 46.1187 174.628 46.192 174.056C46.2943 173.449 46.5144 172.867 46.84 172.344C47.468 171.24 48.512 170.196 48.84 168.696C49.168 167.196 48.944 165.628 48.696 164.028C48.448 162.428 48.208 160.688 48.82 159.024C49.432 157.36 50.56 155.852 51.144 153.976C51.728 152.1 51.456 150.036 51.576 148.024C51.6154 147.003 51.8518 145.999 52.272 145.068C52.704 144.124 53.3 143.236 53.768 142.24C54.712 140.24 54.88 137.96 55.14 135.732C55.2653 134.607 55.3987 133.472 55.54 132.328C55.6205 131.175 55.8189 130.033 56.132 128.92C56.4916 127.797 56.9177 126.696 57.408 125.624C57.6597 125.067 57.8658 124.49 58.024 123.9C58.1144 123.293 58.1718 122.681 58.196 122.068C58.2551 120.837 58.2083 119.603 58.056 118.38C57.912 117.152 57.688 115.932 57.556 114.7L57.532 114.488L57.504 114.244L57.288 114.352C56.1587 114.927 55.1772 115.756 54.42 116.772C53.6812 117.766 53.0873 118.859 52.656 120.02C51.768 122.308 51.456 124.708 51 126.996C50.544 129.284 50 131.544 48.8 133.448C48.22 134.396 47.512 135.26 46.892 136.188C46.233 137.09 45.7822 138.127 45.572 139.224C45.256 141.476 46.496 143.456 46.24 145.452C46.1174 146.432 45.7859 147.375 45.268 148.216C44.784 149.068 44.216 149.856 43.668 150.652C43.1171 151.426 42.6378 152.248 42.236 153.108C41.861 153.953 41.6401 154.858 41.584 155.78C41.452 157.576 41.708 159.28 41.584 160.888C41.4369 162.42 40.9912 163.908 40.272 165.268C39.624 166.576 38.908 167.764 38.308 168.912C38.008 169.488 37.728 170.048 37.508 170.608C37.295 171.153 37.1382 171.719 37.04 172.296C36.8829 173.302 36.8707 174.326 37.004 175.336C37.146 176.741 37.6749 178.078 38.532 179.2C38.6617 179.367 38.8048 179.524 38.96 179.668C39.0671 179.778 39.1851 179.877 39.312 179.964C39.508 180.112 39.616 180.176 39.616 180.176C39.2339 179.877 38.8876 179.535 38.584 179.156C37.7617 178.028 37.2612 176.698 37.136 175.308C37.0184 174.31 37.0413 173.3 37.204 172.308C37.3066 171.746 37.4647 171.195 37.676 170.664C37.904 170.116 38.184 169.556 38.476 168.988C39.084 167.852 39.808 166.672 40.476 165.352C41.2196 163.971 41.6818 162.457 41.836 160.896C41.976 159.252 41.732 157.544 41.868 155.788C41.9251 154.897 42.1419 154.023 42.508 153.208C42.905 152.366 43.379 151.563 43.924 150.808C44.46 150.008 45.036 149.228 45.524 148.356C46.0656 147.481 46.4134 146.501 46.544 145.48C46.8 143.352 45.568 141.36 45.888 139.268C46.0922 138.217 46.5281 137.225 47.164 136.364C47.772 135.452 48.484 134.588 49.084 133.616C50.284 131.656 50.88 129.364 51.324 127.064C51.768 124.764 52.096 122.388 52.972 120.144C53.391 119.015 53.9688 117.95 54.688 116.984C55.4124 116.009 56.353 115.215 57.436 114.664L57.188 114.528L57.212 114.744C57.348 115.988 57.568 117.212 57.712 118.424C57.8622 119.628 57.909 120.844 57.852 122.056C57.8305 122.652 57.7758 123.246 57.688 123.836C57.5359 124.405 57.3365 124.96 57.092 125.496C56.5995 126.581 56.1708 127.693 55.808 128.828C55.4878 129.959 55.2867 131.12 55.208 132.292C55.08 133.441 54.9547 134.577 54.832 135.7C54.576 137.936 54.408 140.176 53.5 142.1C53.048 143.064 52.452 143.956 52.008 144.932C51.5743 145.898 51.3311 146.938 51.292 147.996C51.176 150.052 51.444 152.064 50.892 153.884C50.34 155.704 49.18 157.208 48.592 158.928C48.004 160.648 48.224 162.464 48.476 164.056C48.728 165.648 48.992 167.22 48.648 168.64C48.304 170.06 47.328 171.104 46.688 172.24C46.3532 172.784 46.1289 173.389 46.028 174.02C45.9566 174.599 45.9192 175.181 45.916 175.764C45.9153 176.288 45.8385 176.81 45.688 177.312C45.5098 177.749 45.2252 178.134 44.86 178.432C44.2338 178.936 43.53 179.334 42.776 179.612C42.2224 179.819 41.6505 179.973 41.068 180.072C40.7101 180.137 40.3476 180.173 39.984 180.18C39.744 180.184 39.6 180.188 39.6 180.188Z" fill="#263238"/>
<path id="Vector_5" d="M56.4481 117.428C56.4249 117.481 56.4075 117.536 56.3961 117.592C56.3641 117.72 56.3281 117.876 56.2801 118.072C56.1761 118.492 56.0481 119.124 55.8481 119.916C55.6481 120.708 55.1561 121.596 54.7441 122.696C54.2577 123.934 53.8344 125.195 53.4761 126.476C53.0761 127.896 52.7081 129.476 52.3321 131.164C51.9561 132.852 51.5561 134.66 50.6281 136.364C50.1921 137.228 49.7001 138.104 49.3081 139.064C48.9245 140.046 48.6678 141.073 48.5441 142.12C48.2752 144.287 47.8907 146.438 47.3921 148.564C46.3241 152.932 45.3081 157.088 44.3801 160.876L41.8561 170.916C41.1561 173.756 40.5841 176.064 40.1841 177.688C40.0001 178.488 39.8521 179.088 39.7441 179.536C39.7041 179.732 39.6681 179.892 39.6401 180.02C39.6242 180.073 39.6161 180.128 39.6161 180.184C39.6415 180.134 39.6616 180.082 39.6761 180.028L39.8121 179.552C39.9361 179.108 40.1001 178.496 40.3121 177.724C40.7401 176.1 41.3481 173.804 42.0921 170.972L44.6881 160.952C45.6241 157.164 46.6481 153.008 47.7281 148.64C48.2251 146.505 48.6083 144.344 48.8761 142.168C48.9936 141.153 49.2368 140.156 49.6001 139.2C49.9761 138.268 50.4601 137.396 50.8961 136.52C51.8361 134.784 52.2241 132.92 52.6001 131.24C52.9761 129.56 53.3081 127.972 53.6961 126.552C54.0841 125.132 54.4961 123.872 54.8961 122.78C55.2961 121.688 55.7561 120.78 55.9521 119.96C56.1481 119.14 56.2401 118.524 56.3241 118.096C56.3561 117.9 56.3841 117.74 56.4081 117.612C56.4286 117.552 56.442 117.491 56.4481 117.428Z" fill="#263238"/>
<path id="Vector_6" d="M40.5561 180.224C44.0361 178.156 45.0361 172.036 43.5841 168.256C42.1321 164.476 39.5841 161.024 39.1841 156.996C38.8801 153.9 39.8961 150.72 39.1841 147.692C38.2161 143.6 34.2281 140.444 34.2761 136.244C34.3001 133.888 35.6401 131.672 35.5361 129.316C35.4041 126.432 33.1881 124.14 31.8161 121.596C29.7121 117.704 29.5761 113.1 28.8561 108.736C28.1361 104.372 26.4561 99.696 22.6081 97.536C22.0361 101.24 21.0601 103.78 21.3681 108.8C21.4761 110.604 23.5721 114.052 23.8561 118C24.0281 120.364 24.1441 122.728 24.2881 125.092C24.4281 127.392 24.5761 129.732 25.4041 131.892C26.0361 133.544 27.0481 135.04 27.5201 136.744C28.4001 139.944 27.2401 143.416 27.9521 146.66C28.5561 149.408 30.4601 151.776 30.8481 154.564C31.3961 158.48 28.8481 162.564 30.1561 166.284C30.8001 168.14 32.3281 169.628 32.7601 171.54C33.0961 173.028 32.7281 174.6 33.0321 176.092C33.5241 178.492 38.1081 180.364 40.5561 180.212" fill="#2B29A4"/>
<path id="Vector_7" d="M23.564 101.228C23.5578 101.299 23.5578 101.369 23.564 101.44C23.564 101.596 23.612 101.796 23.644 102.048C23.724 102.584 23.812 103.368 23.992 104.384C24.172 105.4 24.716 106.556 25.136 107.944C25.556 109.332 26.02 110.924 26.412 112.708C26.804 114.492 27.14 116.472 27.488 118.596C27.836 120.72 28.22 123.04 29.272 125.256C29.76 126.368 30.308 127.48 30.72 128.668C31.1216 129.885 31.3676 131.149 31.452 132.428C31.6475 135.146 31.9893 137.851 32.476 140.532C33.54 146.024 34.556 151.252 35.48 156.016C36.404 160.78 37.332 165.028 38.068 168.624C38.804 172.22 39.42 175.092 39.844 177.12C40.056 178.104 40.224 178.876 40.344 179.428C40.4 179.676 40.448 179.872 40.484 180.024C40.4956 180.092 40.5143 180.16 40.54 180.224C40.5426 180.154 40.5345 180.084 40.516 180.016C40.488 179.864 40.456 179.664 40.412 179.412C40.308 178.86 40.16 178.084 39.976 177.092C39.576 175.06 39.008 172.156 38.308 168.576C37.608 164.996 36.736 160.7 35.788 155.952L32.812 140.476C32.3323 137.804 31.9958 135.108 31.804 132.4C31.7136 131.094 31.4583 129.805 31.044 128.564C30.62 127.364 30.068 126.236 29.576 125.132C28.528 122.952 28.16 120.672 27.784 118.552C27.408 116.432 27.076 114.448 26.664 112.66C26.252 110.872 25.796 109.272 25.332 107.888C24.868 106.504 24.348 105.356 24.132 104.36C23.916 103.364 23.82 102.568 23.732 102.04C23.684 101.792 23.648 101.592 23.62 101.436C23.6108 101.364 23.592 101.295 23.564 101.228Z" fill="#263238"/>
<path id="Vector_8" d="M175.2 156.4C175.741 156.658 176.224 157.022 176.62 157.471C177.017 157.92 177.319 158.444 177.508 159.012C177.878 160.153 177.984 161.364 177.816 162.552C177.556 164.852 176.248 167.168 174.844 169.004C172.908 167.316 172.444 164.372 172.332 162.864C172.124 160.464 173.192 156.044 175.2 156.4Z" fill="#2B29A4"/>
<path id="Vector_9" d="M177.088 172.8C176.959 172.145 177.004 171.467 177.22 170.836C177.435 170.204 177.813 169.64 178.316 169.2C178.828 168.769 179.421 168.444 180.059 168.245C180.698 168.045 181.37 167.974 182.036 168.036C182.345 168.033 182.651 168.096 182.933 168.223C183.214 168.349 183.465 168.535 183.668 168.768C183.82 169.015 183.902 169.298 183.907 169.588C183.912 169.878 183.839 170.164 183.696 170.416C183.403 170.917 182.982 171.331 182.476 171.616C180.8 172.668 178.984 173.38 177.088 172.816" fill="#2B29A4"/>
<path id="Vector_10" d="M174.608 179.832C174.617 179.673 174.64 179.515 174.676 179.36C174.736 179.028 174.816 178.6 174.912 178.084C175.126 176.66 175.57 175.281 176.228 174C176.909 172.722 177.918 171.649 179.152 170.892C179.529 170.667 179.932 170.49 180.352 170.364C180.465 170.328 180.58 170.299 180.696 170.276C180.776 170.276 180.82 170.252 180.82 170.276C179.863 170.585 178.977 171.082 178.215 171.738C177.452 172.394 176.828 173.196 176.38 174.096C175.736 175.355 175.283 176.703 175.036 178.096C174.916 178.632 174.82 179.064 174.748 179.36C174.718 179.522 174.671 179.68 174.608 179.832Z" fill="#263238"/>
<path id="Vector_11" d="M174.68 159.836C174.693 159.905 174.701 159.974 174.704 160.044C174.704 160.196 174.724 160.392 174.74 160.636C174.768 161.148 174.796 161.892 174.828 162.816C174.884 164.656 174.932 167.216 174.92 170.016C174.908 172.816 174.84 175.372 174.764 177.216C174.728 178.136 174.688 178.88 174.656 179.396C174.656 179.636 174.628 179.832 174.616 179.988C174.615 180.057 174.607 180.125 174.592 180.192C174.586 180.123 174.586 180.053 174.592 179.984C174.592 179.832 174.592 179.636 174.592 179.392C174.592 178.856 174.624 178.116 174.644 177.212C174.692 175.372 174.74 172.812 174.752 170.012C174.764 167.212 174.752 164.66 174.708 162.812C174.708 161.908 174.684 161.168 174.672 160.632V160.04C174.669 159.972 174.672 159.904 174.68 159.836Z" fill="#263238"/>
<path id="Vector_12" d="M173.74 174.184C173.507 172.792 172.945 171.475 172.101 170.343C171.257 169.211 170.156 168.297 168.888 167.676C168.244 167.364 167.396 167.164 166.868 167.644C166.34 168.124 166.468 168.992 166.712 169.644C167.282 171.031 168.249 172.218 169.491 173.056C170.734 173.895 172.197 174.347 173.696 174.356" fill="#2B29A4"/>
<path id="Vector_13" d="M169.2 169.856C169.339 169.901 169.473 169.96 169.6 170.032C169.759 170.106 169.914 170.189 170.064 170.28C170.268 170.394 170.465 170.518 170.656 170.652C170.89 170.809 171.116 170.979 171.332 171.16C171.583 171.365 171.823 171.583 172.052 171.812C172.571 172.344 173.029 172.933 173.416 173.568C173.793 174.21 174.095 174.893 174.316 175.604C174.409 175.914 174.485 176.229 174.544 176.548C174.597 176.826 174.636 177.106 174.66 177.388C174.684 177.619 174.694 177.852 174.692 178.084C174.703 178.259 174.703 178.434 174.692 178.608C174.691 178.759 174.675 178.909 174.644 179.056C174.604 179.056 174.672 178.416 174.56 177.4C174.529 177.123 174.484 176.848 174.424 176.576C174.362 176.264 174.282 175.955 174.184 175.652C173.96 174.954 173.66 174.283 173.288 173.652C172.908 173.027 172.461 172.445 171.956 171.916C171.734 171.687 171.5 171.469 171.256 171.264C171.048 171.079 170.831 170.905 170.604 170.744C169.768 170.152 169.2 169.888 169.2 169.856Z" fill="#263238"/>
</g>
<g id="freepik--Character--inject-66">
<path id="Vector_14" d="M146.864 92.484C146.864 92.484 128.188 79.248 125.824 77.948C123.572 76.708 116.424 75.808 115.784 75.652L102.984 72.852L83.4321 73.436L77.8321 76.808L63.6401 83.36C59.7721 85.1418 56.7233 88.3235 55.1081 92.264L46.1481 114.148L68.4001 120.724L69.0921 143.808L63.8481 180.176H128.92L125.644 110.476L132.42 111.968L146.864 92.484Z" fill="#263238"/>
<path id="Vector_15" d="M68.8 111.428C68.8 111.428 68.564 111.6 68.112 111.864C67.475 112.251 66.7684 112.509 66.032 112.624C64.9293 112.701 63.8229 112.54 62.788 112.152C61.5118 111.727 60.2751 111.192 59.092 110.552C57.824 109.892 56.636 109.224 55.524 108.688C54.5433 108.198 53.5238 107.79 52.476 107.468C51.7683 107.255 51.0426 107.108 50.308 107.028C50.048 107 49.848 106.988 49.708 106.984H49.5C49.767 106.974 50.0343 106.984 50.3 107.012C51.0382 107.072 51.7685 107.206 52.48 107.412C53.5337 107.724 54.5587 108.125 55.544 108.612C56.664 109.148 57.852 109.812 59.12 110.476C60.2997 111.112 61.5307 111.647 62.8 112.076C63.8206 112.461 64.9111 112.626 66 112.56C66.7298 112.453 67.4321 112.206 68.068 111.832C68.296 111.704 68.468 111.6 68.588 111.528C68.708 111.456 68.8 111.428 68.8 111.428Z" fill="white"/>
<path id="Vector_16" d="M67.848 100.644H67.7L67.276 100.624C66.908 100.604 66.376 100.564 65.72 100.5C62.303 100.156 58.9431 99.3818 55.72 98.196C55.1 97.968 54.604 97.772 54.264 97.628L53.864 97.46L53.728 97.396L53.872 97.444L54.272 97.596C54.616 97.732 55.116 97.92 55.736 98.14C58.9676 99.2961 62.324 100.068 65.736 100.44C66.388 100.512 66.936 100.564 67.284 100.592L67.708 100.628L67.848 100.644Z" fill="white"/>
<path id="Vector_17" d="M81.8361 77.948C81.8361 77.948 81.6681 78.22 81.3161 78.676C80.8141 79.3164 80.2381 79.8951 79.6001 80.4C78.6445 81.1402 77.6038 81.7633 76.5001 82.256C75.1496 82.86 73.7581 83.368 72.3361 83.776C70.8281 84.224 69.3881 84.62 68.0961 85.044C66.9473 85.4076 65.8269 85.8555 64.7441 86.384C64.0144 86.7394 63.3159 87.1555 62.6561 87.628C62.4161 87.788 62.2561 87.936 62.1281 88.028C62.0001 88.12 61.9401 88.164 61.9401 88.164C61.9401 88.164 62.1761 87.948 62.6361 87.6C63.2921 87.1178 63.9879 86.6923 64.7161 86.328C65.7997 85.7937 66.9214 85.3405 68.0721 84.972C69.3641 84.54 70.8081 84.144 72.3121 83.696C73.7306 83.29 75.1193 82.7862 76.4681 82.188C77.5673 81.6988 78.6062 81.084 79.5641 80.356C80.2092 79.8618 80.7956 79.2955 81.3121 78.668C81.5001 78.452 81.6161 78.268 81.7121 78.144C81.8081 78.02 81.8361 77.948 81.8361 77.948Z" fill="white"/>
<path id="Vector_18" d="M121.856 80.928C121.856 80.928 121.796 80.9 121.684 80.836C121.572 80.772 121.42 80.676 121.204 80.568C120.609 80.2503 119.988 79.9827 119.348 79.768C118.397 79.4488 117.424 79.1988 116.436 79.02C115.324 78.808 114.088 78.644 112.792 78.46L106.16 77.52L104.16 77.224L103.612 77.14L103.424 77.104L103.616 77.124L104.164 77.192L106.164 77.46L112.8 78.376C114.096 78.556 115.332 78.724 116.448 78.94C117.437 79.1218 118.41 79.3785 119.36 79.708C120.002 79.9298 120.623 80.2082 121.216 80.54C121.64 80.776 121.856 80.928 121.856 80.928Z" fill="white"/>
<path id="Vector_19" d="M112.8 85.344C112.8 85.344 112.652 85.416 112.368 85.54C112.084 85.664 111.66 85.844 111.112 86.064C110.012 86.5 108.408 87.104 106.376 87.696C103.998 88.4009 101.574 88.9355 99.12 89.296C96.348 89.72 93.256 89.72 90.036 89.612C86.816 89.504 83.732 89.368 80.94 89.544C78.4667 89.6639 76.0201 90.1104 73.664 90.872C72.0766 91.3942 70.5691 92.1332 69.184 93.068C68.708 93.412 68.336 93.684 68.104 93.892C67.872 94.1 67.736 94.192 67.736 94.192C67.736 94.192 67.856 94.08 68.092 93.88C68.328 93.68 68.688 93.392 69.168 93.04C70.5479 92.0918 72.0548 91.3431 73.644 90.816C76.0041 90.0454 78.4563 89.592 80.936 89.468C83.736 89.288 86.812 89.424 90.036 89.528C93.26 89.632 96.344 89.64 99.112 89.22C101.563 88.8585 103.985 88.3238 106.36 87.62C108.388 87.036 109.996 86.44 111.1 86.02C111.652 85.804 112.076 85.62 112.36 85.508L112.8 85.344Z" fill="white"/>
<path id="Vector_20" d="M118.928 89.256C118.906 89.272 118.882 89.2841 118.856 89.292L118.644 89.368C118.46 89.436 118.192 89.524 117.844 89.62C116.968 89.8701 116.063 90.0046 115.152 90.02C114.24 90.0209 113.333 89.8861 112.46 89.62C112.124 89.52 111.856 89.428 111.66 89.356L111.452 89.272L111.38 89.236H111.46L111.672 89.304C111.856 89.368 112.124 89.452 112.472 89.544C113.343 89.7869 114.244 89.908 115.148 89.904C116.054 89.8779 116.954 89.7436 117.828 89.504C118.16 89.412 118.432 89.336 118.628 89.276L118.84 89.216L118.928 89.256Z" fill="white"/>
<path id="Vector_21" d="M106.308 100.576C106.308 100.576 104.388 100.976 101.256 101.448C99.688 101.684 97.816 101.916 95.732 102.124C93.6481 102.332 91.3321 102.488 88.9321 102.58C86.5321 102.672 84.212 102.664 82.132 102.62C80.052 102.576 78.132 102.464 76.572 102.344C73.412 102.104 71.472 101.84 71.472 101.84L71.824 101.868L72.8401 101.968C73.7201 102.06 74.996 102.172 76.576 102.284C78.156 102.396 80.04 102.488 82.132 102.54C84.224 102.592 86.5321 102.58 88.9321 102.496C91.3321 102.412 93.64 102.24 95.732 102.048C97.8241 101.856 99.688 101.616 101.256 101.388C102.824 101.16 104.088 100.96 104.96 100.804L105.964 100.628L106.308 100.576Z" fill="white"/>
<path id="Vector_22" d="M121.972 99.44H121.828H121.428C121.064 99.44 120.54 99.44 119.892 99.44C118.596 99.44 116.804 99.388 114.836 99.22C112.868 99.052 111.088 98.784 109.816 98.552C109.176 98.44 108.664 98.336 108.308 98.26L107.908 98.172L107.768 98.136H107.912L108.312 98.208L109.82 98.476C111.096 98.692 112.868 98.948 114.836 99.116C116.804 99.284 118.596 99.34 119.888 99.36H121.424H121.824L121.972 99.44Z" fill="white"/>
<path id="Vector_23" d="M102 115.928C102 115.928 101.884 115.952 101.672 115.98L100.728 116.112C100.328 116.172 99.816 116.24 99.228 116.28C98.64 116.32 97.976 116.4 97.228 116.412C96.48 116.424 95.68 116.48 94.828 116.464C94.392 116.464 93.944 116.464 93.48 116.464L92.052 116.416C90.096 116.34 87.952 116.192 85.704 116.016C83.456 115.84 81.304 115.616 79.364 115.5C77.424 115.384 75.656 115.296 74.164 115.32H73.112L72.172 115.368C71.588 115.392 71.08 115.42 70.672 115.472L69.724 115.564L69.392 115.592C69.392 115.592 69.508 115.572 69.724 115.548L70.668 115.436C71.068 115.38 71.584 115.352 72.172 115.32L73.112 115.268H74.164C75.644 115.24 77.408 115.312 79.364 115.432C81.32 115.552 83.456 115.752 85.704 115.94C87.952 116.128 90.104 116.284 92.048 116.368L93.472 116.42C93.936 116.42 94.384 116.42 94.82 116.42C95.688 116.42 96.496 116.4 97.22 116.38C97.944 116.36 98.624 116.292 99.22 116.256C99.816 116.22 100.308 116.16 100.72 116.104L101.664 115.988L102 115.928Z" fill="white"/>
<path id="Vector_24" d="M125.54 111.232L125.364 111.26L124.852 111.312C124.412 111.36 123.768 111.412 122.976 111.468C121.376 111.576 119.188 111.652 116.76 111.592C114.332 111.532 112.136 111.332 110.556 111.14C109.756 111.044 109.128 110.956 108.688 110.888L108.184 110.808L108.008 110.772L108.184 110.792L108.692 110.856C109.132 110.916 109.772 110.996 110.564 111.084C112.144 111.26 114.332 111.444 116.76 111.508C119.188 111.572 121.384 111.508 122.972 111.408C123.772 111.364 124.408 111.316 124.852 111.28L125.36 111.24L125.54 111.232Z" fill="white"/>
<path id="Vector_25" d="M125.824 125.768L125.24 125.736C124.84 125.736 124.292 125.656 123.564 125.636C122.108 125.56 120 125.544 117.396 125.672C114.792 125.8 111.708 126.108 108.292 126.56C104.876 127.012 101.132 127.6 97.2001 128.096C93.4864 128.597 89.7467 128.881 86.0001 128.948C82.9451 129 79.8917 128.779 76.8761 128.288C74.8438 127.953 72.8434 127.447 70.8961 126.776C70.5481 126.668 70.2481 126.552 69.9881 126.448L69.3241 126.184C68.9681 126.044 68.7841 125.964 68.7841 125.964L69.3321 126.168L69.9961 126.424C70.2561 126.528 70.5601 126.64 70.9081 126.748C72.857 127.406 74.8572 127.901 76.8881 128.228C79.9006 128.709 82.9497 128.925 86.0001 128.872C89.747 128.797 93.4866 128.506 97.2001 128C101.14 127.492 104.884 126.908 108.304 126.468C111.724 126.028 114.8 125.732 117.396 125.6C119.451 125.495 121.509 125.495 123.564 125.6C125.02 125.684 125.824 125.768 125.824 125.768Z" fill="white"/>
<path id="Vector_26" d="M103.828 140.704C103.828 140.704 101.904 141.032 98.768 141.368C97.204 141.536 95.332 141.688 93.252 141.808C91.172 141.928 88.876 141.984 86.472 141.972C84.068 141.96 81.776 141.848 79.696 141.712C77.616 141.576 75.748 141.384 74.184 141.192C71.052 140.792 69.136 140.456 69.136 140.456L69.488 140.5L70.492 140.648C70.924 140.716 71.46 140.792 72.092 140.868C72.724 140.944 73.42 141.052 74.2 141.132C75.768 141.316 77.636 141.492 79.712 141.636C81.788 141.78 84.08 141.864 86.484 141.888C88.888 141.912 91.18 141.836 93.26 141.732C95.34 141.628 97.208 141.472 98.776 141.308C99.576 141.236 100.268 141.144 100.888 141.076C101.508 141.008 102.044 140.936 102.488 140.876L103.492 140.744L103.828 140.704Z" fill="white"/>
<path id="Vector_27" d="M125.6 137.84C125.6 137.84 125.524 137.868 125.384 137.908L124.772 138.096C124.236 138.256 123.46 138.476 122.496 138.736C120.572 139.252 117.888 139.892 114.896 140.44C111.904 140.988 109.164 141.344 107.18 141.544C106.188 141.644 105.384 141.712 104.828 141.752L104.188 141.796H103.964L104.184 141.768L104.824 141.708C105.38 141.66 106.184 141.58 107.172 141.472C109.172 141.256 111.888 140.896 114.88 140.348C117.872 139.8 120.552 139.168 122.48 138.664C123.444 138.416 124.22 138.204 124.756 138.052L125.376 137.88L125.6 137.84Z" fill="white"/>
<path id="Vector_28" d="M88.568 157.38C87.5372 157.54 86.4982 157.643 85.456 157.688C84.492 157.74 83.34 157.744 82.06 157.688C79.2861 157.555 76.5377 157.095 73.872 156.316C72.644 155.952 71.556 155.572 70.672 155.208C69.7021 154.823 68.7528 154.388 67.828 153.904L68.028 153.992L68.592 154.252C68.836 154.368 69.136 154.508 69.492 154.652C69.848 154.796 70.24 154.98 70.692 155.148C71.588 155.508 72.692 155.88 73.892 156.24C75.2245 156.616 76.5757 156.923 77.94 157.16C79.3064 157.376 80.6828 157.523 82.064 157.6C83.34 157.656 84.488 157.66 85.452 157.6C85.936 157.6 86.372 157.548 86.756 157.524C87.14 157.5 87.464 157.464 87.736 157.436L88.352 157.372L88.568 157.38Z" fill="white"/>
<path id="Vector_29" d="M127.048 156.36L126.648 156.432L125.504 156.616C124.512 156.772 123.072 156.992 121.292 157.244C117.732 157.752 112.8 158.384 107.34 158.928C101.88 159.472 96.9161 159.816 93.3401 160.016C91.5441 160.116 90.0881 160.188 89.0841 160.228L87.9281 160.272H87.5281L87.9281 160.248L89.0841 160.188L93.3361 159.952C96.9361 159.736 101.88 159.376 107.336 158.836C112.792 158.296 117.736 157.672 121.288 157.18L125.504 156.576L126.648 156.408L127.048 156.36Z" fill="white"/>
<path id="Vector_30" d="M129.144 171.092C129.144 171.092 128.272 171.276 126.676 171.536C125.08 171.796 122.768 172.12 119.876 172.36C116.503 172.635 113.118 172.718 109.736 172.608C105.916 172.484 101.736 172.056 97.364 171.52C92.992 170.984 88.824 170.444 85.02 170.148C81.6509 169.858 78.2667 169.781 74.888 169.92C72.6065 170.026 70.3347 170.286 68.088 170.696C67.288 170.848 66.68 170.976 66.268 171.076L65.636 171.22C65.636 171.22 65.852 171.16 66.264 171.06C66.676 170.96 67.288 170.824 68.08 170.66C70.3253 170.236 72.5975 169.968 74.88 169.86C78.2595 169.708 81.6453 169.776 85.016 170.064C88.828 170.36 92.992 170.9 97.364 171.436C101.736 171.972 105.916 172.4 109.732 172.524C113.111 172.639 116.494 172.563 119.864 172.296C122.74 172.064 125.064 171.748 126.664 171.496C127.464 171.368 128.08 171.268 128.5 171.192L129.144 171.092Z" fill="white"/>
<path id="Vector_31" d="M140.88 88.904C140.88 88.904 140.764 89.22 140.504 89.772C140.129 90.548 139.693 91.293 139.2 92C138.467 93.0451 137.665 94.0406 136.8 94.98C135.832 96.052 134.72 97.18 133.6 98.404C132.531 99.5426 131.554 100.765 130.68 102.06C129.968 103.118 129.391 104.262 128.964 105.464C128.673 106.283 128.483 107.135 128.4 108C128.36 108.3 128.372 108.54 128.36 108.7C128.348 108.86 128.36 108.944 128.36 108.944C128.349 108.628 128.357 108.311 128.384 107.996C128.453 107.134 128.631 106.284 128.916 105.468C129.338 104.259 129.912 103.108 130.624 102.044C131.498 100.742 132.476 99.5125 133.548 98.368C134.676 97.148 135.792 96.02 136.748 94.952C137.611 94.0165 138.412 93.0264 139.148 91.988C139.646 91.2877 140.089 90.5494 140.472 89.78C140.616 89.508 140.7 89.288 140.772 89.144C140.844 89 140.88 88.904 140.88 88.904Z" fill="white"/>
<path id="Vector_32" d="M122.456 95.796L122.592 95.696L122.992 95.424C123.344 95.196 123.836 94.844 124.428 94.388C125.02 93.932 125.704 93.364 126.428 92.692C127.208 91.9596 127.949 91.1866 128.648 90.376C129.338 89.5564 129.986 88.702 130.588 87.816C131.132 86.992 131.592 86.216 131.944 85.572C132.296 84.928 132.568 84.372 132.744 83.972L132.948 83.536L133.024 83.384C132.724 84.141 132.382 84.8808 132 85.6C131.652 86.264 131.2 87.032 130.652 87.856C130.056 88.7492 129.409 89.6079 128.716 90.428C128.015 91.242 127.27 92.0165 126.484 92.748C125.752 93.416 125.068 93.988 124.484 94.436C123.834 94.9271 123.157 95.3812 122.456 95.796Z" fill="white"/>
<path id="Vector_33" d="M93.868 114.5C93.8976 114.48 93.93 114.466 93.964 114.456L94.252 114.344C94.512 114.256 94.876 114.096 95.344 113.88C96.6451 113.224 97.8387 112.375 98.884 111.36C100.425 109.847 101.785 108.159 102.936 106.332C104.381 104.114 105.7 101.817 106.888 99.452C109.019 95.1387 110.889 90.7014 112.488 86.164C113.116 84.428 113.604 83.012 113.948 82.04L114.348 80.916C114.392 80.796 114.428 80.704 114.456 80.624C114.484 80.544 114.496 80.528 114.496 80.528C114.494 80.5634 114.487 80.5984 114.476 80.632C114.452 80.712 114.42 80.808 114.384 80.928C114.3 81.204 114.18 81.584 114.024 82.064C113.708 83.048 113.224 84.464 112.624 86.212C111.061 90.7721 109.202 95.2256 107.06 99.544C105.87 101.916 104.544 104.217 103.088 106.436C101.92 108.268 100.54 109.956 98.976 111.464C97.9161 112.479 96.7008 113.317 95.376 113.948C95.0155 114.115 94.6455 114.26 94.268 114.384L93.972 114.476C93.9388 114.489 93.9037 114.497 93.868 114.5Z" fill="#455A64"/>
<path id="Vector_34" d="M93.2001 122.964C93.266 122.901 93.3384 122.844 93.4161 122.796L94.0641 122.352C94.6201 121.952 95.4241 121.388 96.3921 120.648C98.3321 119.172 100.88 116.968 103.616 114.452C104.992 113.196 106.308 112.008 107.444 110.872C108.46 109.873 109.403 108.804 110.268 107.672C110.848 106.906 111.364 106.094 111.812 105.244C111.98 104.948 112.084 104.704 112.164 104.544C112.202 104.461 112.246 104.381 112.296 104.304C112.276 104.394 112.245 104.481 112.204 104.564C112.132 104.728 112.04 104.964 111.88 105.28C111.458 106.15 110.956 106.979 110.38 107.756C109.531 108.909 108.595 109.995 107.58 111.004C106.444 112.156 105.132 113.348 103.756 114.604C101.437 116.779 99.0081 118.835 96.4801 120.764C95.5001 121.496 94.6841 122.048 94.1081 122.42C93.8241 122.608 93.5961 122.74 93.4441 122.82C93.3661 122.873 93.2846 122.922 93.2001 122.964Z" fill="#455A64"/>
<path id="Vector_35" d="M82.4 165.728L82.448 165.636C82.492 165.572 82.544 165.488 82.608 165.384C82.748 165.16 82.964 164.84 83.252 164.432C83.832 163.632 84.724 162.484 85.9 161.148C88.272 158.484 91.592 154.856 95.252 150.836L104.656 140.576L107.524 137.48L108.324 136.644L108.532 136.432C108.58 136.384 108.604 136.36 108.608 136.364C108.612 136.368 108.588 136.392 108.548 136.444L108.352 136.672L107.6 137.532C106.92 138.284 105.96 139.356 104.78 140.668L95.416 150.972L86 161.24C84.8 162.564 83.904 163.684 83.308 164.48C83.008 164.88 82.784 165.192 82.632 165.404L82.46 165.648C82.4443 165.678 82.424 165.705 82.4 165.728Z" fill="#455A64"/>
<path id="Vector_36" d="M119.744 93.836C119.679 93.6374 119.63 93.4342 119.596 93.228C119.552 93.032 119.504 92.788 119.468 92.504C119.432 92.22 119.372 91.896 119.356 91.536C119.34 91.176 119.296 90.78 119.3 90.336C119.304 89.892 119.3 89.456 119.332 88.976C119.471 86.9031 119.978 84.8715 120.828 82.976C121.032 82.544 121.228 82.132 121.436 81.776C121.644 81.42 121.836 81.064 122.04 80.76C122.244 80.456 122.44 80.188 122.592 79.96C122.732 79.7586 122.883 79.565 123.044 79.38C123.166 79.2142 123.299 79.0578 123.444 78.912C123.341 79.094 123.222 79.2667 123.088 79.428C122.968 79.588 122.82 79.784 122.668 80.024C122.516 80.264 122.32 80.524 122.144 80.824C121.968 81.124 121.744 81.468 121.564 81.844C121.384 82.22 121.164 82.644 120.98 83.044C120.154 84.9301 119.653 86.9426 119.5 88.996C119.476 89.468 119.44 89.916 119.448 90.336C119.456 90.756 119.448 91.136 119.48 91.508C119.512 91.88 119.536 92.188 119.564 92.472C119.592 92.756 119.624 93 119.656 93.2C119.706 93.4086 119.735 93.6216 119.744 93.836Z" fill="#455A64"/>
<path id="Vector_37" d="M125.564 108.188C125.516 108.188 124.796 106.62 123.964 104.636C123.132 102.652 122.492 101.036 122.54 101.004C123.133 102.16 123.667 103.346 124.14 104.556C124.678 105.741 125.153 106.953 125.564 108.188Z" fill="#455A64"/>
<path id="Vector_38" d="M68.4001 95.504C68.3681 95.524 68.0561 94.952 67.4681 94.084C65.9319 91.8181 63.9469 89.8917 61.6361 88.424C60.7521 87.864 60.1721 87.568 60.1881 87.536C60.3354 87.579 60.4776 87.638 60.6121 87.712C60.8801 87.836 61.2561 88.036 61.7121 88.304C62.8961 89.0106 63.9941 89.8522 64.9841 90.812C65.9718 91.7754 66.8456 92.8491 67.5881 94.012C67.8681 94.46 68.0801 94.832 68.2121 95.096C68.2885 95.2253 68.3515 95.362 68.4001 95.504Z" fill="#455A64"/>
<path id="Vector_39" d="M84.1001 86.048C84.077 85.9157 84.077 85.7804 84.1001 85.648C84.168 84.8963 84.4913 84.1905 85.0161 83.648L85.0401 83.624V83.652C85.0686 83.7078 85.0901 83.7669 85.1041 83.828C85.1041 83.828 85.0601 83.776 85.0041 83.672H85.0401C84.7807 83.9786 84.569 84.3224 84.4121 84.692C84.2457 85.1274 84.1407 85.5837 84.1001 86.048Z" fill="#455A64"/>
<path id="Vector_40" d="M89.396 88.8C89.3453 88.6724 89.3169 88.5371 89.312 88.4C89.2772 88.0723 89.2852 87.7416 89.336 87.416C89.387 87.0908 89.4798 86.7735 89.612 86.472C89.6599 86.3449 89.7274 86.2262 89.812 86.12C89.6316 86.5416 89.4975 86.9815 89.412 87.432C89.358 87.8861 89.3527 88.3447 89.396 88.8Z" fill="#455A64"/>
<path id="Vector_41" d="M95.1681 88.336C95.1494 87.963 95.0986 87.5923 95.0161 87.228C94.9044 86.8695 94.7584 86.5225 94.5801 86.192C94.6603 86.2704 94.7277 86.3608 94.7801 86.46C94.9184 86.6926 95.0247 86.9429 95.0961 87.204C95.1652 87.4652 95.2014 87.7339 95.2041 88.004C95.2113 88.1159 95.1991 88.2283 95.1681 88.336Z" fill="#455A64"/>
<path id="Vector_42" d="M100.216 86.124C100.046 85.7685 99.8452 85.4286 99.616 85.108C99.3599 84.8088 99.0789 84.5318 98.776 84.28C98.8846 84.3243 98.9858 84.385 99.076 84.46C99.3019 84.6322 99.5048 84.8325 99.68 85.056C99.8542 85.2809 99.9994 85.5268 100.112 85.788C100.164 85.8937 100.2 86.0072 100.216 86.124Z" fill="#455A64"/>
<path id="Vector_43" d="M103.692 82.696C103.564 82.2753 103.325 81.8968 103 81.6C102.663 81.3192 102.254 81.1378 101.82 81.076C101.82 81.076 101.86 81.076 101.928 81.076C102.024 81.0792 102.119 81.0913 102.212 81.112C102.524 81.1863 102.813 81.3344 103.056 81.544C103.299 81.7525 103.488 82.0176 103.604 82.316C103.642 82.4044 103.669 82.4971 103.684 82.592C103.691 82.6262 103.694 82.6611 103.692 82.696Z" fill="#455A64"/>
<path id="Vector_44" d="M105.552 76.364C105.244 76.118 104.885 75.9456 104.5 75.86C104.11 75.8003 103.711 75.8331 103.336 75.956C103.697 75.7672 104.111 75.704 104.513 75.7764C104.914 75.8488 105.28 76.0527 105.552 76.356V76.364Z" fill="#455A64"/>
<path id="Vector_45" d="M80.6281 81.78C80.6358 81.6613 80.6642 81.5449 80.712 81.436C80.925 80.9 81.328 80.4614 81.844 80.204C81.9486 80.1472 82.0623 80.1093 82.18 80.092C81.8176 80.2489 81.4921 80.4803 81.2247 80.7711C80.9574 81.0619 80.7541 81.4056 80.6281 81.78Z" fill="#455A64"/>
<path id="Vector_46" d="M79.364 77.564C79.4122 77.4468 79.4798 77.3386 79.564 77.244C79.7513 76.9999 79.9769 76.7879 80.232 76.616C80.4871 76.4407 80.7678 76.3058 81.064 76.216C81.1836 76.1741 81.3093 76.1525 81.436 76.152C80.6045 76.3656 79.8724 76.8602 79.364 77.552V77.564Z" fill="#455A64"/>
<path id="Vector_47" d="M69.4201 102.148C69.4201 102.148 69.4201 102.124 69.3961 102.148C69.3792 102.189 69.3671 102.232 69.36 102.276C69.34 102.4 69.3201 102.58 69.2961 102.816C69.2481 103.284 69.1961 103.964 69.1401 104.816C69.0241 106.5 68.892 108.816 68.768 111.404C68.644 113.992 68.548 116.308 68.492 117.996C68.464 118.796 68.4441 119.492 68.4281 119.996C68.4281 120.212 68.428 120.396 68.404 120.54C68.41 120.602 68.41 120.665 68.404 120.728C68.3863 120.667 68.3795 120.603 68.3841 120.54C68.3841 120.392 68.3841 120.212 68.3841 119.996C68.3841 119.524 68.3841 118.84 68.3841 117.996C68.3841 116.308 68.4721 113.972 68.6001 111.396C68.7281 108.82 68.8801 106.492 69.0321 104.808C69.1081 103.964 69.1841 103.284 69.2561 102.808C69.2921 102.576 69.328 102.408 69.36 102.272C69.3711 102.224 69.39 102.178 69.416 102.136C69.416 102.1 69.4281 102.156 69.4201 102.148Z" fill="#263238"/>
<path id="Vector_48" d="M113.492 21.352C110.156 20.332 106.692 23.32 103.252 22.648C101.172 22.248 99.604 20.58 97.752 19.548C94.988 18.004 91.076 17.752 88.252 19.188C85.428 20.624 83.6 22.152 83.22 25.3C80.648 23.824 76.36 27.06 74.9 30.184C73.44 33.308 73.804 36.532 74.632 39.88C76.0706 45.6544 78.6282 51.0904 82.16 55.88C82.472 56.304 82.96 56.772 83.444 56.548C83.5932 56.4435 83.7158 56.3055 83.8019 56.145C83.8881 55.9845 83.9354 55.8061 83.94 55.624C84.432 52.564 84.044 49.44 83.776 46.352C83.508 43.264 83.376 40.08 84.356 37.152C85.336 34.224 87.636 31.528 90.676 30.928C92.924 30.484 95.256 31.212 97.252 32.336C99.248 33.46 101.004 34.956 102.904 36.232C104.804 37.508 106.94 38.584 109.228 38.68C111.516 38.776 113.972 37.704 114.944 35.632C115.916 33.56 114.828 30.616 112.588 30.14C113.631 30.0486 114.61 29.5966 115.356 28.8618C116.102 28.1269 116.568 27.1551 116.675 26.1134C116.782 25.0718 116.523 24.0254 115.942 23.1543C115.361 22.2831 114.495 21.6416 113.492 21.34V21.352Z" fill="#263238"/>
<path id="Vector_49" d="M103.2 75.012L102.876 68.4C102.876 68.4 111.604 66.728 111.408 57.948C111.312 53.712 110.4 44.996 109.488 37.12C109.018 33.0326 107.025 29.2724 103.906 26.5889C100.787 23.9053 96.7719 22.4953 92.6601 22.64L91.8121 22.668C82.7041 23.524 78.3361 31.74 79.4441 40.824L81.5441 76.184C81.7133 79.0436 83.0072 81.72 85.1431 83.6289C87.279 85.5377 90.0835 86.5239 92.9441 86.372C95.8081 86.2189 98.4949 84.9378 100.417 82.8089C102.339 80.6801 103.34 77.8767 103.2 75.012Z" fill="#FFBE9D"/>
<path id="Vector_50" d="M102.888 68.4C102.888 68.4 97.356 69.044 91.332 65.548C91.332 65.548 94.26 71.772 102.988 70.672L102.888 68.4Z" fill="#EB996E"/>
<path id="Vector_51" d="M106.532 43.06C106.545 43.386 106.431 43.7043 106.214 43.9477C105.997 44.1911 105.693 44.3404 105.368 44.364C105.209 44.3823 105.048 44.3685 104.894 44.3236C104.741 44.2787 104.598 44.2036 104.474 44.1026C104.35 44.0016 104.247 43.8768 104.172 43.7355C104.097 43.5942 104.05 43.4394 104.036 43.28C104.021 42.9537 104.133 42.6344 104.35 42.39C104.567 42.1456 104.87 41.9956 105.196 41.972C105.356 41.9532 105.517 41.9666 105.672 42.0115C105.826 42.0564 105.97 42.1318 106.094 42.2333C106.219 42.3347 106.322 42.4602 106.397 42.6022C106.472 42.7442 106.518 42.8999 106.532 43.06Z" fill="#263238"/>
<path id="Vector_52" d="M107.752 41.464C107.6 41.632 106.628 40.964 105.28 41.016C103.932 41.068 102.968 41.776 102.816 41.616C102.74 41.544 102.888 41.244 103.308 40.916C103.876 40.4908 104.562 40.2519 105.272 40.232C105.974 40.2043 106.666 40.402 107.248 40.796C107.676 41.096 107.824 41.388 107.752 41.464Z" fill="#263238"/>
<path id="Vector_53" d="M93.2841 44C93.2985 44.3266 93.1849 44.646 92.9676 44.8902C92.7502 45.1345 92.4462 45.2843 92.1201 45.308C91.9611 45.3262 91.8001 45.3125 91.6465 45.2676C91.4929 45.2227 91.3499 45.1475 91.2257 45.0465C91.1016 44.9455 90.999 44.8207 90.9238 44.6795C90.8487 44.5382 90.8025 44.3833 90.7881 44.224C90.7737 43.8973 90.8872 43.578 91.1046 43.3337C91.322 43.0895 91.626 42.9396 91.9521 42.916C92.1111 42.8977 92.2721 42.9114 92.4257 42.9563C92.5792 43.0012 92.7223 43.0764 92.8464 43.1774C92.9705 43.2784 93.0732 43.4032 93.1483 43.5445C93.2235 43.6857 93.2697 43.8406 93.2841 44Z" fill="#263238"/>
<path id="Vector_54" d="M94.5041 42.18C94.3561 42.348 93.3801 41.68 92.0321 41.732C90.6841 41.784 89.7201 42.492 89.5681 42.332C89.4921 42.26 89.6401 41.96 90.0601 41.632C90.63 41.2067 91.3173 40.9679 92.0281 40.948C92.7288 40.9206 93.4198 41.1183 94.0001 41.512C94.4281 41.816 94.5801 42.104 94.5041 42.18Z" fill="#263238"/>
<path id="Vector_55" d="M99.748 52C99.748 51.92 100.572 51.748 101.924 51.528C102.268 51.48 102.592 51.4 102.644 51.16C102.658 50.8034 102.565 50.4507 102.376 50.148C102.024 49.328 101.656 48.464 101.268 47.564C99.72 43.88 98.588 40.844 98.74 40.764C98.892 40.684 100.26 43.64 101.804 47.324C102.18 48.2306 102.536 49.0986 102.872 49.928C103.103 50.3355 103.184 50.8111 103.1 51.272C103.054 51.3951 102.981 51.5062 102.886 51.597C102.791 51.6877 102.677 51.7558 102.552 51.796C102.362 51.8544 102.166 51.8881 101.968 51.896C100.604 52.052 99.756 52.088 99.748 52Z" fill="#263238"/>
<path id="Vector_56" d="M95.8121 53.084C96.0321 53.06 96.0881 54.524 97.3761 55.52C98.6641 56.516 100.216 56.3 100.236 56.504C100.26 56.596 99.9001 56.8 99.2401 56.84C98.378 56.8881 97.527 56.6271 96.8401 56.104C96.1904 55.6021 95.7603 54.8681 95.6401 54.056C95.5641 53.444 95.7121 53.076 95.8121 53.084Z" fill="#263238"/>
<path id="Vector_57" d="M94.4 35.268C94.28 35.636 92.928 35.512 91.352 35.756C89.776 36 88.512 36.48 88.292 36.156C88.192 36 88.4 35.648 88.904 35.276C89.5768 34.8151 90.3462 34.5143 91.1532 34.3964C91.9602 34.2786 92.7834 34.3468 93.56 34.596C94.144 34.8 94.448 35.092 94.4 35.268Z" fill="#263238"/>
<path id="Vector_58" d="M107.12 37.6C106.892 37.912 105.952 37.628 104.836 37.652C103.72 37.676 102.78 37.932 102.548 37.616C102.448 37.464 102.588 37.152 102.992 36.848C103.529 36.4716 104.172 36.2743 104.828 36.284C105.481 36.2609 106.126 36.4412 106.672 36.8C107.076 37.116 107.22 37.424 107.12 37.6Z" fill="#263238"/>
<path id="Vector_59" d="M80.4 47.296C80.248 47.236 74.308 45.724 74.708 51.696C75.108 57.668 81.044 56.048 81.044 55.876C81.044 55.704 80.4 47.296 80.4 47.296Z" fill="#FFBE9D"/>
<path id="Vector_60" d="M79.0481 53.748C79.0201 53.748 78.9481 53.828 78.7761 53.92C78.5381 54.048 78.2592 54.0768 78.0001 54C77.3481 53.808 76.7481 52.84 76.6481 51.76C76.5983 51.248 76.6639 50.7313 76.8401 50.248C76.8827 50.0563 76.9718 49.878 77.0994 49.7288C77.227 49.5795 77.3893 49.4639 77.5721 49.392C77.6899 49.3519 77.818 49.3543 77.9342 49.3989C78.0504 49.4434 78.1473 49.5274 78.2081 49.636C78.3001 49.8 78.2681 49.92 78.3001 49.928C78.3321 49.936 78.4241 49.82 78.3561 49.576C78.3124 49.4301 78.2208 49.3033 78.0961 49.216C77.9219 49.104 77.7112 49.0638 77.5081 49.104C77.2653 49.1685 77.0433 49.2944 76.8632 49.4695C76.6832 49.6446 76.5512 49.8631 76.4801 50.104C76.2607 50.6407 76.1755 51.2229 76.2321 51.8C76.3521 53 77.0321 54.092 77.9281 54.284C78.0918 54.3204 78.2617 54.3195 78.4251 54.2814C78.5885 54.2433 78.7412 54.169 78.8721 54.064C79.0481 53.896 79.0681 53.76 79.0481 53.748Z" fill="#EB996E"/>
<path id="Vector_61" d="M111.28 35.2C109.354 35.7668 107.321 35.8684 105.348 35.4963C103.376 35.1243 101.519 34.2893 99.932 33.06C97.732 31.324 95.996 28.78 93.292 28.048C92.3707 27.8375 91.4168 27.8122 90.4857 27.9736C89.5545 28.1349 88.6647 28.4798 87.868 28.988C86.2779 30.0123 84.9162 31.3535 83.868 32.928C85.72 37.328 84.756 42.348 83.764 47.016C83.7094 47.546 83.48 48.0427 83.112 48.428C82.424 48.996 81.344 48.608 80.712 47.984C79.684 46.98 79.248 45.528 78.948 44.128C78.205 40.937 78.1057 37.6298 78.656 34.4C79.2191 31.1592 80.7212 28.1549 82.976 25.76C85.9118 22.848 89.8653 21.1926 94 21.144C98.1132 21.1266 102.127 22.4059 105.472 24.8C107.024 25.888 108.464 27.2 109.304 28.916" fill="#263238"/>
<path id="Vector_62" d="M116.084 23.38C116.109 23.5553 116.097 23.7339 116.048 23.904C115.921 24.3991 115.641 24.8416 115.248 25.168C114.617 25.6724 113.843 25.9637 113.036 26C112.54 26.0439 112.041 26.0305 111.548 25.96C110.982 25.8838 110.447 25.6557 110 25.3C109.749 25.1011 109.546 24.8475 109.407 24.5585C109.269 24.2694 109.198 23.9526 109.2 23.632C109.232 23.2831 109.361 22.9502 109.573 22.6714C109.786 22.3927 110.072 22.1794 110.4 22.056C110.74 21.9147 111.109 21.8545 111.476 21.88C111.858 21.918 112.221 22.0667 112.52 22.308C112.821 22.5621 113.063 22.878 113.23 23.2342C113.397 23.5905 113.485 23.9786 113.488 24.372C113.503 25.2022 113.191 26.005 112.62 26.608C112.037 27.2248 111.302 27.6761 110.488 27.916C108.84 28.432 107 28.184 105.344 27.54C103.737 26.8794 102.213 26.0352 100.8 25.024C99.4984 24.1009 98.1216 23.2887 96.6841 22.596C95.3886 21.9776 93.9625 21.6826 92.5281 21.736C91.2843 21.8266 90.0757 22.1898 88.9881 22.8C87.4023 23.7029 86.0747 24.9975 85.1321 26.56C84.8651 26.9745 84.6208 27.4032 84.4001 27.844C84.3322 28.0039 84.2534 28.159 84.1641 28.308C84.1713 28.2637 84.1848 28.2206 84.2041 28.18C84.2321 28.1 84.2761 27.976 84.3441 27.82C84.5379 27.3594 84.7638 26.913 85.0201 26.484C85.9372 24.8723 87.2649 23.5322 88.8681 22.6C89.9853 21.9645 91.2301 21.586 92.5121 21.492C93.9894 21.423 95.4613 21.7155 96.8001 22.344C98.259 23.0431 99.656 23.8647 100.976 24.8C102.369 25.7944 103.871 26.6277 105.452 27.284C107.072 27.908 108.84 28.148 110.408 27.66C111.171 27.4215 111.858 26.987 112.4 26.4C112.916 25.8626 113.203 25.1453 113.2 24.4C113.2 24.0454 113.124 23.6949 112.976 23.3725C112.828 23.0501 112.613 22.7634 112.344 22.532C112.084 22.3265 111.773 22.1966 111.444 22.1564C111.115 22.1161 110.782 22.1672 110.48 22.304C110.19 22.4059 109.934 22.5875 109.742 22.828C109.551 23.0686 109.431 23.3583 109.396 23.664C109.396 23.951 109.46 24.2344 109.584 24.4933C109.708 24.7522 109.888 24.98 110.112 25.16C110.531 25.494 111.03 25.7107 111.56 25.788C112.039 25.8628 112.525 25.8829 113.008 25.848C113.802 25.8306 114.569 25.5617 115.2 25.08C115.58 24.7681 115.858 24.3504 116 23.88C116.039 23.7153 116.067 23.5483 116.084 23.38Z" fill="#455A64"/>
<path id="Vector_63" d="M74 35.388C74.6023 35.5781 75.221 35.712 75.848 35.788C76.5265 35.8245 77.2056 35.7295 77.848 35.508C78.6372 35.2278 79.3822 34.8359 80.06 34.344C81.2847 33.4301 82.179 32.1427 82.608 30.676C82.7581 30.0596 82.869 29.4344 82.94 28.804C82.9835 28.9737 82.9997 29.1492 82.988 29.324C82.9866 29.799 82.9261 30.272 82.808 30.732C82.4248 32.2782 81.5137 33.6421 80.232 34.588C79.5313 35.1035 78.7556 35.5082 77.932 35.788C77.2532 36.0114 76.5349 36.0891 75.824 36.016C75.3497 35.9616 74.8861 35.8376 74.448 35.648C74.2845 35.5885 74.1328 35.5005 74 35.388Z" fill="#455A64"/>
<path id="Vector_64" d="M74.4241 39.72C74.4241 39.664 75.1361 39.796 76.2681 39.692C77.7394 39.5666 79.1501 39.0483 80.3526 38.1912C81.5552 37.3342 82.5054 36.1699 83.1041 34.82C83.5721 33.784 83.6761 33.076 83.7321 33.088C83.743 33.2561 83.7268 33.425 83.6841 33.588C83.5962 34.0379 83.4621 34.4775 83.2841 34.9C82.7204 36.3186 81.7602 37.5449 80.5181 38.4322C79.2761 39.3196 77.8048 39.8306 76.2801 39.904C75.8231 39.9276 75.3649 39.9061 74.9121 39.84C74.7441 39.8259 74.5794 39.7854 74.4241 39.72Z" fill="#455A64"/>
<path id="Vector_65" d="M90.224 48.072C90.204 48.0761 90.1834 48.076 90.1635 48.0719C90.1435 48.0678 90.1245 48.0598 90.1077 48.0482C90.0909 48.0366 90.0766 48.0218 90.0657 48.0046C90.0548 47.9874 90.0474 47.9681 90.044 47.948C90.0373 47.9286 90.0347 47.908 90.0364 47.8876C90.0381 47.8671 90.044 47.8472 90.0538 47.8291C90.0635 47.8111 90.077 47.7952 90.0932 47.7827C90.1094 47.7701 90.1281 47.761 90.148 47.756C90.1875 47.752 90.2271 47.7625 90.2594 47.7854C90.2918 47.8084 90.3147 47.8423 90.324 47.8808C90.3333 47.9194 90.3283 47.96 90.3099 47.9952C90.2915 48.0303 90.261 48.0576 90.224 48.072Z" fill="#EB996E"/>
<path id="Vector_66" d="M92.8001 47.396C92.7569 47.3957 92.715 47.3809 92.6813 47.3539C92.6476 47.3268 92.624 47.2893 92.6143 47.2472C92.6046 47.2051 92.6093 47.161 92.6278 47.1219C92.6463 47.0829 92.6774 47.0512 92.7161 47.032C92.7603 47.0284 92.8042 47.0417 92.8391 47.0691C92.8739 47.0966 92.8971 47.1362 92.9041 47.18C92.9182 47.2225 92.9153 47.2688 92.8959 47.3091C92.8765 47.3494 92.8421 47.3806 92.8001 47.396Z" fill="#EB996E"/>
<path id="Vector_67" d="M94.516 47.292C94.432 47.292 94.352 47.208 94.328 47.076C94.304 46.944 94.356 46.824 94.436 46.812C94.516 46.8 94.6 46.896 94.624 47.028C94.648 47.16 94.596 47.28 94.516 47.292Z" fill="#EB996E"/>
<path id="Vector_68" d="M91.548 49.644C91.468 49.644 91.396 49.608 91.396 49.556C91.396 49.504 91.46 49.456 91.54 49.456C91.62 49.456 91.692 49.492 91.692 49.544C91.692 49.596 91.632 49.64 91.548 49.644Z" fill="#EB996E"/>
<path id="Vector_69" d="M93.892 49.012C93.8502 49.0142 93.8092 49 93.7778 48.9723C93.7464 48.9446 93.7271 48.9058 93.724 48.864C93.72 48.8433 93.7201 48.8219 93.7243 48.8012C93.7286 48.7805 93.7369 48.7608 93.7488 48.7433C93.7607 48.7258 93.776 48.7109 93.7937 48.6993C93.8114 48.6878 93.8312 48.6799 93.852 48.676C93.8942 48.6749 93.9352 48.69 93.9665 48.7184C93.9978 48.7467 94.017 48.7859 94.02 48.828C94.0271 48.8693 94.0176 48.9118 93.9936 48.9462C93.9697 48.9806 93.9332 49.0042 93.892 49.012Z" fill="#EB996E"/>
<path id="Vector_70" d="M106.14 47.112C106.119 47.116 106.098 47.1159 106.078 47.1116C106.057 47.1073 106.038 47.0989 106.021 47.087C106.004 47.075 105.989 47.0598 105.978 47.0421C105.967 47.0244 105.959 47.0046 105.956 46.984C105.949 46.9643 105.947 46.9435 105.948 46.9228C105.95 46.902 105.956 46.8818 105.965 46.8635C105.975 46.8451 105.989 46.8289 106.005 46.8159C106.021 46.803 106.04 46.7935 106.06 46.788C106.101 46.7828 106.142 46.7929 106.176 46.8162C106.21 46.8395 106.234 46.8744 106.244 46.9144C106.254 46.9544 106.249 46.9966 106.23 47.033C106.21 47.0695 106.179 47.0976 106.14 47.112Z" fill="#EB996E"/>
<path id="Vector_71" d="M107.888 46.892C107.844 46.8882 107.803 46.8696 107.772 46.8393C107.74 46.8089 107.72 46.7687 107.714 46.7253C107.709 46.6819 107.718 46.6379 107.741 46.6005C107.764 46.5632 107.799 46.5348 107.84 46.52C107.92 46.52 107.996 46.584 108.012 46.684C108.022 46.728 108.015 46.774 107.992 46.8127C107.968 46.8514 107.931 46.8798 107.888 46.892Z" fill="#EB996E"/>
<path id="Vector_72" d="M104.588 47.2C104.563 47.2025 104.537 47.1976 104.515 47.1859C104.492 47.1743 104.473 47.1564 104.461 47.1343C104.448 47.1122 104.442 47.087 104.443 47.0616C104.445 47.0362 104.453 47.0118 104.468 46.9912C104.483 46.9706 104.504 46.9547 104.527 46.9456C104.551 46.9364 104.577 46.9342 104.602 46.9394C104.627 46.9446 104.65 46.9568 104.668 46.9746C104.686 46.9925 104.698 47.0152 104.704 47.04C104.709 47.0765 104.699 47.1133 104.678 47.1431C104.656 47.1728 104.624 47.1932 104.588 47.2Z" fill="#EB996E"/>
<path id="Vector_73" d="M105.952 48.924C105.912 48.9375 105.869 48.9356 105.83 48.9186C105.792 48.9015 105.761 48.8706 105.744 48.832C105.733 48.8137 105.726 48.7934 105.724 48.7723C105.721 48.7513 105.722 48.7299 105.728 48.7094C105.734 48.689 105.743 48.6698 105.756 48.6531C105.769 48.6364 105.785 48.6224 105.804 48.612C105.844 48.602 105.885 48.606 105.922 48.6234C105.959 48.6408 105.989 48.6704 106.006 48.7072C106.024 48.744 106.028 48.7858 106.018 48.8253C106.008 48.8648 105.985 48.8997 105.952 48.924Z" fill="#EB996E"/>
<path id="Vector_74" d="M107.44 48.568C107.422 48.5656 107.405 48.5596 107.389 48.5504C107.374 48.5412 107.36 48.5289 107.349 48.5144C107.338 48.4999 107.331 48.4833 107.326 48.4658C107.322 48.4482 107.321 48.4299 107.324 48.412C107.337 48.3779 107.362 48.35 107.395 48.3343C107.428 48.3186 107.466 48.3164 107.5 48.328C107.536 48.333 107.568 48.3517 107.589 48.3802C107.611 48.4086 107.621 48.4445 107.616 48.48C107.604 48.5149 107.579 48.5437 107.546 48.5602C107.513 48.5766 107.475 48.5794 107.44 48.568Z" fill="#EB996E"/>
<path id="Vector_75" d="M104.472 148.256L104.376 139.364C104.376 139.364 98.4441 131.144 100.776 122.228C100.776 122.228 104.644 119.508 115.016 121.1C115.016 121.1 128.036 108.416 145.488 111.644C162.94 114.872 164.564 130.076 164.732 134.216C164.9 138.356 164.86 146.396 158.852 154.256L158.452 162.056C158.452 162.056 157.02 164.992 152.88 164.792C148.74 164.592 148.972 163.992 148.972 163.992C148.972 163.992 143.772 168.188 143.548 169.284C143.324 170.38 142.508 174.536 142.508 174.536C142.508 174.536 140.704 176.988 136.812 177.276C135.273 177.385 133.733 177.07 132.36 176.364C131.839 176.1 131.376 175.736 130.998 175.291C130.62 174.847 130.333 174.332 130.156 173.776C129.784 172.545 129.156 171.406 128.313 170.435C127.47 169.463 126.431 168.681 125.264 168.14L122.576 167.436C122.576 167.436 121.492 168.424 117.72 168.828C113.948 169.232 113.932 167.896 113.932 167.896C113.932 167.896 108.064 169.252 103.656 163.496C100.176 158.944 98.2841 150.756 104.472 148.256Z" fill="#2B29A4"/>
<path id="Vector_76" d="M140.648 148.768C140.707 148.673 140.772 148.582 140.844 148.496C140.976 148.32 141.172 148.064 141.416 147.728C141.908 147.06 142.596 146.072 143.356 144.796C144.241 143.3 145.008 141.738 145.652 140.124C146.016 139.212 146.356 138.24 146.656 137.22C146.956 136.2 147.208 135.096 146.944 134.02C146.626 132.977 145.945 132.083 145.024 131.5C144.175 130.931 143.265 130.457 142.312 130.088C140.698 129.451 139 129.047 137.272 128.888C136.107 128.777 134.933 128.777 133.768 128.888C133.368 128.924 133.036 128.964 132.816 128.996C132.707 129.019 132.596 129.031 132.484 129.032C132.591 128.998 132.701 128.973 132.812 128.956C133.024 128.912 133.344 128.856 133.76 128.808C134.929 128.663 136.11 128.64 137.284 128.74C139.038 128.872 140.762 129.264 142.4 129.904C143.369 130.272 144.294 130.748 145.156 131.324C146.119 131.934 146.83 132.871 147.156 133.964C147.436 135.112 147.156 136.256 146.864 137.276C146.572 138.296 146.212 139.276 145.84 140.196C145.186 141.815 144.402 143.379 143.496 144.872C142.884 145.877 142.216 146.846 141.496 147.776C141.24 148.108 141.032 148.356 140.892 148.52C140.819 148.61 140.737 148.694 140.648 148.768Z" fill="#263238"/>
<path id="Vector_77" d="M116.248 121.488C116.278 121.552 116.299 121.621 116.308 121.692C116.347 121.896 116.356 122.105 116.336 122.312C116.235 123.077 115.883 123.788 115.336 124.332C114.684 125.052 113.692 125.64 112.724 126.432C111.664 127.285 110.685 128.234 109.8 129.268C108.189 131.147 106.89 133.273 105.952 135.564C105.592 136.444 105.356 137.164 105.196 137.684C105.128 137.92 105.068 138.116 105.02 138.272C105.004 138.341 104.98 138.408 104.948 138.472C104.949 138.4 104.959 138.329 104.98 138.26C105.02 138.1 105.064 137.904 105.12 137.66C105.31 136.931 105.543 136.214 105.816 135.512C106.72 133.183 108.014 131.025 109.644 129.132C110.537 128.09 111.528 127.136 112.604 126.284C113.592 125.484 114.584 124.92 115.232 124.232C115.769 123.714 116.128 123.039 116.256 122.304C116.283 122.032 116.28 121.759 116.248 121.488Z" fill="#263238"/>
<g id="Group_2" opacity="0.5">
<path id="Vector_78" d="M123.224 122.576L128.532 123.932C128.532 123.932 136.304 115.2 144.84 112.988L141.64 112.232C134.625 113.814 128.225 117.409 123.224 122.576Z" fill="black"/>
</g>
<path id="Vector_79" d="M143.108 112.568C136.128 114.137 129.777 117.759 124.872 122.968L123.224 122.568C123.224 122.568 130.752 114.308 141.644 112.224L143.108 112.568Z" fill="#2B29A4"/>
<g id="Group_3" opacity="0.7">
<path id="Vector_80" d="M143.108 112.568C136.128 114.137 129.777 117.759 124.872 122.968L123.224 122.568C123.224 122.568 130.752 114.308 141.644 112.224L143.108 112.568Z" fill="black"/>
</g>
<path id="Vector_81" d="M101.908 150.068C104.848 145.86 112.224 147.148 115.588 150.932C118.952 154.716 120.444 159.924 118.256 164.412C117.32 166.328 115.528 168.012 113.396 167.972C114.46 166.779 115.222 165.348 115.619 163.799C116.015 162.251 116.035 160.63 115.676 159.072C114.992 155.932 113.012 153.16 110.508 151.144C109.24 150.12 107.812 148.996 106.188 148.836C104.564 148.676 103.264 148.628 101.908 150.068Z" fill="#2B29A4"/>
<g id="Group_4" opacity="0.3">
<path id="Vector_82" d="M101.908 150.068C104.848 145.86 112.224 147.148 115.588 150.932C118.952 154.716 120.444 159.924 118.256 164.412C117.32 166.328 115.528 168.012 113.396 167.972C114.46 166.779 115.222 165.348 115.619 163.799C116.015 162.251 116.035 160.63 115.676 159.072C114.992 155.932 113.012 153.16 110.508 151.144C109.24 150.12 107.812 148.996 106.188 148.836C104.564 148.676 103.264 148.628 101.908 150.068Z" fill="black"/>
</g>
<g id="Group_5" opacity="0.3">
<path id="Vector_83" d="M140.944 148.52C140.888 149.412 141.704 150.2 142.588 150.304C143.034 150.331 143.481 150.251 143.89 150.072C144.3 149.892 144.661 149.618 144.944 149.272C145.501 148.573 145.909 147.767 146.144 146.904C147.064 144.02 147.54 139.704 147.056 136.732C145.784 140.6 143.512 145.424 140.876 148.528" fill="black"/>
</g>
<g id="Group_6" opacity="0.3">
<path id="Vector_84" d="M143.732 135.22C143.16 133.528 141.408 132.54 139.732 131.956C138.013 131.356 136.218 131.003 134.4 130.908C133.828 130.846 133.249 130.901 132.7 131.072C132.427 131.161 132.182 131.318 131.987 131.527C131.791 131.737 131.653 131.994 131.584 132.272C131.548 132.5 131.583 132.734 131.685 132.942C131.786 133.149 131.95 133.32 132.152 133.432C135.051 136.787 137.213 140.713 138.5 144.956C138.555 145.143 138.659 145.311 138.801 145.443C138.943 145.576 139.119 145.667 139.309 145.708C139.499 145.749 139.697 145.738 139.881 145.676C140.065 145.614 140.229 145.504 140.356 145.356C141.716 143.804 142.5 141.712 143.204 139.728C143.708 138.272 144.228 136.68 143.732 135.22Z" fill="black"/>
</g>
<g id="Group_7" opacity="0.3">
<path id="Vector_85" d="M105.488 136C103.67 133.171 102.734 129.866 102.8 126.504C102.8 125.796 102.904 125.028 103.396 124.524C103.992 123.912 104.96 123.9 105.796 123.956C108.153 124.103 110.494 124.432 112.8 124.94C112.98 124.98 113.2 125.04 113.256 125.212C113.319 125.344 113.338 125.494 113.31 125.638C113.282 125.782 113.208 125.913 113.1 126.012C109.52 128.208 106.98 132.248 105.628 136.2" fill="black"/>
</g>
<path id="Vector_86" d="M101.028 122.544C101.036 122.746 101.026 122.948 101 123.148C100.968 123.548 100.932 124.096 100.908 124.788C100.787 127.587 101.138 130.386 101.948 133.068C102.22 133.944 102.504 134.716 102.776 135.356C103.048 135.996 103.284 136.504 103.456 136.848C103.557 137.023 103.641 137.208 103.704 137.4C103.583 137.239 103.476 137.067 103.384 136.888C103.188 136.552 102.932 136.048 102.644 135.412C102.306 134.669 102.012 133.906 101.764 133.128C101.468 132.171 101.23 131.198 101.052 130.212C100.75 128.425 100.652 126.609 100.76 124.8C100.804 124.108 100.86 123.544 100.92 123.16C100.936 122.952 100.972 122.745 101.028 122.544Z" fill="#FAFAFA"/>
<path id="Vector_87" d="M141.332 111.944C141.266 111.977 141.196 112.003 141.124 112.02L140.524 112.196C140.26 112.268 139.94 112.356 139.572 112.476C139.204 112.596 138.772 112.712 138.328 112.876C137.404 113.184 136.328 113.596 135.148 114.1C133.968 114.604 132.7 115.228 131.408 115.948C130.116 116.668 128.932 117.44 127.88 118.172C126.828 118.904 125.92 119.624 125.18 120.252C124.8 120.552 124.476 120.852 124.184 121.104C123.892 121.356 123.648 121.58 123.452 121.768L122.988 122.188C122.88 122.284 122.82 122.332 122.816 122.324C122.858 122.264 122.906 122.209 122.96 122.16L123.396 121.708C123.584 121.512 123.82 121.28 124.108 121.02C124.396 120.76 124.708 120.452 125.084 120.14C125.816 119.496 126.724 118.772 127.768 118.016C128.909 117.208 130.091 116.457 131.308 115.768C132.53 115.09 133.787 114.474 135.072 113.924C136.272 113.428 137.352 113.028 138.272 112.724C138.736 112.568 139.16 112.46 139.532 112.352C139.904 112.244 140.228 112.164 140.496 112.104L141.104 111.968C141.178 111.948 141.255 111.94 141.332 111.944Z" fill="#FAFAFA"/>
<path id="Vector_88" d="M146 133.08C145.968 133.116 145.364 132.5 144.204 131.76C143.524 131.33 142.809 130.957 142.068 130.644C141.163 130.265 140.226 129.969 139.268 129.76C137.517 129.376 135.717 129.266 133.932 129.436C132.564 129.576 131.736 129.804 131.724 129.76C131.913 129.689 132.107 129.633 132.304 129.592C132.83 129.456 133.364 129.356 133.904 129.292C135.706 129.074 137.532 129.163 139.304 129.556C140.277 129.77 141.228 130.075 142.144 130.468C142.892 130.793 143.608 131.185 144.284 131.64L144.684 131.916L145.032 132.192C145.221 132.332 145.401 132.486 145.568 132.652C145.723 132.783 145.868 132.926 146 133.08Z" fill="#FAFAFA"/>
<path id="Vector_89" d="M110.22 167.324C110.154 167.316 110.089 167.299 110.028 167.272C109.848 167.217 109.67 167.153 109.496 167.08C108.848 166.824 108.223 166.513 107.628 166.152C105.643 164.964 103.99 163.293 102.824 161.295C101.657 159.297 101.015 157.037 100.956 154.724C100.933 154.029 100.969 153.333 101.064 152.644C101.092 152.4 101.136 152.212 101.156 152.084C101.167 152.019 101.183 151.955 101.204 151.892C101.201 152.146 101.181 152.4 101.144 152.652C101.08 153.339 101.066 154.03 101.1 154.72C101.199 156.999 101.853 159.22 103.003 161.191C104.154 163.161 105.767 164.821 107.704 166.028C108.289 166.395 108.899 166.722 109.528 167.008C109.972 167.2 110.224 167.308 110.22 167.324Z" fill="#FAFAFA"/>
<g id="Group_8" opacity="0.2">
<path id="Vector_90" d="M111.268 158.084C110.957 157.978 110.622 157.965 110.303 158.047C109.985 158.128 109.698 158.301 109.476 158.544C109.26 158.791 109.102 159.084 109.014 159.4C108.926 159.717 108.91 160.049 108.968 160.372C109.028 160.998 109.297 161.586 109.732 162.04C110.093 162.389 110.555 162.615 111.052 162.684C111.362 162.677 111.665 162.585 111.927 162.418C112.188 162.251 112.399 162.015 112.536 161.736C112.708 161.416 112.812 161.064 112.841 160.701C112.87 160.339 112.824 159.975 112.704 159.631C112.585 159.288 112.396 158.973 112.149 158.707C111.901 158.441 111.602 158.228 111.268 158.084Z" fill="black"/>
</g>
<path id="Vector_91" d="M110.648 158C110.36 158.348 110.165 158.763 110.081 159.207C109.998 159.651 110.028 160.109 110.17 160.537C110.312 160.966 110.561 161.352 110.893 161.658C111.225 161.964 111.629 162.181 112.068 162.288C111.888 162.449 111.672 162.566 111.439 162.628C111.205 162.69 110.96 162.695 110.724 162.644C110.137 162.449 109.632 162.062 109.291 161.545C108.95 161.029 108.793 160.413 108.844 159.796C108.869 159.29 109.075 158.811 109.424 158.444C109.763 158.149 110.199 157.991 110.648 158Z" fill="#2B29A4"/>
<g id="Group_9" opacity="0.4">
<path id="Vector_92" d="M110.648 158C110.36 158.348 110.165 158.763 110.081 159.207C109.998 159.651 110.028 160.109 110.17 160.537C110.312 160.966 110.561 161.352 110.893 161.658C111.225 161.964 111.629 162.181 112.068 162.288C111.888 162.449 111.672 162.566 111.439 162.628C111.205 162.69 110.96 162.695 110.724 162.644C110.137 162.449 109.632 162.062 109.291 161.545C108.95 161.029 108.793 160.413 108.844 159.796C108.869 159.29 109.075 158.811 109.424 158.444C109.763 158.149 110.199 157.991 110.648 158Z" fill="black"/>
</g>
<g id="Group_10" opacity="0.2">
<path id="Vector_93" d="M105.372 155.808C105.071 155.708 104.748 155.697 104.442 155.776C104.135 155.856 103.858 156.022 103.644 156.256C103.435 156.494 103.282 156.777 103.197 157.082C103.112 157.387 103.097 157.708 103.152 158.02C103.218 158.62 103.478 159.181 103.892 159.62C104.241 159.956 104.688 160.173 105.168 160.24C105.467 160.234 105.758 160.145 106.01 159.984C106.262 159.824 106.465 159.596 106.596 159.328C106.762 159.019 106.862 158.679 106.889 158.329C106.917 157.979 106.872 157.627 106.757 157.296C106.642 156.964 106.459 156.66 106.221 156.403C105.983 156.145 105.694 155.94 105.372 155.8" fill="black"/>
</g>
<path id="Vector_94" d="M104.776 155.736C104.496 156.071 104.307 156.472 104.226 156.901C104.144 157.329 104.174 157.772 104.311 158.186C104.449 158.6 104.689 158.972 105.011 159.267C105.332 159.562 105.724 159.77 106.148 159.872C105.974 160.028 105.765 160.141 105.54 160.201C105.314 160.262 105.077 160.268 104.848 160.22C104.281 160.03 103.795 159.656 103.466 159.157C103.138 158.658 102.986 158.063 103.036 157.468C103.059 156.982 103.256 156.52 103.592 156.168C103.924 155.879 104.352 155.725 104.792 155.736" fill="#2B29A4"/>
<g id="Group_11" opacity="0.4">
<path id="Vector_95" d="M104.776 155.736C104.496 156.071 104.307 156.472 104.226 156.901C104.144 157.329 104.174 157.772 104.311 158.186C104.449 158.6 104.689 158.972 105.011 159.267C105.332 159.562 105.724 159.77 106.148 159.872C105.974 160.028 105.765 160.141 105.54 160.201C105.314 160.262 105.077 160.268 104.848 160.22C104.281 160.03 103.795 159.656 103.466 159.157C103.138 158.658 102.986 158.063 103.036 157.468C103.059 156.982 103.256 156.52 103.592 156.168C103.924 155.879 104.352 155.725 104.792 155.736" fill="black"/>
</g>
<path id="Vector_96" d="M120.548 144.8C120.548 144.8 120.588 144.8 120.604 144.772H120.632L120.548 144.8Z" fill="#263238"/>
<path id="Vector_97" d="M123.572 146.048C123.382 145.537 123.014 145.111 122.536 144.848C122.156 144.658 121.737 144.56 121.312 144.564H121.276C121.04 144.579 120.81 144.647 120.604 144.764C120.16 144.985 119.78 145.316 119.5 145.726C119.22 146.135 119.049 146.61 119.004 147.104C118.976 147.736 119.136 148.362 119.463 148.903C119.791 149.444 120.271 149.876 120.844 150.144C121.222 150.338 121.654 150.403 122.072 150.328C122.486 150.209 122.849 149.954 123.1 149.604C123.483 149.104 123.728 148.513 123.81 147.889C123.893 147.265 123.811 146.63 123.572 146.048Z" fill="#263238"/>
<path id="Vector_98" d="M108.184 140.908C108.201 140.898 108.218 140.89 108.236 140.884H108.26L108.184 140.908Z" fill="#263238"/>
<path id="Vector_99" d="M110.8 142C110.639 141.55 110.319 141.174 109.9 140.944C109.573 140.779 109.211 140.694 108.844 140.696H108.8C108.596 140.71 108.397 140.77 108.22 140.872C107.834 141.063 107.504 141.35 107.261 141.705C107.018 142.06 106.87 142.471 106.832 142.9C106.808 143.447 106.948 143.989 107.233 144.457C107.517 144.925 107.935 145.298 108.432 145.528C108.754 145.719 109.138 145.777 109.502 145.69C109.866 145.604 110.182 145.379 110.384 145.064C110.713 144.633 110.924 144.124 110.997 143.587C111.069 143.05 111.002 142.503 110.8 142Z" fill="#263238"/>
<path id="Vector_100" d="M111.6 148.684C111.684 148.689 111.768 148.705 111.848 148.732C112.084 148.792 112.316 148.864 112.544 148.948C113.386 149.256 114.178 149.686 114.896 150.224C115.97 151.018 116.884 152.009 117.588 153.144C118.442 154.538 119.011 156.088 119.26 157.704C119.515 159.317 119.496 160.961 119.204 162.568C118.992 163.898 118.418 165.143 117.544 166.168C116.943 166.847 116.164 167.344 115.296 167.604C114.983 167.707 114.653 167.752 114.324 167.736C114.645 167.692 114.962 167.623 115.272 167.528C116.111 167.243 116.858 166.739 117.436 166.068C118.271 165.056 118.817 163.837 119.016 162.54C119.296 160.953 119.308 159.331 119.052 157.74C118.808 156.151 118.255 154.625 117.424 153.248C116.739 152.127 115.852 151.142 114.808 150.344C114.105 149.806 113.334 149.362 112.516 149.024C111.944 148.8 111.6 148.704 111.6 148.684Z" fill="#263238"/>
<path id="Vector_101" d="M107.78 143.952C107.76 143.952 107.656 143.88 107.548 143.692C107.418 143.445 107.348 143.171 107.344 142.892C107.345 142.613 107.414 142.339 107.544 142.092C107.652 141.904 107.752 141.816 107.776 141.832C107.659 142.179 107.584 142.539 107.552 142.904C107.589 143.261 107.665 143.612 107.78 143.952Z" fill="#FAFAFA"/>
<path id="Vector_102" d="M119.84 148.372C119.816 148.372 119.716 148.28 119.628 148.068C119.52 147.786 119.491 147.481 119.544 147.184C119.589 146.888 119.717 146.611 119.912 146.384C120.064 146.208 120.192 146.144 120.208 146.164C120 146.491 119.844 146.849 119.748 147.224C119.714 147.609 119.745 147.997 119.84 148.372Z" fill="#FAFAFA"/>
<path id="Vector_103" d="M127.428 169.508C127.408 169.54 126.924 169.204 126.076 168.78C124.965 168.244 123.817 167.789 122.64 167.42C121.26 166.972 120.004 166.588 119.104 166.268C118.656 166.112 118.304 165.976 118.048 165.868C117.917 165.823 117.792 165.762 117.676 165.688C118.175 165.808 118.668 165.955 119.152 166.128C120.056 166.412 121.32 166.772 122.704 167.224C123.892 167.593 125.044 168.071 126.144 168.652C126.356 168.76 126.544 168.876 126.7 168.976C126.839 169.058 126.972 169.149 127.1 169.248C127.22 169.32 127.331 169.407 127.428 169.508Z" fill="#263238"/>
<path id="Vector_104" d="M155.808 156.624C155.701 156.822 155.578 157.01 155.44 157.188C155.2 157.544 154.82 158.044 154.336 158.644C153.049 160.192 151.65 161.643 150.152 162.988C148.404 164.588 146.776 165.944 145.624 166.968L144.264 168.168C144.106 168.326 143.934 168.47 143.752 168.6C143.89 168.425 144.043 168.262 144.208 168.112C144.512 167.804 144.964 167.372 145.528 166.844C146.656 165.792 148.268 164.4 150.008 162.82C151.499 161.48 152.905 160.049 154.22 158.536C154.72 157.952 155.116 157.468 155.376 157.128C155.507 156.949 155.651 156.781 155.808 156.624Z" fill="#263238"/>
<g id="Group_12" opacity="0.2">
<path id="Vector_105" d="M149.008 164.032C151.16 164.208 153.604 163.548 155.132 162.032C155.899 161.251 156.417 160.261 156.62 159.185C156.823 158.11 156.702 156.998 156.272 155.992C155.016 157.784 153.6 159.688 151.872 161.152C150.784 162.076 150.06 163.196 149.008 164.044" fill="black"/>
</g>
<g id="Group_13" opacity="0.5">
<path id="Vector_106" d="M141.344 113.724C144.144 117.844 149.884 119.148 152.66 123.276C153.736 124.876 154.26 126.764 154.78 128.62L161.18 151.712C161.444 146.708 160.24 141.756 159.04 136.888C157.861 132.088 156.679 127.288 155.492 122.488C155.296 121.414 154.906 120.385 154.34 119.452C153.708 118.544 152.768 117.908 151.852 117.292C148.564 115.084 145.18 112.836 141.324 111.956" fill="black"/>
</g>
<g id="Group_14" opacity="0.3">
<path id="Vector_107" d="M121.712 126.196C121.888 126.756 121.12 127.52 119.924 128.468C119.32 128.94 118.616 129.48 117.84 130.068C117.064 130.656 116.24 131.3 115.372 131.996C114.504 132.692 113.72 133.384 112.972 133.996C112.224 134.608 111.572 135.22 110.972 135.712C109.8 136.692 108.9 137.288 108.384 137C107.868 136.712 107.904 135.576 108.588 133.984C108.997 133.06 109.517 132.19 110.136 131.392C111.651 129.428 113.601 127.841 115.832 126.756C116.74 126.315 117.698 125.983 118.684 125.768C120.4 125.436 121.544 125.66 121.712 126.196Z" fill="white"/>
</g>
<path id="Vector_108" d="M111.012 157.764C110.718 157.87 110.414 157.944 110.104 157.984C109.809 158.086 109.505 158.157 109.196 158.196C109.432 157.973 109.734 157.833 110.056 157.796C110.364 157.685 110.698 157.674 111.012 157.764Z" fill="#FAFAFA"/>
<path id="Vector_109" d="M104.94 155.56C104.662 155.626 104.38 155.675 104.096 155.708C103.644 155.808 103.296 155.996 103.272 155.944C103.248 155.892 103.552 155.616 104.048 155.504C104.193 155.454 104.347 155.433 104.5 155.442C104.653 155.452 104.803 155.492 104.94 155.56Z" fill="#FAFAFA"/>
<path id="Vector_110" d="M131.868 174.16C131.812 174.188 131.28 173.292 130.54 172.24C129.8 171.188 129.14 170.384 129.184 170.344C129.775 170.861 130.289 171.459 130.712 172.12C131.19 172.743 131.579 173.43 131.868 174.16Z" fill="#FAFAFA"/>
<path id="Vector_111" d="M108.04 132.18C108.096 132.216 107.308 133.38 106.624 134.94C105.94 136.5 105.612 137.864 105.548 137.848C105.557 137.542 105.611 137.239 105.708 136.948C105.891 136.232 106.133 135.532 106.432 134.856C106.729 134.179 107.08 133.527 107.484 132.908C107.638 132.643 107.824 132.398 108.04 132.18Z" fill="#FAFAFA"/>
<path id="Vector_112" d="M127.432 124.436C126.662 124.361 125.906 124.176 125.188 123.888C124.447 123.662 123.741 123.337 123.088 122.92C123.116 122.864 124.06 123.272 125.256 123.688C126.452 124.104 127.448 124.376 127.432 124.436Z" fill="#FAFAFA"/>
<path id="Vector_113" d="M158.632 117.952C157.697 119.229 156.322 120.114 154.772 120.436C155.474 120.121 156.159 119.77 156.824 119.384C157.45 118.938 158.054 118.46 158.632 117.952Z" fill="#EB996E"/>
<path id="Vector_114" d="M170.348 115.276C168.196 110.316 146.7 92.708 146.7 92.708L134.58 108.444C134.756 108.208 154.352 120.144 154.352 120.144L160.132 146.496L161.128 151.2C161.128 151.2 158.528 153.468 158.636 155.86C158.704 157.46 155.036 160.904 155.036 160.904C154.164 160.18 153.604 159.976 153.164 160.06L149.264 163.712L150.192 164.56C151.227 165.504 152.588 166.008 153.988 165.964L160.656 165.76C161.607 165.732 162.51 165.335 163.172 164.652C165.224 162.544 169.552 157.828 169.636 155.556C169.688 154.284 169.696 153.072 169.692 152.096C169.672 152.084 172.496 120.236 170.348 115.276Z" fill="#FFBE9D"/>
<path id="Vector_115" d="M163.964 157.416C163.854 157.516 163.728 157.597 163.592 157.656C163.348 157.792 162.972 157.952 162.536 158.192C162.034 158.482 161.59 158.863 161.228 159.316C160.77 159.887 160.231 160.389 159.628 160.804C158.513 161.546 157.19 161.911 155.852 161.844C155.617 161.844 155.385 161.803 155.164 161.724C155.075 161.693 154.997 161.636 154.94 161.56C154.883 161.485 154.85 161.394 154.844 161.3C154.84 161.241 154.851 161.182 154.876 161.129C154.9 161.075 154.937 161.028 154.984 160.992C155.052 160.952 155.096 160.96 155.096 160.964C155.096 160.968 155.06 160.964 155.008 161.024C154.973 161.059 154.948 161.103 154.933 161.15C154.919 161.197 154.915 161.247 154.924 161.296C154.935 161.371 154.968 161.442 155.019 161.5C155.069 161.557 155.135 161.599 155.208 161.62C155.418 161.683 155.637 161.71 155.856 161.7C157.156 161.725 158.432 161.354 159.516 160.636C160.103 160.232 160.629 159.747 161.08 159.196C161.462 158.732 161.931 158.348 162.46 158.064C162.916 157.836 163.296 157.7 163.552 157.584C163.684 157.516 163.822 157.46 163.964 157.416Z" fill="#EB996E"/>
<path id="Vector_116" d="M160.916 160.888C160.944 160.94 160.392 161.264 159.8 161.768C159.208 162.272 158.792 162.756 158.744 162.72C158.962 162.284 159.28 161.906 159.672 161.616C160.021 161.275 160.448 161.025 160.916 160.888Z" fill="#EB996E"/>
<path id="Vector_117" d="M163.6 149.972C163.6 150.032 163.012 150.068 162.368 150.372C161.724 150.676 161.316 151.104 161.272 151.06C161.524 150.683 161.873 150.381 162.284 150.188C162.694 149.995 163.149 149.918 163.6 149.964V149.972Z" fill="#EB996E"/>
<path id="Vector_118" d="M159.44 162.944C159.44 162.98 159.012 162.772 158.292 162.604C157.094 162.308 155.837 162.361 154.668 162.756C154.538 162.805 154.404 162.845 154.268 162.876C154.119 162.903 153.965 162.87 153.84 162.784L152.8 162C152.465 161.778 152.15 161.527 151.86 161.248C152.219 161.43 152.563 161.642 152.888 161.88L153.964 162.612C154.136 162.744 154.364 162.644 154.616 162.552C154.878 162.461 155.145 162.386 155.416 162.328C156.384 162.137 157.383 162.178 158.332 162.448C158.617 162.529 158.894 162.635 159.16 162.764C159.348 162.872 159.448 162.932 159.44 162.944Z" fill="#EB996E"/>
<path id="Vector_119" d="M114.212 101.824C111.648 101.092 110.512 100.776 110.512 100.776V99.6H111.532C112.556 99.6 114.028 98.324 114.028 98.324L116.216 94.976L116.496 92.828C116.264 90.18 113.072 91.228 113.072 91.228C112.92 90.304 108.832 89.376 105.76 88.804C104.731 88.6117 103.672 88.6505 102.66 88.9175C101.648 89.1845 100.708 89.6731 99.908 90.348L96.96 92.836L88.128 100.56L65.328 119.82L50.34 115.396C50.34 115.396 45.572 129.976 44.8 135.2C43.308 145.236 57.104 151.924 63.2 146.76C67.928 142.76 95.504 113.048 100.072 108.124H100.108C102.908 107.768 107.66 104.924 107.66 104.924L110.096 105.212C110.096 105.212 116.568 106.448 117.336 105.18C117.912 104.2 116.776 102.556 114.212 101.824Z" fill="#FFBE9D"/>
<path id="Vector_120" d="M100.936 98.912C100.936 98.912 101 99.004 101.076 99.192C101.187 99.4574 101.275 99.7317 101.34 100.012C101.557 100.939 101.593 101.899 101.444 102.84C101.297 103.781 100.965 104.684 100.468 105.496C100.32 105.742 100.152 105.975 99.964 106.192C99.832 106.348 99.752 106.428 99.74 106.416C99.728 106.404 99.996 106.048 100.34 105.424C101.248 103.785 101.553 101.88 101.2 100.04C101.06 99.34 100.9 98.924 100.936 98.912Z" fill="#EB996E"/>
<path id="Vector_121" d="M102.588 90.744C102.669 90.723 102.752 90.7083 102.836 90.7C103.004 90.676 103.236 90.644 103.56 90.616C104.454 90.5178 105.356 90.5272 106.248 90.644C106.867 90.7351 107.469 90.9157 108.036 91.18C108.694 91.4798 109.276 91.9258 109.736 92.484C110.261 93.1053 110.551 93.8909 110.556 94.704C110.549 95.135 110.44 95.5583 110.24 95.94C110.027 96.3247 109.757 96.6753 109.44 96.98C108.842 97.5582 108.186 98.0742 107.484 98.52C107.152 98.7438 106.8 98.9366 106.432 99.096C106.241 99.1718 106.037 99.2059 105.832 99.196C105.725 99.1909 105.621 99.1633 105.526 99.1151C105.431 99.0668 105.347 98.999 105.28 98.916C105.157 98.7517 105.096 98.549 105.108 98.344C105.112 98.1572 105.146 97.9723 105.208 97.796C105.323 97.469 105.481 97.1584 105.676 96.872C106.029 96.3553 106.501 95.9313 107.052 95.636L107.076 95.776L104.348 95.256L103.608 95.104C103.52 95.0915 103.434 95.0687 103.352 95.036C103.441 95.0359 103.529 95.0439 103.616 95.06L104.36 95.176L107.1 95.628L107.312 95.664L107.124 95.768C106.601 96.0598 106.154 96.4709 105.82 96.968C105.635 97.2429 105.489 97.5417 105.384 97.856C105.316 98.005 105.285 98.1682 105.293 98.3319C105.301 98.4955 105.349 98.6547 105.432 98.796C105.556 98.9105 105.712 98.9829 105.88 99.0031C106.047 99.0232 106.217 98.9899 106.364 98.908C106.717 98.7541 107.055 98.5666 107.372 98.348C108.062 97.9095 108.705 97.4016 109.292 96.832C109.598 96.5628 109.847 96.2359 110.026 95.87C110.206 95.5042 110.311 95.1066 110.336 94.7C110.332 93.9338 110.062 93.1928 109.572 92.604C109.131 92.065 108.575 91.6317 107.944 91.336C107.395 91.0719 106.81 90.8887 106.208 90.792C105.329 90.663 104.438 90.6309 103.552 90.696L102.824 90.74C102.746 90.7513 102.667 90.7527 102.588 90.744Z" fill="#EB996E"/>
<path id="Vector_122" d="M113.104 91.352C113.144 91.4926 113.167 91.6377 113.172 91.784C113.211 92.1827 113.227 92.5834 113.22 92.984C113.223 94.3105 112.879 95.6147 112.224 96.768C111.424 98.108 110.172 98.972 109.136 99.108C108.93 99.1362 108.72 99.1146 108.523 99.045C108.327 98.9754 108.15 98.8599 108.008 98.708C107.934 98.6237 107.877 98.5259 107.84 98.42C107.824 98.3851 107.817 98.3464 107.82 98.308C107.889 98.4319 107.972 98.5474 108.068 98.652C108.209 98.7782 108.377 98.8704 108.56 98.9217C108.742 98.973 108.934 98.982 109.12 98.948C110.072 98.792 111.28 97.94 112.044 96.652C112.679 95.5252 113.032 94.261 113.072 92.968C113.124 91.972 113.068 91.352 113.104 91.352Z" fill="#EB996E"/>
<path id="Vector_123" d="M107.444 102.776C107.42 102.748 107.628 102.568 107.876 102.208C108.194 101.745 108.392 101.21 108.452 100.652C108.503 100.091 108.411 99.5271 108.184 99.012C108.012 98.612 107.844 98.396 107.872 98.376C108.066 98.5256 108.219 98.7225 108.316 98.948C108.598 99.4758 108.718 100.075 108.66 100.671C108.602 101.267 108.37 101.832 107.992 102.296C107.852 102.499 107.664 102.664 107.444 102.776Z" fill="#EB996E"/>
<path id="Vector_124" d="M103.556 95.2C103.7 95.4679 103.746 95.778 103.684 96.076C103.658 96.4044 103.563 96.7235 103.404 97.012C103.223 97.3643 102.994 97.6901 102.724 97.98C102.215 98.4879 101.603 98.8796 100.928 99.128C100.663 99.2569 100.382 99.351 100.092 99.408C100.335 99.2461 100.595 99.1119 100.868 99.008C101.502 98.7276 102.079 98.3345 102.572 97.848C102.831 97.57 103.054 97.261 103.236 96.928C103.392 96.6637 103.495 96.3716 103.54 96.068C103.575 95.78 103.581 95.4891 103.556 95.2Z" fill="#EB996E"/>
<path id="Vector_125" d="M120.564 96.376L109.312 102.508C109.312 102.508 115.332 104 120.8 109.78C123.773 112.928 126.099 116.629 127.648 120.672L138.848 113.216C138.848 113.216 132.82 99.56 120.564 96.376Z" fill="#455A64"/>
<path id="Vector_126" d="M111.296 102.28L120.38 97.08H120.408H120.436C122.042 97.5126 123.587 98.1484 125.032 98.972C126.675 99.9223 128.207 101.052 129.6 102.34C131.145 103.757 132.561 105.308 133.832 106.976C135.21 108.754 136.432 110.648 137.484 112.636L137.528 112.72L137.448 112.772L136.86 113.172L128.212 118.952L128.108 119.02L128.064 118.908C126.841 115.882 125.16 113.063 123.08 110.548C121.427 108.577 119.515 106.839 117.396 105.38C116.014 104.421 114.54 103.601 112.996 102.932C112.452 102.7 112.028 102.532 111.736 102.44L111.408 102.328L111.296 102.288L111.412 102.312L111.748 102.408C112.044 102.5 112.472 102.648 113.02 102.868C114.586 103.513 116.082 104.317 117.484 105.268C119.624 106.719 121.556 108.456 123.224 110.432C125.328 112.955 127.028 115.789 128.264 118.832L128.116 118.788L136.76 113L137.348 112.6L137.312 112.732C136.266 110.756 135.054 108.874 133.688 107.104C132.427 105.444 131.021 103.9 129.488 102.488C128.102 101.205 126.58 100.078 124.948 99.128C123.519 98.3037 121.99 97.6639 120.4 97.224H120.456L111.296 102.28Z" fill="white"/>
<path id="Vector_127" d="M129.716 105.976C129.42 107.708 127.228 108.756 124.816 108.316C122.404 107.876 120.68 106.116 120.976 104.384C121.272 102.652 123.464 101.604 125.876 102.044C128.288 102.484 130 104.244 129.716 105.976Z" fill="#FAFAFA"/>
<path id="Vector_128" d="M124.472 106.532L124.072 106.964L123.624 106.528L124 106.128C123.678 105.79 123.445 105.378 123.32 104.928L124.076 104.6C124.177 105.018 124.392 105.4 124.696 105.704C125.004 106.004 125.204 106.028 125.32 105.9C125.72 105.468 123.94 104.336 124.852 103.328C125.252 102.904 125.86 102.828 126.532 103.328L126.932 102.904L127.38 103.34L127 103.74C127.252 104.019 127.441 104.349 127.552 104.708L126.808 105.056C126.708 104.712 126.525 104.397 126.276 104.14C125.964 103.84 125.752 103.84 125.632 103.972C125.256 104.372 127.02 105.52 126.116 106.52C125.744 106.932 125.136 107.012 124.472 106.532Z" fill="#455A64"/>
<path id="Vector_129" d="M113.864 100.836C113.864 100.836 115.772 101.804 113.94 103.236L111.14 102.148L113.864 100.836Z" fill="#FAFAFA"/>
<path id="Vector_130" d="M118.988 97.956C118.988 97.956 120.828 99.9 122.588 97.876L120.42 97.152L118.988 97.956Z" fill="#FAFAFA"/>
<path id="Vector_131" d="M127.016 116.308C127.016 116.308 129.492 114.308 130.936 117.012L128.172 118.86L127.016 116.308Z" fill="#FAFAFA"/>
<path id="Vector_132" d="M136.152 110.48C136.152 110.48 134.364 111.6 135.576 113.908L137.408 112.684L136.152 110.48Z" fill="#FAFAFA"/>
<path id="Vector_133" d="M129.524 116.968C129.519 117.116 129.471 117.259 129.385 117.379C129.3 117.5 129.181 117.593 129.043 117.646C128.905 117.699 128.754 117.71 128.61 117.678C128.465 117.646 128.334 117.572 128.231 117.466C128.128 117.359 128.059 117.225 128.033 117.08C128.006 116.934 128.023 116.784 128.081 116.648C128.139 116.512 128.236 116.396 128.36 116.315C128.483 116.234 128.628 116.191 128.776 116.192C128.876 116.194 128.975 116.215 129.067 116.255C129.159 116.295 129.242 116.352 129.311 116.424C129.381 116.497 129.435 116.582 129.472 116.675C129.508 116.768 129.526 116.868 129.524 116.968Z" fill="#455A64"/>
<path id="Vector_134" d="M137.028 112.196C137.023 112.343 136.974 112.484 136.889 112.604C136.803 112.723 136.685 112.814 136.547 112.867C136.41 112.919 136.261 112.93 136.118 112.898C135.975 112.866 135.844 112.793 135.742 112.687C135.64 112.581 135.572 112.448 135.545 112.304C135.518 112.16 135.535 112.011 135.592 111.876C135.649 111.741 135.745 111.625 135.868 111.544C135.99 111.463 136.133 111.42 136.28 111.42C136.38 111.422 136.479 111.443 136.571 111.483C136.663 111.523 136.746 111.58 136.815 111.652C136.885 111.725 136.94 111.81 136.976 111.903C137.012 111.996 137.03 112.096 137.028 112.196Z" fill="#455A64"/>
<path id="Vector_135" d="M121.572 97.88C121.572 98.156 121.172 98.38 120.712 98.38C120.252 98.38 119.856 98.156 119.856 97.88C119.856 97.604 120.256 97.38 120.716 97.38C121.176 97.38 121.572 97.6 121.572 97.88Z" fill="#455A64"/>
<path id="Vector_136" d="M114.26 102.028C114.299 102.2 114.283 102.38 114.216 102.543C114.148 102.706 114.031 102.844 113.881 102.938C113.732 103.032 113.557 103.077 113.381 103.067C113.204 103.057 113.036 102.992 112.898 102.882C112.76 102.772 112.659 102.622 112.61 102.452C112.561 102.282 112.566 102.102 112.625 101.935C112.683 101.768 112.792 101.624 112.935 101.522C113.079 101.419 113.251 101.364 113.428 101.364C113.626 101.345 113.823 101.403 113.979 101.527C114.134 101.651 114.235 101.831 114.26 102.028Z" fill="#455A64"/>
<path id="Vector_137" d="M121.156 101.6C121.156 102.024 120.628 102.368 119.976 102.368C119.324 102.368 118.8 102.036 118.8 101.6C118.8 101.164 119.328 100.832 119.98 100.832C120.632 100.832 121.156 101.2 121.156 101.6Z" fill="#FAFAFA"/>
<path id="Vector_138" d="M130.632 111.888C130.1 112.132 129.432 111.796 129.168 111.14C129.021 110.861 128.987 110.537 129.073 110.234C129.159 109.931 129.357 109.673 129.628 109.512C130.16 109.268 130.828 109.604 131.092 110.264C131.238 110.542 131.272 110.866 131.187 111.168C131.101 111.47 130.903 111.728 130.632 111.888Z" fill="#FAFAFA"/>
<path id="Vector_139" d="M114.032 98.324L118.652 103.2C118.652 103.2 120.5 105.316 121.744 104.316C122.988 103.316 121.24 101.452 120.872 100.908C120.504 100.364 115.976 94.872 115.976 94.872L114.032 98.324Z" fill="#FFBE9D"/>
<path id="Vector_140" d="M116.4 93.94C116.382 94.2287 116.321 94.5131 116.22 94.784C116.03 95.4519 115.761 96.095 115.42 96.7C115.072 97.3089 114.628 97.8573 114.104 98.324C113.898 98.5284 113.657 98.6937 113.392 98.812C113.584 98.6013 113.788 98.4023 114.004 98.216C114.482 97.7368 114.897 97.1992 115.24 96.616C116.036 95.2 116.344 93.916 116.4 93.94Z" fill="#EB996E"/>
<path id="Vector_141" d="M73.432 112.972C73.3672 113.05 73.2949 113.121 73.216 113.184L72.572 113.76L70.172 115.844C68.136 117.592 65.308 119.996 62.172 122.616C59.036 125.236 56.12 127.6 54 129.232C52.944 130.064 52.076 130.716 51.468 131.164L50.764 131.664C50.6857 131.727 50.6013 131.782 50.512 131.828C50.5833 131.757 50.6595 131.692 50.74 131.632L51.42 131.096C52.012 130.632 52.864 129.964 53.908 129.12C56 127.436 58.864 125.076 62.016 122.456C65.168 119.836 67.992 117.464 70.072 115.732L72.516 113.696L73.188 113.152C73.2637 113.085 73.3454 113.025 73.432 112.972Z" fill="#EB996E"/>
</g>
</g>
</svg>
