<svg width="200" height="200" viewBox="0 0 200 200" fill="none" xmlns="http://www.w3.org/2000/svg">
<path d="M46.4275 142.99L27.0214 123.494L36.7791 105.573C46.5368 93.0768 67.1964 93.8803 67.1964 93.8803C77.3887 93.1875 87.6278 93.8162 97.6587 95.7508C114.069 98.9648 112.745 109.802 112.745 109.802L114.944 150.023L117.303 182.773L56.783 183.995L46.4275 143.016" fill="#2B29A4"/>
<path d="M79.0316 182.079L24.8241 182.722C21.8379 182.756 18.8919 182.032 16.2627 180.615C13.6336 179.199 11.4076 177.137 9.79388 174.625C8.18014 172.112 7.23159 169.23 7.03732 166.25C6.84306 163.27 7.40945 160.289 8.68331 157.588L31.8628 114.604L52.9788 128.874L38.5736 158.745L82.4513 159.529L79.0316 182.079Z" fill="#2B29A4"/>
<path d="M110.83 103.246L154.328 170.406L128.95 172.065C128.95 172.065 113.793 148.184 114.134 148.673C114.738 149.573 110.83 103.246 110.83 103.246Z" fill="#2B29A4"/>
<path d="M51.8845 132.736C51.8861 132.618 51.9056 132.501 51.9424 132.389C52.0067 132.132 52.0774 131.81 52.1738 131.412C52.3731 130.57 52.6687 129.349 52.9709 127.832C53.273 126.315 53.6137 124.489 53.8258 122.458C54.0869 120.256 54.0869 118.032 53.8258 115.83C53.477 113.648 52.7157 111.551 51.5824 109.653C50.6717 108.091 49.594 106.631 48.3684 105.301C47.5423 104.392 46.6622 103.534 45.7329 102.73C45.3787 102.453 45.0396 102.157 44.7173 101.843C44.8219 101.895 44.921 101.957 45.013 102.029C45.193 102.164 45.4822 102.351 45.8165 102.627C46.7831 103.391 47.6939 104.222 48.542 105.115C49.809 106.435 50.9217 107.895 51.8588 109.467C53.0319 111.394 53.8179 113.532 54.1729 115.76C54.4274 117.988 54.4102 120.24 54.1215 122.464C53.9044 124.274 53.5954 126.072 53.1958 127.851C52.8616 129.374 52.553 130.589 52.2895 131.425C52.1738 131.843 52.0709 132.164 52.0002 132.383C51.9731 132.504 51.9344 132.622 51.8845 132.736Z" fill="#263238"/>
<path d="M50.1403 135.052C50.0475 135.387 49.9226 135.712 49.7675 136.023C49.5103 136.666 49.1246 137.527 48.6297 138.594C47.6462 140.773 46.2513 143.769 44.6443 147.047C43.0373 150.325 41.5203 153.263 40.3954 155.403C39.8297 156.457 39.3669 157.332 39.0391 157.891C38.8826 158.202 38.702 158.501 38.4991 158.784C38.6146 158.456 38.7565 158.138 38.9234 157.833C39.2512 157.19 39.6755 156.329 40.209 155.294L44.3679 146.938C45.9428 143.679 47.3762 140.734 48.4433 138.53C48.9447 137.495 49.3561 136.633 49.6775 135.958C49.8061 135.644 49.9609 135.341 50.1403 135.052Z" fill="#263238"/>
<path d="M79.0334 182.078C79.0334 182.078 79.0334 182.039 79.0334 181.969C79.0334 181.898 79.0334 181.769 79.0334 181.634C79.0656 181.326 79.1106 180.895 79.162 180.349C79.2906 179.205 79.4705 177.578 79.6955 175.528C80.1712 171.369 80.8526 165.519 81.6239 158.622L81.7782 158.789H65.766L37.7978 158.744L29.3128 158.693L27.0051 158.661H26.4009H26.1952C26.2635 158.652 26.3326 158.652 26.4009 158.661H27.0051L29.3128 158.629L37.7978 158.577L65.811 158.532H81.8232H81.9968V158.699C81.1483 165.59 80.4347 171.44 79.9205 175.592C79.6634 177.636 79.4513 179.262 79.2777 180.407C79.2091 180.947 79.1513 181.375 79.1041 181.692L79.0527 182.02C79.0463 182.039 79.0399 182.078 79.0334 182.078Z" fill="#263238"/>
<path d="M38.954 159.219C38.5658 158.79 38.2051 158.337 37.8741 157.863C36.1418 155.688 33.9965 153.877 31.5618 152.534C31.0418 152.282 30.5355 152.003 30.0448 151.698C30.6154 151.832 31.1633 152.048 31.6711 152.341C34.2069 153.594 36.3998 155.445 38.0605 157.734C38.4255 158.185 38.7262 158.685 38.954 159.219Z" fill="#263238"/>
<path d="M115.844 163.474C115.797 163.291 115.767 163.104 115.754 162.915C115.709 162.523 115.652 161.99 115.575 161.315C115.427 159.926 115.227 157.914 115.015 155.427C114.572 150.445 114.064 143.554 113.614 135.943C113.164 128.332 112.849 121.429 112.669 116.434C112.579 113.934 112.515 111.935 112.489 110.514C112.489 109.839 112.489 109.306 112.457 108.907C112.447 108.721 112.447 108.534 112.457 108.348C112.493 108.532 112.512 108.719 112.515 108.907C112.515 109.299 112.566 109.839 112.605 110.514C112.675 111.941 112.772 113.953 112.894 116.421C113.132 121.416 113.485 128.307 113.935 135.924C114.385 143.541 114.861 150.419 115.221 155.407C115.414 157.869 115.568 159.907 115.677 161.308C115.729 161.951 115.767 162.517 115.799 162.909C115.832 163.096 115.847 163.285 115.844 163.474Z" fill="#263238"/>
<path d="M67.4558 126.931C67.4586 126.636 67.4822 126.342 67.5265 126.05C67.6037 125.439 67.7001 124.623 67.8222 123.62C68.105 121.499 68.465 118.594 68.9407 115.225L69.185 115.38L65.026 118.291L60.7964 121.235L60.4943 121.448L60.5457 121.081C61.0599 117.745 61.497 114.865 61.8313 112.725C61.9984 111.741 62.127 110.931 62.2298 110.327C62.2643 110.037 62.3246 109.751 62.4098 109.472C62.4102 109.765 62.3844 110.058 62.3327 110.346C62.2555 110.951 62.1591 111.761 62.0306 112.757C61.7413 114.865 61.3363 117.751 60.8735 121.113L60.6292 120.959L64.8525 118.002L69.0178 115.103L69.3199 114.891L69.2685 115.257C68.7736 118.613 68.3429 121.518 68.0343 123.614C67.8736 124.61 67.7451 125.427 67.6487 126.031C67.6114 126.336 67.5469 126.637 67.4558 126.931Z" fill="#E0E0E0"/>
<path d="M91.6497 129.534C91.4181 129.35 91.203 129.146 91.0069 128.924C90.5891 128.474 90.0234 127.876 89.3292 127.143L83.589 120.921L83.8654 120.824C83.7304 122.399 83.589 124.109 83.4411 125.883C83.2933 127.657 83.139 129.419 83.004 131.026L82.9719 131.399L82.7276 131.122L77.1417 124.823L75.5475 122.984C75.3447 122.774 75.1638 122.543 75.0076 122.296C75.2388 122.493 75.4537 122.708 75.6504 122.939L77.3088 124.713L82.9783 130.929L82.7019 131.026C82.8369 129.425 82.9783 127.69 83.1326 125.883C83.2869 124.077 83.4283 122.399 83.5633 120.824L83.5954 120.458L83.8397 120.728L89.4963 127.034L91.1098 128.879C91.3066 129.083 91.4871 129.302 91.6497 129.534Z" fill="#E0E0E0"/>
<path d="M103.827 128.675C103.708 128.946 103.561 129.205 103.39 129.447L102.105 131.517L97.5151 138.639L97.3608 138.395L102.349 137.533L107.427 136.678L107.793 136.614L107.62 136.89L102.927 143.871L101.513 145.89C101.356 146.137 101.18 146.371 100.986 146.59C101.113 146.327 101.259 146.074 101.423 145.832L102.709 143.775L107.305 136.704L107.466 136.948L102.387 137.829L97.3801 138.677L97.0137 138.735L97.2194 138.433L101.905 131.362L103.281 129.338C103.45 129.106 103.632 128.885 103.827 128.675Z" fill="#E0E0E0"/>
<path d="M87.6309 141.131C87.51 141.399 87.3637 141.655 87.1938 141.896L85.9082 143.972L81.325 151.088L81.1643 150.843L86.1653 149.982L91.2499 149.121L91.6163 149.063L91.4042 149.365L86.7117 156.352L85.3297 158.358C85.1762 158.605 84.9997 158.838 84.8026 159.052C84.9312 158.79 85.0773 158.536 85.2397 158.294C85.574 157.779 86.0111 157.092 86.5253 156.243L91.1213 149.172L91.282 149.416L86.2039 150.297L81.1965 151.139L80.8301 151.203L81.0358 150.895L85.7218 143.824C86.2875 142.988 86.7503 142.307 87.1038 141.799C87.2631 141.564 87.4393 141.341 87.6309 141.131Z" fill="#E0E0E0"/>
<path d="M122.618 128.532C122.491 128.797 122.345 129.053 122.181 129.297L120.895 131.374L116.312 138.489L116.152 138.245L121.153 137.384L126.237 136.522L126.604 136.465L126.398 136.767L121.699 143.754C121.133 144.577 120.671 145.252 120.317 145.753C120.165 146.004 119.988 146.238 119.79 146.454C119.92 146.191 120.068 145.937 120.233 145.695L121.519 143.645L126.115 136.574L126.276 136.818L121.198 137.692L116.19 138.541L115.83 138.605L116.029 138.297L120.715 131.226L122.098 129.201C122.249 128.962 122.423 128.738 122.618 128.532Z" fill="#E0E0E0"/>
<path d="M142.806 160.892C142.577 160.718 142.362 160.524 142.164 160.314L140.402 158.617L134.354 152.69L134.624 152.581C134.572 154.162 134.521 155.872 134.463 157.653C134.405 159.433 134.334 161.201 134.276 162.795V163.168L134.013 162.904L128.125 156.894L126.441 155.139C126.232 154.94 126.038 154.726 125.862 154.497C126.091 154.672 126.306 154.866 126.505 155.075L128.253 156.766L134.231 162.692L133.955 162.802C134.006 161.195 134.064 159.459 134.122 157.659C134.18 155.859 134.251 154.169 134.309 152.587V152.221L134.566 152.478L140.524 158.495L142.228 160.256C142.438 160.452 142.632 160.665 142.806 160.892Z" fill="#E0E0E0"/>
<path d="M40.6974 118.209C40.5716 118.475 40.4255 118.731 40.2603 118.974L38.9747 121.05L34.3915 128.173L34.2308 127.928L39.2318 127.061L44.3164 126.206L44.6828 126.141L44.4771 126.45L39.7782 133.431L38.4026 135.436C38.2465 135.682 38.0702 135.914 37.8755 136.131C37.9987 135.868 38.145 135.616 38.3126 135.379L39.5982 133.322C40.7617 131.541 42.3558 129.098 44.1942 126.251L44.3549 126.495L39.2768 127.376L34.2694 128.224L33.9094 128.282L34.1087 127.98C35.9921 125.152 37.612 122.709 38.7947 120.909L40.1767 118.884C40.3323 118.646 40.5064 118.42 40.6974 118.209Z" fill="#E0E0E0"/>
<path d="M15.2795 166.278C15.4961 166.474 15.6941 166.689 15.8709 166.921L17.4394 168.804L22.7682 175.38L22.4854 175.457C22.7168 173.895 22.961 172.198 23.2246 170.431C23.4881 168.663 23.7452 166.921 23.9831 165.333L24.0345 164.967L24.2659 165.263L29.4469 171.896L30.9189 173.825C31.1059 174.048 31.2737 174.287 31.4203 174.538C31.2092 174.339 31.0137 174.124 30.8354 173.895L29.2926 172.018L24.0538 165.455L24.3366 165.385C24.1052 166.972 23.8545 168.695 23.591 170.482C23.3274 172.269 23.0767 173.94 22.8389 175.502L22.7875 175.869L22.5561 175.579L17.3108 168.933L15.8131 167.004C15.6191 166.775 15.4409 166.532 15.2795 166.278Z" fill="#E0E0E0"/>
<path d="M73.326 135.155C73.0381 135.217 72.7458 135.256 72.4518 135.271L70.0091 135.483L61.5627 136.126L61.6656 135.856L65.3681 139.327L69.1156 142.862L69.3856 143.12H69.0128L60.6114 143.582L58.1816 143.685C57.8907 143.71 57.5982 143.71 57.3074 143.685C57.5936 143.628 57.8836 143.591 58.1752 143.576L60.5985 143.383L68.9935 142.805L68.8971 143.075L65.1367 139.552L61.447 136.068L61.177 135.811H61.5434L69.9963 135.303L72.4389 135.181C72.7335 135.15 73.0301 135.141 73.326 135.155Z" fill="#E0E0E0"/>
<path d="M59.0762 167.55C59.2906 167.752 59.4924 167.966 59.6804 168.193L61.281 170.044L66.7512 176.511L66.4684 176.588C66.6677 175.019 66.8862 173.322 67.1112 171.555C67.3362 169.787 67.5676 168.032 67.754 166.444L67.8054 166.072L68.0368 166.361L73.3592 172.885L74.8698 174.814C75.0571 175.038 75.2289 175.274 75.384 175.521C75.1672 175.324 74.9673 175.109 74.7862 174.878L73.2049 173.033L67.8054 166.605L68.0818 166.522C67.8825 168.116 67.664 169.838 67.439 171.632C67.214 173.425 66.9891 175.103 66.7962 176.671L66.7448 177.038L66.5134 176.755L61.1331 170.211L59.6033 168.283C59.4038 168.057 59.2273 167.811 59.0762 167.55Z" fill="#E0E0E0"/>
<path d="M33.6177 143.793C33.33 143.856 33.0376 143.895 32.7434 143.909L30.3072 144.114L21.8608 144.757L21.9572 144.481L25.6662 147.958L29.4137 151.494L29.6837 151.751H29.3109L20.9095 152.214L18.4797 152.317C18.1952 152.341 17.9092 152.341 17.6248 152.317C17.9103 152.255 18.2007 152.219 18.4925 152.207L20.9159 152.014L29.3109 151.43L29.2145 151.706L25.4541 148.183L21.758 144.699L21.4944 144.442H21.8608L30.3137 143.928L32.7563 143.812C33.0425 143.784 33.3305 143.778 33.6177 143.793Z" fill="#E0E0E0"/>
<path d="M55.4946 166.826C55.2068 166.887 54.9143 166.923 54.6204 166.935L52.1777 167.147L43.7313 167.79L43.8341 167.514L47.5367 170.991L51.2842 174.526L51.5542 174.784H51.1878L42.78 175.24L40.3502 175.349C40.0593 175.375 39.7668 175.375 39.476 175.349C39.7615 175.288 40.0518 175.251 40.3437 175.24L42.7671 175.047L51.1621 174.462L51.0657 174.739L47.3053 171.216L43.6156 167.745L43.3456 167.494H43.712L52.1649 166.98L54.6139 166.864C54.9057 166.825 55.2005 166.812 55.4946 166.826Z" fill="#E0E0E0"/>
<path d="M104.869 108.226C104.581 108.288 104.288 108.326 103.994 108.342L101.552 108.547L93.1117 109.19L93.2082 108.92L96.9107 112.391L100.658 115.927L100.928 116.184H100.562L92.154 116.647L89.7242 116.75C89.4333 116.775 89.1408 116.775 88.85 116.75C89.1355 116.688 89.4259 116.651 89.7178 116.64L92.1411 116.447L100.543 115.869L100.44 116.139L96.6922 112.623L93.0025 109.139L92.7325 108.882H93.0989L101.552 108.367L104.001 108.252C104.289 108.221 104.579 108.213 104.869 108.226Z" fill="#E0E0E0"/>
<path d="M80.8524 166.825C80.8524 166.825 91.6643 163.708 95.2447 162.795C96.6396 162.442 102.611 165.591 106.738 168.214C106.738 168.214 112.42 171.582 111.964 172.617C111.456 173.761 109.393 173.53 106.018 171.974C106.018 171.974 107.188 175.362 104.893 175.285C104.893 175.285 106.031 178.949 103.884 179.328C101.737 179.707 101.236 175.034 99.3458 174.783C97.456 174.533 93.5606 174.276 93.5606 174.276C93.5606 174.276 90.3016 179.675 87.7754 180.061C85.2492 180.446 79.4189 179.759 79.4189 179.759L80.8524 166.825Z" fill="#FFBE9D"/>
<path d="M99.3052 167.572C100.364 168.043 101.375 168.613 102.326 169.275C103.336 169.846 104.287 170.513 105.168 171.268C103.097 170.231 101.134 168.993 99.3052 167.572Z" fill="#EB996E"/>
<path d="M98.6665 169.673C99.9015 170.061 101.101 170.554 102.253 171.145C103.444 171.629 104.592 172.211 105.686 172.887C104.45 172.502 103.25 172.012 102.099 171.421C100.906 170.94 99.7574 170.355 98.6665 169.673Z" fill="#EB996E"/>
<path d="M99.828 174.693C101.461 174.687 103.087 174.903 104.662 175.336C103.029 175.34 101.403 175.124 99.828 174.693Z" fill="#EB996E"/>
<path d="M66.7792 55.2533C66.9065 55.6699 66.9084 56.1147 66.7845 56.5322C66.6606 56.9498 66.4164 57.3217 66.0826 57.6014C65.7487 57.8811 65.3398 58.0563 64.907 58.1051C64.4742 58.1539 64.0366 58.0743 63.6488 57.876C62.1832 57.1367 61.9968 55.1119 62.2861 53.4985C62.5753 51.8851 63.1217 50.1559 62.4468 48.6582C61.9261 47.514 60.8012 46.7876 59.927 45.8877C59.1555 45.1055 58.5759 44.1552 58.2335 43.1112C57.8911 42.0673 57.7953 40.9583 57.9536 39.8711C58.1389 38.7872 58.6198 37.7755 59.3435 36.9475C60.0671 36.1195 61.0053 35.5074 62.0547 35.1787C64.208 34.5809 66.8628 35.2429 68.4827 33.6809C69.6461 32.5496 69.7168 30.7048 70.6168 29.3549C72.0116 27.2593 74.9621 26.9251 77.4562 27.2658C79.9502 27.6065 82.4829 28.41 84.9255 27.7993C86.9632 27.2915 88.6345 25.8709 90.55 24.9967C92.6377 24.0424 94.9715 23.7644 97.225 24.2016C99.4785 24.6388 101.539 25.7693 103.118 27.4351C104.698 29.1009 105.717 31.2186 106.034 33.4922C106.35 35.7657 105.949 38.0814 104.884 40.1154C104.175 41.6038 102.968 42.7976 101.471 43.4901" fill="#263238"/>
<path d="M79.1867 108.355C80.8259 108.352 82.4481 108.024 83.9594 107.389C85.4707 106.754 86.8409 105.826 87.9907 104.657C89.1405 103.489 90.0469 102.104 90.6575 100.583C91.2681 99.0615 91.5707 97.4342 91.5477 95.7952L91.387 83.9805C91.387 83.9805 101.312 82.9841 101.968 73.1492C102.623 63.3144 102.154 40.617 102.154 40.617C96.693 37.9079 90.6082 36.7042 84.527 37.1302C78.4459 37.5562 72.5884 39.5963 67.5584 43.0404L66.0414 44.0882L66.7806 96.1166C66.8195 99.3794 68.1444 102.495 70.4673 104.787C72.7902 107.078 75.9236 108.361 79.1867 108.355Z" fill="#FFBE9D"/>
<path d="M99.5553 58.4659C99.1964 58.4246 98.8652 58.2527 98.6248 57.9831C98.3843 57.7134 98.2515 57.3648 98.2515 57.0035C98.2515 56.6422 98.3843 56.2935 98.6248 56.0239C98.8652 55.7542 99.1964 55.5824 99.5553 55.5411C99.6334 55.5218 99.715 55.5218 99.7931 55.5411C100.152 55.5824 100.483 55.7542 100.724 56.0239C100.964 56.2935 101.097 56.6422 101.097 57.0035C101.097 57.3648 100.964 57.7134 100.724 57.9831C100.483 58.2527 100.152 58.4246 99.7931 58.4659C99.7144 58.4787 99.634 58.4787 99.5553 58.4659Z" fill="#263238"/>
<path d="M101.485 55.2925C101.325 55.4596 100.399 54.6497 99.0426 54.579C97.6863 54.5083 96.6642 55.1447 96.5292 54.9647C96.3943 54.7847 96.6257 54.5854 97.0756 54.2833C97.6769 53.8975 98.3861 53.7149 99.0989 53.7623C99.8117 53.8098 100.49 54.0848 101.035 54.5468C101.44 54.9068 101.569 55.2539 101.485 55.2925Z" fill="#263238"/>
<path d="M85.8086 55.6249C86.0418 55.7864 86.2219 56.0134 86.326 56.2772C86.4301 56.5411 86.4537 56.8299 86.3936 57.1071C86.3335 57.3843 86.1925 57.6374 85.9885 57.8345C85.7845 58.0315 85.5266 58.1636 85.2475 58.2141C84.9684 58.2645 84.6805 58.231 84.4205 58.1177C84.1604 58.0045 83.9398 57.8167 83.7865 57.578C83.6332 57.3394 83.5542 57.0606 83.5594 56.777C83.5647 56.4934 83.6539 56.2177 83.8159 55.9849C84.0327 55.6732 84.3643 55.4603 84.7378 55.3928C85.1114 55.3253 85.4965 55.4088 85.8086 55.6249Z" fill="#263238"/>
<path d="M86.7017 55.684C86.5346 55.8511 85.6089 55.0412 84.2591 54.9705C82.9092 54.8998 81.8807 55.5361 81.7393 55.3562C81.6686 55.2726 81.8421 54.9769 82.2856 54.6748C82.8869 54.289 83.5961 54.1063 84.3089 54.1538C85.0217 54.2012 85.7005 54.4762 86.2453 54.9383C86.6503 55.2983 86.7788 55.6133 86.7017 55.684Z" fill="#263238"/>
<path d="M91.5463 67.1652C91.5463 67.0623 92.3884 66.9338 93.764 66.818C94.1175 66.818 94.4068 66.7345 94.4389 66.5481C94.4648 66.1936 94.396 65.8387 94.2396 65.5196C93.9375 64.6004 93.6354 63.6747 93.314 62.7041C92.0284 58.6995 91.1863 55.4019 91.3856 55.3376C91.5849 55.2733 92.7805 58.4681 94.0468 62.4727C94.3425 63.4498 94.6317 64.4011 94.9081 65.301C95.1122 65.769 95.1529 66.292 95.0238 66.7859C94.9665 66.9193 94.8783 67.0372 94.7666 67.1299C94.6548 67.2226 94.5227 67.2876 94.381 67.3194C94.1808 67.3642 93.975 67.3793 93.7704 67.3644C92.3819 67.3387 91.5463 67.2744 91.5463 67.1652Z" fill="#263238"/>
<path d="M87.0448 68.4241C89.1108 69.4847 91.3126 70.2569 93.5885 70.7189C93.0895 71.4044 92.3732 71.9007 91.5562 72.1271C90.7391 72.3536 89.8695 72.2968 89.0889 71.966C86.1899 70.7254 87.0448 68.4241 87.0448 68.4241Z" fill="white"/>
<path d="M91.4281 83.8373C86.8778 83.675 82.4786 82.1624 78.7906 79.4919C78.7906 79.4919 81.439 86.7363 91.306 86.3892L91.4281 83.8373Z" fill="#EB996E"/>
<path d="M102.236 43.1057C102.236 43.1057 96.2903 46.1268 88.416 42.3857C83.2735 39.9302 77.2505 38.7925 75.952 39.8531C74.6536 40.9137 74.48 46.1847 69.4404 47.8238C69.4404 47.8238 69.9868 57.8901 65.9629 57.6073C61.9389 57.3245 64.1502 41.6851 64.1502 41.6851L73.8758 36.697L84.5527 34.4664L94.6768 35.6942L102.532 37.6804L102.236 43.1057Z" fill="#263238"/>
<path d="M66.6953 54.3724C66.5346 54.2888 60.0423 52.0004 59.8945 58.7434C59.7466 65.4865 66.541 64.2458 66.5539 64.053C66.5667 63.8602 66.6953 54.3724 66.6953 54.3724Z" fill="#FFBE9D"/>
<path d="M64.5482 61.4496C64.5482 61.4496 64.4261 61.5332 64.2268 61.6167C63.9445 61.7314 63.6285 61.7314 63.3462 61.6167C62.6391 61.3403 62.0606 60.1962 62.0606 58.9813C62.0597 58.4021 62.1848 57.8296 62.427 57.3035C62.4962 57.0947 62.6147 56.9057 62.7725 56.7524C62.9302 56.5991 63.1226 56.4861 63.3333 56.4229C63.4693 56.3982 63.6097 56.4179 63.7336 56.4793C63.8575 56.5407 63.9583 56.6404 64.0211 56.7636C64.1047 56.95 64.0597 57.085 64.0918 57.0978C64.124 57.1107 64.2397 56.9886 64.1947 56.7122C64.1593 56.544 64.0688 56.3924 63.9375 56.2815C63.7555 56.1384 63.5251 56.0716 63.2947 56.0951C63.0164 56.1431 62.7551 56.2617 62.5356 56.4395C62.3162 56.6173 62.146 56.8484 62.0413 57.1107C61.7444 57.6895 61.5901 58.3308 61.5913 58.9813C61.5913 60.3376 62.2727 61.6296 63.2369 61.9317C63.4172 61.9868 63.6074 62.0015 63.794 61.9748C63.9806 61.9481 64.1591 61.8808 64.3168 61.7774C64.5482 61.6167 64.5482 61.4625 64.5482 61.4496Z" fill="#EB996E"/>
<path d="M63.2655 33.2701C64.0347 33.0445 64.8562 33.0741 65.6071 33.3545C66.358 33.6349 66.9979 34.1511 67.4309 34.8257C66.8315 34.3718 66.185 33.9838 65.5024 33.6686C64.7727 33.4584 64.023 33.3248 63.2655 33.2701Z" fill="#263238"/>
<path d="M67.3227 29.2334C67.4449 29.2334 67.2585 30.654 67.4899 32.3381C67.6899 33.3507 68.007 34.3365 68.4348 35.2757C68.4348 35.2757 68.152 35.0379 67.8691 34.5365C67.5062 33.8692 67.2666 33.1419 67.162 32.3895C66.9748 31.339 67.0297 30.2595 67.3227 29.2334Z" fill="#263238"/>
<path d="M95.016 52.0404C94.9774 51.9633 95.2667 51.7255 95.8131 51.5069C97.2635 50.946 98.8737 50.9621 100.313 51.5519C100.853 51.7833 101.142 52.0212 101.103 52.0983C101.02 52.2783 99.7213 51.7705 98.0564 51.7705C96.3916 51.7705 95.0931 52.2397 95.016 52.0404Z" fill="#263238"/>
<path d="M79.9747 50.6396C79.9362 50.5624 80.2254 50.331 80.7718 50.106C81.4911 49.828 82.257 49.6905 83.028 49.7011C83.8024 49.7009 84.5692 49.8538 85.2843 50.151C85.8242 50.3824 86.1071 50.6203 86.0749 50.7038C86.0428 50.7874 84.6929 50.376 83.0216 50.3696C81.3503 50.3631 80.0647 50.8195 79.9747 50.6396Z" fill="#263238"/>
<path d="M93.8519 53.1204C93.8663 53.2529 93.8663 53.3865 93.8519 53.519C93.8519 53.8018 93.8519 54.1618 93.884 54.6053C93.9162 55.0489 93.884 55.6467 93.9226 56.2895C93.8984 57.0313 94.0072 57.7715 94.244 58.475C94.554 59.3875 95.0905 60.2065 95.8032 60.8552C96.516 61.5039 97.3817 61.9611 98.3194 62.184C98.8573 62.3154 99.4124 62.3631 99.9649 62.3254C100.54 62.2995 101.106 62.1801 101.643 61.9718C102.786 61.5434 103.76 60.7564 104.42 59.7285C105.044 58.7468 105.357 57.5999 105.319 56.4373C105.319 55.2867 105.319 54.1811 105.319 53.1204L105.474 53.2747L97.1173 53.1976L94.694 53.1526H94.0511H93.8133C94.0886 53.122 94.3656 53.1091 94.6425 53.114L97.0273 53.069L105.474 52.9919H105.686V53.1526C105.686 54.2132 105.686 55.3188 105.686 56.4694C105.729 57.6954 105.4 58.9056 104.741 59.9406C104.042 61.0289 103.009 61.8612 101.797 62.3125C101.227 62.5313 100.626 62.6551 100.016 62.6789C99.4352 62.7134 98.8521 62.6593 98.2872 62.5182C97.3039 62.2806 96.3983 61.7938 95.6575 61.1048C94.9167 60.4159 94.3658 59.5478 94.0576 58.5843C93.8267 57.849 93.7309 57.0781 93.7747 56.3087C93.7747 55.6659 93.7748 55.0681 93.8069 54.5796C93.839 54.0911 93.8069 53.789 93.839 53.5061C93.833 53.3774 93.8373 53.2485 93.8519 53.1204Z" fill="#263238"/>
<path d="M78.1003 52.786C78.1003 52.786 78.1003 52.9338 78.1003 53.1845V54.2709C78.1003 54.7465 78.1003 55.3122 78.1324 55.9614C78.1156 56.7029 78.2242 57.4418 78.4538 58.147C78.75 58.9934 79.2359 59.7608 79.8744 60.3903C80.6118 61.107 81.529 61.6111 82.5292 61.8495C83.6351 62.116 84.7957 62.042 85.8589 61.6374C86.9991 61.2094 87.9708 60.4249 88.6294 59.4004C89.2557 58.4195 89.5715 57.2725 89.5357 56.1093C89.5357 54.9587 89.5357 53.8466 89.5357 52.786L89.69 52.9403L81.3336 52.8631L78.9166 52.8246H78.2738H78.036C78.3092 52.7941 78.584 52.7813 78.8588 52.786L81.2436 52.7474L89.69 52.6703H89.8443V52.8246C89.8443 53.8852 89.8443 54.9972 89.8443 56.1478C89.8831 57.3742 89.5516 58.5838 88.8929 59.619C88.1943 60.7035 87.1639 61.5332 85.9553 61.9845C85.3857 62.2027 84.7843 62.3264 84.1748 62.3509C83.5914 62.3853 83.0063 62.3311 82.4392 62.1902C81.3888 61.9315 80.4288 61.3915 79.6623 60.6282C78.9992 59.962 78.5017 59.1496 78.2096 58.2562C77.9787 57.521 77.8829 56.7501 77.9267 55.9807C77.9267 55.3379 77.9267 54.7401 77.9653 54.2516C78.0039 53.7631 77.9653 53.4609 77.9653 53.1781C77.9888 53.041 78.0344 52.9085 78.1003 52.786Z" fill="#263238"/>
<path d="M93.9951 53.5881C92.5251 53.8112 91.0298 53.8112 89.5598 53.5881C91.0292 53.3568 92.5258 53.3568 93.9951 53.5881Z" fill="#263238"/>
<path d="M65.8323 53.6724C67.876 53.502 69.9272 53.4397 71.9775 53.486C74.0292 53.4278 76.0825 53.4771 78.1291 53.6338C76.0858 53.8121 74.0342 53.8744 71.9839 53.8202C69.9322 53.8858 67.8784 53.8364 65.8323 53.6724Z" fill="#263238"/>
<path d="M131.96 174.975C133.405 177.656 135.592 179.863 138.261 181.33C140.929 182.798 143.964 183.464 147.002 183.248C150.59 182.997 153.986 181.529 156.629 179.088C159.271 176.647 161.002 173.377 161.536 169.82L165.264 127.144L150.331 123.454L144.231 156.88C144.231 156.88 141.043 170.887 131.96 174.975Z" fill="#FFBE9D"/>
<path d="M150.198 126.547L150.693 119.059C150.693 119.059 152.808 102.256 152.808 100.61C152.808 98.7205 153.714 98.2577 154.415 98.3091C155.501 98.3798 156.273 99.7233 156.344 101.35C156.344 101.909 156.292 110.792 156.292 110.792C156.806 109.953 157.379 109.152 158.008 108.395C159.294 106.73 162.405 105.778 165.574 105.881C168.743 105.984 169.611 106.293 169.63 107.52C169.619 107.755 169.556 107.984 169.444 108.191C169.333 108.398 169.177 108.577 168.987 108.716C168.403 109.204 167.659 109.46 166.898 109.436C161.827 109.346 160.47 112.052 160.47 112.052L160.406 113.036C160.406 113.036 163.485 110.831 165.941 111.75C166.303 111.884 166.636 112.09 166.918 112.354C167.609 112.357 168.288 112.541 168.886 112.887C169.485 113.232 169.983 113.729 170.33 114.327C170.678 114.924 170.863 115.602 170.868 116.294C170.872 116.985 170.696 117.666 170.357 118.268C170.224 118.577 170.001 118.838 169.716 119.016C169.431 119.194 169.098 119.281 168.763 119.264C168.423 119.162 168.115 118.974 167.869 118.718C167.725 118.596 167.573 118.484 167.413 118.384L166.847 121.103C166.847 121.103 165.246 127.145 164.848 129.858" fill="#FFBE9D"/>
<path d="M151.654 125.963C152.58 126.22 153.538 125.539 154.039 124.716C154.54 123.893 154.753 122.922 155.19 122.061C156.514 119.49 159.689 118.269 160.904 115.633C161.071 115.267 161.161 114.765 160.84 114.521C160.518 114.277 160.12 114.476 159.792 114.656L151.436 119.284" fill="#FFBE9D"/>
<path d="M151.432 119.27C151.692 119.039 151.979 118.841 152.286 118.679C152.852 118.325 153.681 117.837 154.71 117.239L158.342 115.162L159.389 114.571C159.78 114.262 160.277 114.121 160.771 114.179C160.924 114.228 161.058 114.323 161.156 114.451C161.253 114.578 161.31 114.732 161.318 114.892C161.335 115.157 161.288 115.421 161.183 115.664C160.99 116.093 160.748 116.498 160.463 116.872C159.306 118.376 157.808 119.321 156.728 120.421C156.203 120.918 155.757 121.492 155.404 122.124C155.089 122.715 154.89 123.333 154.646 123.892C154.495 124.359 154.245 124.787 153.912 125.147C153.579 125.506 153.171 125.789 152.717 125.974C152.029 126.18 151.644 125.974 151.669 125.936C152.002 125.946 152.334 125.892 152.646 125.775C153.048 125.57 153.403 125.283 153.689 124.934C153.974 124.584 154.184 124.179 154.305 123.744C154.511 123.121 154.749 122.51 155.018 121.912C155.373 121.228 155.835 120.605 156.388 120.067C157.493 118.91 158.959 117.939 160.039 116.545C160.293 116.208 160.509 115.843 160.681 115.458C160.842 115.092 160.816 114.725 160.611 114.687C160.405 114.648 160 114.822 159.647 115.021L158.579 115.6L154.896 117.605C153.842 118.164 152.968 118.601 152.389 118.891C152.09 119.062 151.767 119.189 151.432 119.27Z" fill="#EB996E"/>
<path d="M160.286 113.106C160.343 112.498 160.543 111.912 160.871 111.396C161.251 110.868 161.792 110.475 162.413 110.278C163.191 110.022 164.005 109.892 164.824 109.892C165.665 109.901 166.504 109.827 167.331 109.674C168.023 109.532 168.666 109.211 169.195 108.742C169.371 108.579 169.507 108.379 169.594 108.157C169.681 107.934 169.716 107.694 169.696 107.456C169.687 107.281 169.629 107.112 169.529 106.968C169.497 106.968 169.529 107.154 169.561 107.462C169.558 107.678 169.509 107.89 169.415 108.084C169.322 108.279 169.188 108.45 169.021 108.587C168.508 108.992 167.903 109.265 167.26 109.384C166.451 109.517 165.631 109.578 164.811 109.564C163.962 109.555 163.116 109.688 162.311 109.957C161.637 110.191 161.06 110.644 160.671 111.242C160.42 111.645 160.274 112.105 160.247 112.579C160.211 112.755 160.224 112.938 160.286 113.106Z" fill="#EB996E"/>
<path d="M156.297 100.719C156.243 101.307 156.243 101.898 156.297 102.486C156.297 103.695 156.297 105.141 156.342 106.735C156.387 108.33 156.342 109.776 156.342 110.984C156.304 111.574 156.316 112.165 156.381 112.752C156.521 112.175 156.593 111.584 156.593 110.991C156.67 109.904 156.721 108.42 156.715 106.735C156.709 105.051 156.644 103.56 156.567 102.474C156.54 101.881 156.45 101.292 156.297 100.719Z" fill="#EB996E"/>
<path d="M162.295 115.079C162.475 115.036 162.648 114.969 162.81 114.88C163.019 114.772 163.249 114.711 163.484 114.7C163.719 114.689 163.954 114.728 164.172 114.815C164.307 114.888 164.42 114.995 164.501 115.124C164.582 115.254 164.628 115.402 164.635 115.554C164.656 115.938 164.628 116.322 164.552 116.699C164.445 117.172 164.521 117.667 164.764 118.087C164.917 118.303 165.12 118.479 165.354 118.602C165.589 118.725 165.849 118.791 166.114 118.794C166.374 118.792 166.631 118.738 166.87 118.634C167.108 118.53 167.323 118.379 167.502 118.19C167.837 117.854 168.061 117.423 168.145 116.956C168.246 116.2 168.235 115.433 168.113 114.68C168.046 114.171 167.892 113.677 167.656 113.221C167.476 112.9 167.309 112.778 167.296 112.79C167.283 112.803 167.399 112.964 167.534 113.279C167.711 113.741 167.821 114.226 167.862 114.719C167.946 115.443 167.936 116.176 167.83 116.898C167.748 117.307 167.536 117.678 167.225 117.956C166.915 118.234 166.522 118.404 166.107 118.441C165.898 118.439 165.692 118.389 165.506 118.294C165.319 118.2 165.158 118.063 165.034 117.894C164.839 117.542 164.778 117.131 164.86 116.737C164.932 116.332 164.949 115.919 164.912 115.509C164.893 115.314 164.824 115.126 164.711 114.965C164.599 114.804 164.446 114.675 164.269 114.59C164.019 114.495 163.75 114.461 163.484 114.49C163.218 114.519 162.962 114.61 162.739 114.757C162.437 114.937 162.257 115.034 162.295 115.079Z" fill="#EB996E"/>
<path d="M167.351 117.921C167.306 118.089 167.324 118.268 167.402 118.423C167.493 118.643 167.632 118.84 167.811 118.998C167.989 119.157 168.201 119.272 168.431 119.336C168.777 119.41 169.137 119.393 169.475 119.288C169.813 119.182 170.117 118.99 170.359 118.731C170.939 118.095 171.25 117.259 171.227 116.398C171.227 115.548 170.962 114.719 170.468 114.026C170.066 113.461 169.517 113.017 168.881 112.74C168.463 112.552 168.014 112.445 167.557 112.425C167.235 112.425 167.062 112.425 167.062 112.477C167.655 112.553 168.233 112.718 168.778 112.965C169.349 113.249 169.839 113.671 170.205 114.193C170.632 114.841 170.856 115.602 170.848 116.379C170.869 117.15 170.603 117.901 170.102 118.487C169.898 118.718 169.639 118.893 169.349 118.995C169.059 119.097 168.747 119.124 168.444 119.072C168.241 119.027 168.051 118.938 167.886 118.813C167.72 118.688 167.584 118.528 167.486 118.346C167.396 118.101 167.396 117.921 167.351 117.921Z" fill="#EB996E"/>
<path d="M161.249 123.858C160.972 123.771 160.676 123.771 160.4 123.858C159.676 124.017 159.026 124.41 158.549 124.977L158.845 125.067C158.805 124.669 158.741 124.274 158.652 123.884C158.396 122.502 157.762 121.218 156.82 120.175C157.449 121.381 157.949 122.65 158.311 123.961C158.401 124.36 158.465 124.745 158.51 125.105L158.562 125.504L158.812 125.189C159.239 124.663 159.808 124.273 160.452 124.064C160.934 123.916 161.249 123.903 161.249 123.858Z" fill="#EB996E"/>
<path d="M161.407 108.749C161.323 108.787 161.664 109.392 162.448 109.758C163.233 110.124 163.927 109.912 163.895 109.822C163.862 109.732 163.252 109.739 162.609 109.437C161.966 109.135 161.491 108.685 161.407 108.749Z" fill="#EB996E"/>
<path d="M147.625 131.393L166.389 132.737C166.389 132.737 163.503 165.937 162.943 171.086C162.384 176.235 159.087 184 147.625 184C136.164 184 134.03 180.098 128.933 172.063C134.943 167.898 144.489 155.46 144.489 155.46L147.625 131.393Z" fill="#2B29A4"/>
<path d="M156.471 135.859C156.374 136.139 156.258 136.412 156.124 136.676L155.076 138.887L151.374 146.53L151.187 146.305L156.053 144.858L160.996 143.406L161.356 143.303L161.183 143.631L157.326 151.119L156.188 153.273C156.062 153.536 155.914 153.787 155.745 154.025C155.843 153.75 155.959 153.481 156.092 153.221C156.362 152.669 156.735 151.936 157.146 151.029L160.881 143.489L161.067 143.714L156.13 145.18L151.258 146.607L150.904 146.71L151.071 146.382L154.909 138.816C155.378 137.923 155.757 137.19 156.04 136.643C156.162 136.37 156.306 136.108 156.471 135.859Z" fill="#E0E0E0"/>
<path d="M154.697 167.795C154.409 167.857 154.116 167.896 153.822 167.911L151.38 168.123L142.933 168.766L143.036 168.489L146.739 171.961L150.486 175.496L150.756 175.753H150.383L141.982 176.216L139.552 176.319C139.261 176.344 138.969 176.344 138.678 176.319C138.964 176.262 139.254 176.228 139.546 176.216L141.969 176.017L150.364 175.438L150.268 175.715L146.507 172.186L142.818 168.702L142.548 168.451H142.914L151.367 167.943L153.816 167.821C154.108 167.79 154.403 167.781 154.697 167.795Z" fill="#E0E0E0"/>
<path d="M124.479 131L103.975 181.708H67V184H177.133L199.664 131H124.479Z" fill="#263238"/>
<path d="M155.827 160.938C155.085 163.489 152.923 165.102 150.995 164.546C149.068 163.99 148.11 161.457 148.852 158.905C149.593 156.354 151.762 154.741 153.689 155.297C155.617 155.853 156.574 158.386 155.827 160.938Z" fill="#FAFAFA"/>
</svg>
